<svg xmlns="http://www.w3.org/2000/svg" xmlns:xlink="http://www.w3.org/1999/xlink" width="1464.643" height="245.059" viewBox="0 0 1464.643 245.059">
  <defs>
    <linearGradient id="linear-gradient-15k" x1="-0.055" y1="0.5" x2="1.1" y2="0.5" gradientUnits="objectBoundingBox">
      <stop offset="0" stop-color="#04c9e4"/>
      <stop offset="0.48" stop-color="#fa41a5"/>
      <stop offset="1" stop-color="#f3bd2f"/>
    </linearGradient>
  </defs>
  <path id="_15.000_" data-name="15.000+" d="M1138.535,8.143a169.956,169.956,0,0,1-36.623-3.866A147.993,147.993,0,0,1,1069.179-7a127.637,127.637,0,0,1-27.659-18.132,116.562,116.562,0,0,1-11.508-11.424,113.554,113.554,0,0,1-9.7-12.823,110.421,110.421,0,0,1-7.8-14.2,118.683,118.683,0,0,1-5.805-15.536,114.322,114.322,0,0,1-3.613-16.814,131.557,131.557,0,0,1-1.2-17.955,130.457,130.457,0,0,1,1.2-17.852,115.764,115.764,0,0,1,3.611-16.831,118.827,118.827,0,0,1,5.805-15.6,109.778,109.778,0,0,1,7.8-14.226,113.554,113.554,0,0,1,9.7-12.823,116.562,116.562,0,0,1,11.508-11.424,127.647,127.647,0,0,1,27.659-18.132,148.005,148.005,0,0,1,32.733-11.277,169.956,169.956,0,0,1,36.623-3.866,173.411,173.411,0,0,1,27.629,2.163,153.378,153.378,0,0,1,25.821,6.5,141.131,141.131,0,0,1,23.282,10.484,124.553,124.553,0,0,1,20.037,14.132,114.328,114.328,0,0,1,16.454,17.616,118.137,118.137,0,0,1,12.519,20.9,109.372,109.372,0,0,1,7.928,23.866,128.606,128.606,0,0,1,2.637,26.372,128.606,128.606,0,0,1-2.637,26.372,109.372,109.372,0,0,1-7.928,23.866,118.136,118.136,0,0,1-12.519,20.9A114.328,114.328,0,0,1,1235.3-25.134,124.553,124.553,0,0,1,1215.268-11,141.131,141.131,0,0,1,1191.985-.518a153.393,153.393,0,0,1-25.821,6.5A173.43,173.43,0,0,1,1138.535,8.143Zm0-240.059a165.961,165.961,0,0,0-35.76,3.771,144,144,0,0,0-31.847,10.969,123.642,123.642,0,0,0-26.794,17.561,112.548,112.548,0,0,0-11.112,11.03,109.523,109.523,0,0,0-9.354,12.37,105.719,105.719,0,0,0-7.515,13.706,114.779,114.779,0,0,0-5.608,15.072,111.722,111.722,0,0,0-3.486,16.247,126.461,126.461,0,0,0-1.164,17.3,127.522,127.522,0,0,0,1.164,17.407,110.287,110.287,0,0,0,3.485,16.223,114.653,114.653,0,0,0,5.608,15.011,106.377,106.377,0,0,0,7.515,13.687,109.523,109.523,0,0,0,9.354,12.37,112.549,112.549,0,0,0,11.112,11.03A123.639,123.639,0,0,0,1070.928-10.6,143.986,143.986,0,0,0,1102.776.371a165.95,165.95,0,0,0,35.76,3.771,169.424,169.424,0,0,0,26.99-2.112A149.375,149.375,0,0,0,1190.671-4.3a137.134,137.134,0,0,0,22.621-10.185,120.558,120.558,0,0,0,19.392-13.676,110.328,110.328,0,0,0,15.878-17,114.124,114.124,0,0,0,12.093-20.19,105.375,105.375,0,0,0,7.636-22.992,124.606,124.606,0,0,0,2.551-25.549,124.606,124.606,0,0,0-2.551-25.549,105.376,105.376,0,0,0-7.636-22.992,114.124,114.124,0,0,0-12.093-20.19,110.327,110.327,0,0,0-15.878-17,120.559,120.559,0,0,0-19.392-13.676,137.133,137.133,0,0,0-22.621-10.185,149.36,149.36,0,0,0-25.146-6.327A169.406,169.406,0,0,0,1138.535-231.916ZM864.078,8.143a169.959,169.959,0,0,1-36.623-3.866A147.985,147.985,0,0,1,794.722-7a127.638,127.638,0,0,1-27.659-18.132,116.587,116.587,0,0,1-11.508-11.424,113.534,113.534,0,0,1-9.7-12.823,110.422,110.422,0,0,1-7.8-14.2,118.683,118.683,0,0,1-5.805-15.536,114.3,114.3,0,0,1-3.612-16.814,131.532,131.532,0,0,1-1.2-17.955,130.459,130.459,0,0,1,1.2-17.852,115.77,115.77,0,0,1,3.611-16.831,118.827,118.827,0,0,1,5.805-15.6,109.733,109.733,0,0,1,7.8-14.226,113.533,113.533,0,0,1,9.7-12.823,116.588,116.588,0,0,1,11.508-11.424,127.645,127.645,0,0,1,27.659-18.132,148,148,0,0,1,32.733-11.277,169.959,169.959,0,0,1,36.623-3.866,173.41,173.41,0,0,1,27.629,2.163,153.378,153.378,0,0,1,25.821,6.5,141.134,141.134,0,0,1,23.282,10.484,124.546,124.546,0,0,1,20.037,14.132A114.341,114.341,0,0,1,977.3-185.023a118.126,118.126,0,0,1,12.519,20.9,109.365,109.365,0,0,1,7.928,23.866,128.606,128.606,0,0,1,2.637,26.372,128.606,128.606,0,0,1-2.637,26.372,109.365,109.365,0,0,1-7.928,23.866A118.125,118.125,0,0,1,977.3-42.75a114.341,114.341,0,0,1-16.454,17.616A124.546,124.546,0,0,1,940.811-11,141.134,141.134,0,0,1,917.528-.518a153.392,153.392,0,0,1-25.821,6.5A173.43,173.43,0,0,1,864.078,8.143Zm0-240.059a165.965,165.965,0,0,0-35.76,3.771,144,144,0,0,0-31.847,10.969,123.64,123.64,0,0,0-26.794,17.561,112.575,112.575,0,0,0-11.112,11.03,109.518,109.518,0,0,0-9.354,12.37,105.72,105.72,0,0,0-7.515,13.706,114.769,114.769,0,0,0-5.608,15.072,111.756,111.756,0,0,0-3.486,16.247,126.435,126.435,0,0,0-1.164,17.3A127.526,127.526,0,0,0,732.6-96.48a110.329,110.329,0,0,0,3.485,16.224A114.641,114.641,0,0,0,741.7-65.246a106.378,106.378,0,0,0,7.516,13.687,109.518,109.518,0,0,0,9.354,12.37,112.576,112.576,0,0,0,11.112,11.03A123.636,123.636,0,0,0,796.471-10.6,143.982,143.982,0,0,0,828.318.371a165.953,165.953,0,0,0,35.76,3.771,169.426,169.426,0,0,0,26.99-2.112A149.375,149.375,0,0,0,916.214-4.3a137.134,137.134,0,0,0,22.621-10.185,120.539,120.539,0,0,0,19.392-13.676,110.327,110.327,0,0,0,15.878-17A114.133,114.133,0,0,0,986.2-65.345a105.362,105.362,0,0,0,7.636-22.992,124.607,124.607,0,0,0,2.551-25.549,124.607,124.607,0,0,0-2.551-25.549,105.362,105.362,0,0,0-7.636-22.992,114.132,114.132,0,0,0-12.093-20.19,110.327,110.327,0,0,0-15.878-17,120.54,120.54,0,0,0-19.392-13.676,137.133,137.133,0,0,0-22.621-10.185,149.361,149.361,0,0,0-25.146-6.327A169.407,169.407,0,0,0,864.078-231.916ZM589.621,8.143A169.956,169.956,0,0,1,553,4.277,147.983,147.983,0,0,1,520.265-7a127.648,127.648,0,0,1-27.659-18.132A116.627,116.627,0,0,1,481.1-36.556a113.558,113.558,0,0,1-9.7-12.823,110.4,110.4,0,0,1-7.8-14.2A118.664,118.664,0,0,1,457.8-79.118a114.33,114.33,0,0,1-3.613-16.814,131.552,131.552,0,0,1-1.2-17.955,130.452,130.452,0,0,1,1.2-17.852,115.773,115.773,0,0,1,3.611-16.831,118.81,118.81,0,0,1,5.805-15.6,109.717,109.717,0,0,1,7.8-14.226,113.557,113.557,0,0,1,9.7-12.823,116.627,116.627,0,0,1,11.508-11.424,127.65,127.65,0,0,1,27.659-18.132A148,148,0,0,1,553-232.05a169.956,169.956,0,0,1,36.623-3.866,173.413,173.413,0,0,1,27.629,2.163,153.374,153.374,0,0,1,25.821,6.5,141.132,141.132,0,0,1,23.282,10.484,124.555,124.555,0,0,1,20.037,14.132,114.343,114.343,0,0,1,16.454,17.616,118.125,118.125,0,0,1,12.519,20.9,109.375,109.375,0,0,1,7.928,23.866,128.607,128.607,0,0,1,2.637,26.372,128.607,128.607,0,0,1-2.637,26.372,109.375,109.375,0,0,1-7.928,23.866,118.124,118.124,0,0,1-12.519,20.9A114.343,114.343,0,0,1,686.39-25.134,124.556,124.556,0,0,1,666.354-11,141.132,141.132,0,0,1,643.071-.518a153.392,153.392,0,0,1-25.821,6.5A173.432,173.432,0,0,1,589.621,8.143Zm0-240.059a165.962,165.962,0,0,0-35.759,3.771,144,144,0,0,0-31.847,10.969,123.645,123.645,0,0,0-26.794,17.561,112.556,112.556,0,0,0-11.112,11.03,109.509,109.509,0,0,0-9.354,12.37,105.736,105.736,0,0,0-7.515,13.706,114.747,114.747,0,0,0-5.608,15.072,111.718,111.718,0,0,0-3.486,16.247,126.456,126.456,0,0,0-1.164,17.3,127.517,127.517,0,0,0,1.164,17.407,110.283,110.283,0,0,0,3.485,16.223,114.651,114.651,0,0,0,5.608,15.011,106.382,106.382,0,0,0,7.516,13.687,109.509,109.509,0,0,0,9.354,12.37,112.557,112.557,0,0,0,11.112,11.03A123.64,123.64,0,0,0,522.014-10.6,143.983,143.983,0,0,0,553.862.371a165.95,165.95,0,0,0,35.759,3.771,169.426,169.426,0,0,0,26.99-2.112A149.372,149.372,0,0,0,641.757-4.3a137.134,137.134,0,0,0,22.621-10.185A120.555,120.555,0,0,0,683.77-28.157a110.336,110.336,0,0,0,15.878-17,114.127,114.127,0,0,0,12.093-20.19,105.375,105.375,0,0,0,7.636-22.992,124.607,124.607,0,0,0,2.551-25.549,124.607,124.607,0,0,0-2.551-25.549,105.376,105.376,0,0,0-7.636-22.992,114.127,114.127,0,0,0-12.093-20.19,110.335,110.335,0,0,0-15.878-17,120.556,120.556,0,0,0-19.392-13.676,137.133,137.133,0,0,0-22.621-10.185,149.363,149.363,0,0,0-25.146-6.327A169.407,169.407,0,0,0,589.621-231.916ZM252.211,8.143c-11.18,0-21.987-.421-32.121-1.252s-19.736-1.982-28.548-3.423S174.582.4,167.317-1.377c-7.281-1.778-13.685-3.641-19.036-5.536l-1.332-.472V-65.724l2.843,1.323c4.687,2.18,10.3,4.476,16.7,6.826a181.355,181.355,0,0,0,22.329,6.4A282.935,282.935,0,0,0,217.665-46.4a311.332,311.332,0,0,0,36.04,1.9,226.325,226.325,0,0,0,31.878-1.951c8.815-1.28,16.073-3.215,21.571-5.751,5.385-2.483,9.453-5.438,12.093-8.782a17.881,17.881,0,0,0,2.887-5.2,17.83,17.83,0,0,0,.958-5.865,22.2,22.2,0,0,0-1.066-6.973,19.7,19.7,0,0,0-3.181-5.931c-2.883-3.7-7.321-6.811-13.193-9.237a94.2,94.2,0,0,0-22.326-5.658,220.378,220.378,0,0,0-30.782-1.91c-7.773,0-15.516.277-23.014.825s-14.72,1.3-21.454,2.227-13.07,2.038-18.859,3.294-11.059,2.559-15.646,3.87l-.269.077H156.08V-230.105H369.26v52.311H217.521v30.642c2.948-.5,6.152-.949,9.558-1.342,4.321-.5,8.874-.92,13.534-1.253,4.638-.331,9.4-.611,14.161-.833s9.548-.334,14.2-.334c9.265,0,18.164.422,26.451,1.255a193.407,193.407,0,0,1,23.549,3.775,141.256,141.256,0,0,1,20.441,6.233,101.139,101.139,0,0,1,17.128,8.64,76.1,76.1,0,0,1,13.682,11.042,65.388,65.388,0,0,1,10.061,13.4,61.789,61.789,0,0,1,6.178,15.7,75.086,75.086,0,0,1,2.05,17.824,76.4,76.4,0,0,1-.825,11.281h66.435V2h-66.92V-58.912q-.267,1.4-.589,2.776a69.249,69.249,0,0,1-5.706,15.621,61.2,61.2,0,0,1-9.867,13.989,78.352,78.352,0,0,1-14.225,11.844,104.2,104.2,0,0,1-18.768,9.589A166.829,166.829,0,0,1,314.59,2.113a218.546,218.546,0,0,1-28.527,4.526C275.727,7.637,264.337,8.143,252.211,8.143ZM150.949-10.221c4.947,1.691,10.765,3.357,17.317,4.957,7.164,1.75,15.212,3.36,23.921,4.784s18.2,2.562,28.229,3.384,20.724,1.238,31.795,1.238c12,0,23.259-.5,33.468-1.485a214.573,214.573,0,0,0,28-4.439,162.842,162.842,0,0,0,22.9-7.029,100.2,100.2,0,0,0,18.046-9.213,74.353,74.353,0,0,0,13.5-11.232,57.2,57.2,0,0,0,9.225-13.072,65.237,65.237,0,0,0,5.376-14.718,70.455,70.455,0,0,0,1.795-16,71.089,71.089,0,0,0-1.935-16.873,57.8,57.8,0,0,0-5.775-14.683,61.392,61.392,0,0,0-9.446-12.58A72.093,72.093,0,0,0,354.4-127.64a97.123,97.123,0,0,0-16.449-8.293,137.257,137.257,0,0,0-19.86-6.053,189.385,189.385,0,0,0-23.059-3.7c-8.155-.82-16.919-1.235-26.051-1.235-4.595,0-9.311.111-14.018.33-4.725.22-9.456.5-14.062.827s-9.1.745-13.361,1.237-8.168,1.07-11.648,1.722l-2.369.444v-39.439H365.26v-44.311H160.08V-95.467h12.662c4.605-1.308,9.861-2.6,15.627-3.856,5.887-1.277,12.333-2.4,19.159-3.347s14.123-1.7,21.71-2.255,15.435-.835,23.3-.835a224.358,224.358,0,0,1,31.349,1.95,98.141,98.141,0,0,1,23.287,5.921,44.3,44.3,0,0,1,8.558,4.607A29.142,29.142,0,0,1,322-87.411a24.384,24.384,0,0,1,5.091,15.361c0,9.993-6.144,17.893-18.262,23.481-5.848,2.7-13.475,4.742-22.671,6.077A230.285,230.285,0,0,1,253.705-40.5,315.291,315.291,0,0,1,217.2-42.423a286.916,286.916,0,0,1-29.259-4.85,185.35,185.35,0,0,1-22.827-6.548c-5.256-1.932-10-3.832-14.161-5.666ZM391.207-2h58.92V-57.766h-58.92ZM127.84,2H62.58V-179.9L1.32-160.807v-49.848l62.958-19.45H127.84ZM66.58-2h57.26V-226.105H64.882L5.32-207.7v41.461l61.26-19.092ZM1399.719-22.072h-52.643v-65.41h-65.244v-52.477h65.244v-65.41h52.643v65.41h65.244v52.477h-65.244Zm-48.643-4h44.643v-65.41h65.244v-44.477h-65.244v-65.41h-44.643v65.41h-65.244v44.477h65.244ZM1138.535-40.5a86.4,86.4,0,0,1-14.489-1.211,83.321,83.321,0,0,1-13.907-3.636,74.209,74.209,0,0,1-12.818-5.973,69.694,69.694,0,0,1-11.175-8.2,66.007,66.007,0,0,1-9.331-10.422,74.057,74.057,0,0,1-7.253-12.563,66.809,66.809,0,0,1-4.687-14.718,85.938,85.938,0,0,1-1.553-16.659,85.938,85.938,0,0,1,1.553-16.659,66.808,66.808,0,0,1,4.687-14.718,74.812,74.812,0,0,1,7.251-12.581,67.08,67.08,0,0,1,9.327-10.481,68.283,68.283,0,0,1,11.181-8.252,72.077,72.077,0,0,1,12.828-5.935,84.479,84.479,0,0,1,13.9-3.571,87.848,87.848,0,0,1,14.484-1.19,87.1,87.1,0,0,1,14.444,1.19,82.39,82.39,0,0,1,13.783,3.573,71.786,71.786,0,0,1,12.7,5.935,69.175,69.175,0,0,1,11.135,8.249,66.267,66.267,0,0,1,9.309,10.485,73.626,73.626,0,0,1,7.19,12.586,67.47,67.47,0,0,1,4.621,14.714,87.073,87.073,0,0,1,1.531,16.653,87.073,87.073,0,0,1-1.531,16.653,67.47,67.47,0,0,1-4.621,14.714,72.9,72.9,0,0,1-7.192,12.568,65.218,65.218,0,0,1-9.314,10.426,70.6,70.6,0,0,1-11.128,8.2,73.935,73.935,0,0,1-12.691,5.973,81.246,81.246,0,0,1-13.787,3.639A85.65,85.65,0,0,1,1138.535-40.5Zm0-142.773a83.835,83.835,0,0,0-13.822,1.135,80.493,80.493,0,0,0-13.242,3.4,68.076,68.076,0,0,0-12.115,5.6,64.282,64.282,0,0,0-10.525,7.768,63.064,63.064,0,0,0-8.769,9.856,70.782,70.782,0,0,0-6.86,11.907,62.789,62.789,0,0,0-4.4,13.836,81.921,81.921,0,0,0-1.477,15.88,81.921,81.921,0,0,0,1.477,15.88,62.79,62.79,0,0,0,4.4,13.836,70.043,70.043,0,0,0,6.858,11.883,62.014,62.014,0,0,0,8.764,9.79,65.676,65.676,0,0,0,10.532,7.733,70.206,70.206,0,0,0,12.126,5.649,79.3,79.3,0,0,0,13.237,3.461,82.365,82.365,0,0,0,13.816,1.154,81.627,81.627,0,0,0,13.773-1.154,77.24,77.24,0,0,0,13.107-3.459,69.925,69.925,0,0,0,12-5.648,66.594,66.594,0,0,0,10.5-7.736,61.213,61.213,0,0,0,8.741-9.786,68.9,68.9,0,0,0,6.795-11.878A63.451,63.451,0,0,0,1207.793-98a83.067,83.067,0,0,0,1.457-15.885,83.067,83.067,0,0,0-1.457-15.885,63.451,63.451,0,0,0-4.344-13.841,69.605,69.605,0,0,0-6.8-11.9,62.247,62.247,0,0,0-8.745-9.852,65.158,65.158,0,0,0-10.489-7.771,67.78,67.78,0,0,0-11.993-5.6,78.391,78.391,0,0,0-13.112-3.4A83.1,83.1,0,0,0,1138.535-183.273ZM864.078-40.5a86.4,86.4,0,0,1-14.489-1.211,83.328,83.328,0,0,1-13.907-3.636,74.219,74.219,0,0,1-12.818-5.973,69.7,69.7,0,0,1-11.175-8.2,66.016,66.016,0,0,1-9.331-10.422,74.055,74.055,0,0,1-7.253-12.563,66.806,66.806,0,0,1-4.687-14.718,85.933,85.933,0,0,1-1.553-16.659,85.933,85.933,0,0,1,1.553-16.659,66.806,66.806,0,0,1,4.687-14.718,74.8,74.8,0,0,1,7.251-12.581,67.073,67.073,0,0,1,9.327-10.481,68.3,68.3,0,0,1,11.181-8.252,72.079,72.079,0,0,1,12.829-5.935,84.481,84.481,0,0,1,13.9-3.571,87.844,87.844,0,0,1,14.483-1.19,87.1,87.1,0,0,1,14.444,1.19A82.39,82.39,0,0,1,892.3-182.51a71.8,71.8,0,0,1,12.7,5.935,69.166,69.166,0,0,1,11.135,8.249,66.257,66.257,0,0,1,9.309,10.485,73.63,73.63,0,0,1,7.19,12.586,67.442,67.442,0,0,1,4.621,14.714,87.061,87.061,0,0,1,1.531,16.654,87.061,87.061,0,0,1-1.531,16.654,67.442,67.442,0,0,1-4.621,14.714,72.9,72.9,0,0,1-7.192,12.568,65.214,65.214,0,0,1-9.313,10.426,70.605,70.605,0,0,1-11.128,8.2,73.926,73.926,0,0,1-12.691,5.973,81.247,81.247,0,0,1-13.787,3.639A85.649,85.649,0,0,1,864.078-40.5Zm0-142.773a83.831,83.831,0,0,0-13.822,1.135,80.488,80.488,0,0,0-13.242,3.4,68.084,68.084,0,0,0-12.115,5.6,64.308,64.308,0,0,0-10.525,7.768,63.077,63.077,0,0,0-8.769,9.856,70.765,70.765,0,0,0-6.86,11.907,62.793,62.793,0,0,0-4.4,13.836,81.93,81.93,0,0,0-1.477,15.88,81.93,81.93,0,0,0,1.477,15.88,62.793,62.793,0,0,0,4.4,13.836A70.027,70.027,0,0,0,805.6-72.287a61.994,61.994,0,0,0,8.764,9.79A65.686,65.686,0,0,0,824.9-54.764a70.2,70.2,0,0,0,12.126,5.649,79.308,79.308,0,0,0,13.237,3.461A82.367,82.367,0,0,0,864.078-44.5a81.629,81.629,0,0,0,13.773-1.154,77.241,77.241,0,0,0,13.107-3.459,69.93,69.93,0,0,0,12-5.648,66.6,66.6,0,0,0,10.5-7.736,61.212,61.212,0,0,0,8.741-9.786,68.9,68.9,0,0,0,6.795-11.878A63.448,63.448,0,0,0,933.336-98a83.062,83.062,0,0,0,1.457-15.885,83.062,83.062,0,0,0-1.457-15.885,63.448,63.448,0,0,0-4.344-13.841,69.629,69.629,0,0,0-6.8-11.9,62.262,62.262,0,0,0-8.745-9.852,65.159,65.159,0,0,0-10.489-7.771,67.777,67.777,0,0,0-11.993-5.6,78.387,78.387,0,0,0-13.112-3.4A83.1,83.1,0,0,0,864.078-183.273ZM589.621-40.5a86.4,86.4,0,0,1-14.489-1.211,83.328,83.328,0,0,1-13.907-3.636,74.219,74.219,0,0,1-12.818-5.973,69.7,69.7,0,0,1-11.175-8.2A66.016,66.016,0,0,1,527.9-69.947a74.073,74.073,0,0,1-7.253-12.563,66.806,66.806,0,0,1-4.687-14.718,85.933,85.933,0,0,1-1.553-16.659,85.933,85.933,0,0,1,1.553-16.659,66.806,66.806,0,0,1,4.687-14.718,74.812,74.812,0,0,1,7.251-12.581,67.073,67.073,0,0,1,9.327-10.481,68.3,68.3,0,0,1,11.181-8.252,72.079,72.079,0,0,1,12.829-5.935,84.483,84.483,0,0,1,13.9-3.571,87.844,87.844,0,0,1,14.483-1.19,87.1,87.1,0,0,1,14.444,1.19,82.392,82.392,0,0,1,13.783,3.573,71.8,71.8,0,0,1,12.7,5.935,69.173,69.173,0,0,1,11.134,8.249,66.256,66.256,0,0,1,9.309,10.485,73.618,73.618,0,0,1,7.19,12.586A67.457,67.457,0,0,1,662.8-130.54a87.073,87.073,0,0,1,1.531,16.653A87.073,87.073,0,0,1,662.8-97.233a67.457,67.457,0,0,1-4.621,14.714,72.9,72.9,0,0,1-7.192,12.568,65.215,65.215,0,0,1-9.314,10.426,70.6,70.6,0,0,1-11.128,8.2,73.926,73.926,0,0,1-12.691,5.973,81.252,81.252,0,0,1-13.788,3.639A85.649,85.649,0,0,1,589.621-40.5Zm0-142.773a83.831,83.831,0,0,0-13.822,1.135,80.488,80.488,0,0,0-13.242,3.4,68.084,68.084,0,0,0-12.115,5.6,64.308,64.308,0,0,0-10.525,7.768,63.085,63.085,0,0,0-8.769,9.855,70.8,70.8,0,0,0-6.86,11.907,62.793,62.793,0,0,0-4.4,13.836,81.93,81.93,0,0,0-1.477,15.88,81.93,81.93,0,0,0,1.477,15.88,62.793,62.793,0,0,0,4.4,13.836,70.039,70.039,0,0,0,6.858,11.883,62.012,62.012,0,0,0,8.764,9.79,65.686,65.686,0,0,0,10.532,7.733,70.2,70.2,0,0,0,12.126,5.649A79.308,79.308,0,0,0,575.8-45.654,82.367,82.367,0,0,0,589.621-44.5a81.629,81.629,0,0,0,13.773-1.154A77.247,77.247,0,0,0,616.5-49.113a69.937,69.937,0,0,0,12-5.648A66.6,66.6,0,0,0,639-62.5a61.213,61.213,0,0,0,8.741-9.786,68.9,68.9,0,0,0,6.795-11.878A63.448,63.448,0,0,0,658.879-98a83.062,83.062,0,0,0,1.457-15.885,83.062,83.062,0,0,0-1.457-15.885,63.447,63.447,0,0,0-4.343-13.841,69.617,69.617,0,0,0-6.8-11.9,62.253,62.253,0,0,0-8.745-9.852,65.165,65.165,0,0,0-10.489-7.771,67.777,67.777,0,0,0-11.993-5.6,78.394,78.394,0,0,0-13.112-3.4A83.1,83.1,0,0,0,589.621-183.273Z" transform="translate(-0.82 236.416)" stroke="rgba(0,0,0,0)" stroke-miterlimit="10" stroke-width="1" fill="url(#linear-gradient-15k)"/>
</svg>
