<svg xmlns="http://www.w3.org/2000/svg" xmlns:xlink="http://www.w3.org/1999/xlink" width="346.445" height="59.484" viewBox="0 0 346.445 59.484">
  <defs>
    <linearGradient id="linear-gradient-15k-mobile" x1="-0.055" y1="0.5" x2="1.1" y2="0.5" gradientUnits="objectBoundingBox">
      <stop offset="0" stop-color="#04c9e4"/>
      <stop offset="0.48" stop-color="#fa41a5"/>
      <stop offset="1" stop-color="#f3bd2f"/>
    </linearGradient>
  </defs>
  <path id="_15.000_" data-name="15.000+" d="M267.891,2.445a40.525,40.525,0,0,1-8.732-.922,35.353,35.353,0,0,1-7.819-2.694,30.564,30.564,0,0,1-6.623-4.342,27.5,27.5,0,0,1-5.087-5.817,27.356,27.356,0,0,1-3.265-7.135,27.143,27.143,0,0,1-.8-3.594,26.62,26.62,0,0,1-2.186,7.308,27.644,27.644,0,0,1-6.95,9.238A31.518,31.518,0,0,1,216.063.378a38.709,38.709,0,0,1-12.751,2.067,40.525,40.525,0,0,1-8.732-.922,35.353,35.353,0,0,1-7.819-2.694,30.564,30.564,0,0,1-6.623-4.342,27.5,27.5,0,0,1-5.087-5.817,27.357,27.357,0,0,1-3.265-7.135,27.143,27.143,0,0,1-.8-3.594,26.621,26.621,0,0,1-2.186,7.308,27.644,27.644,0,0,1-6.95,9.238A31.518,31.518,0,0,1,151.485.378a38.709,38.709,0,0,1-12.751,2.067A40.524,40.524,0,0,1,130,1.523a35.354,35.354,0,0,1-7.819-2.694,30.564,30.564,0,0,1-6.623-4.342,27.5,27.5,0,0,1-5.087-5.817,27.36,27.36,0,0,1-3.265-7.135,29.276,29.276,0,0,1-1.155-8.331,29.336,29.336,0,0,1,1.154-8.311,27.294,27.294,0,0,1,3.265-7.156,27.5,27.5,0,0,1,5.087-5.817,30.565,30.565,0,0,1,6.623-4.342A35.352,35.352,0,0,1,130-55.117a40.52,40.52,0,0,1,8.732-.922,38.71,38.71,0,0,1,12.751,2.067A31.518,31.518,0,0,1,161.85-48.08a27.643,27.643,0,0,1,6.95,9.238,26.623,26.623,0,0,1,2.188,7.32,27.5,27.5,0,0,1,.8-3.586,27.291,27.291,0,0,1,3.265-7.156,27.5,27.5,0,0,1,5.087-5.817,30.565,30.565,0,0,1,6.623-4.342,35.353,35.353,0,0,1,7.819-2.694,40.521,40.521,0,0,1,8.732-.922,38.71,38.71,0,0,1,12.751,2.067,31.518,31.518,0,0,1,10.365,5.892,27.643,27.643,0,0,1,6.95,9.238,26.623,26.623,0,0,1,2.188,7.32,27.5,27.5,0,0,1,.8-3.586,27.292,27.292,0,0,1,3.265-7.156,27.5,27.5,0,0,1,5.087-5.817,30.565,30.565,0,0,1,6.623-4.342,35.352,35.352,0,0,1,7.819-2.694,40.521,40.521,0,0,1,8.732-.922,38.71,38.71,0,0,1,12.751,2.067,31.518,31.518,0,0,1,10.365,5.892,27.643,27.643,0,0,1,6.95,9.238A28.189,28.189,0,0,1,300.492-26.8a28.189,28.189,0,0,1-2.536,12.045,27.643,27.643,0,0,1-6.95,9.238A31.518,31.518,0,0,1,280.641.378,38.709,38.709,0,0,1,267.891,2.445Zm0-56.484a38.52,38.52,0,0,0-8.3.875,33.352,33.352,0,0,0-7.376,2.54,28.566,28.566,0,0,0-6.19,4.057,25.5,25.5,0,0,0-4.718,5.394,25.3,25.3,0,0,0-3.024,6.633,27.341,27.341,0,0,0-1.072,7.744,27.281,27.281,0,0,0,1.072,7.762,25.357,25.357,0,0,0,3.024,6.615,25.5,25.5,0,0,0,4.718,5.394,28.565,28.565,0,0,0,6.19,4.056,33.352,33.352,0,0,0,7.376,2.54,38.52,38.52,0,0,0,8.3.875,36.715,36.715,0,0,0,12.093-1.956A29.529,29.529,0,0,0,289.7-7.025a25.655,25.655,0,0,0,6.449-8.575,26.208,26.208,0,0,0,2.347-11.2,26.208,26.208,0,0,0-2.347-11.2,25.655,25.655,0,0,0-6.449-8.575,29.529,29.529,0,0,0-9.713-5.514A36.716,36.716,0,0,0,267.891-54.039Zm-64.578,0a38.519,38.519,0,0,0-8.3.875,33.352,33.352,0,0,0-7.376,2.54,28.566,28.566,0,0,0-6.19,4.057,25.5,25.5,0,0,0-4.718,5.394,25.293,25.293,0,0,0-3.024,6.633,27.34,27.34,0,0,0-1.072,7.744,27.281,27.281,0,0,0,1.072,7.762,25.358,25.358,0,0,0,3.024,6.615,25.5,25.5,0,0,0,4.718,5.394,28.565,28.565,0,0,0,6.19,4.056,33.352,33.352,0,0,0,7.376,2.54,38.52,38.52,0,0,0,8.3.875,36.715,36.715,0,0,0,12.093-1.956,29.529,29.529,0,0,0,9.713-5.514,25.657,25.657,0,0,0,6.449-8.575,26.209,26.209,0,0,0,2.347-11.2,26.208,26.208,0,0,0-2.347-11.2,25.656,25.656,0,0,0-6.449-8.575,29.529,29.529,0,0,0-9.713-5.514A36.716,36.716,0,0,0,203.313-54.039Zm-64.578,0a38.519,38.519,0,0,0-8.3.875,33.35,33.35,0,0,0-7.376,2.54,28.562,28.562,0,0,0-6.19,4.057,25.5,25.5,0,0,0-4.718,5.394,25.3,25.3,0,0,0-3.024,6.633,27.34,27.34,0,0,0-1.072,7.744,27.281,27.281,0,0,0,1.072,7.762,25.361,25.361,0,0,0,3.024,6.615,25.5,25.5,0,0,0,4.718,5.394,28.561,28.561,0,0,0,6.19,4.057,33.352,33.352,0,0,0,7.376,2.54,38.519,38.519,0,0,0,8.3.875,36.716,36.716,0,0,0,12.093-1.956,29.529,29.529,0,0,0,9.713-5.514,25.657,25.657,0,0,0,6.449-8.575,26.209,26.209,0,0,0,2.347-11.2,26.208,26.208,0,0,0-2.347-11.2,25.656,25.656,0,0,0-6.449-8.575,29.529,29.529,0,0,0-9.713-5.514A36.717,36.717,0,0,0,138.734-54.039ZM59.344,2.445c-2.645,0-5.2-.1-7.6-.3s-4.673-.469-6.759-.811S40.966.611,39.243.19s-3.255-.866-4.53-1.318l-.666-.236V-16.295l1.422.661c1.09.507,2.4,1.041,3.888,1.589a42.133,42.133,0,0,0,5.188,1.487,66.042,66.042,0,0,0,6.733,1.115A72.715,72.715,0,0,0,59.7-11c5.66,0,9.817-.593,12.355-1.764,2.316-1.068,3.442-2.439,3.442-4.19a4.245,4.245,0,0,0-.888-2.711,6.937,6.937,0,0,0-2.889-2.009c-2.794-1.155-6.93-1.741-12.294-1.741-1.816,0-3.625.065-5.376.193s-3.441.3-5.014.521-3.049.475-4.4.768-2.58.6-3.648.9l-.135.038H36.2v-33.68H87.414V-41.3h-35.7v6.059c.526-.08,1.08-.154,1.659-.221,1.026-.118,2.105-.218,3.208-.3s2.223-.145,3.345-.2,2.263-.079,3.367-.079a53.882,53.882,0,0,1,11.883,1.2,28.544,28.544,0,0,1,9.006,3.569,16.936,16.936,0,0,1,5.763,5.938,16.357,16.357,0,0,1,2,8.148,18.559,18.559,0,0,1-.12,2.125h15.558V1h-16.8V-10.321q-.222.521-.48,1.028a16.62,16.62,0,0,1-5.849,6.28A31.486,31.486,0,0,1,74.142,1.013,66.241,66.241,0,0,1,59.344,2.445Zm-23.3-5.231c1.069.352,2.3.7,3.671,1.033,1.673.409,3.553.785,5.588,1.117s4.255.6,6.6.791,4.847.29,7.438.29A64.282,64.282,0,0,0,73.686-.935,29.533,29.533,0,0,0,83.15-4.683,14.654,14.654,0,0,0,88.316-10.2a15.261,15.261,0,0,0,1.63-6.988A14.386,14.386,0,0,0,88.2-24.352a14.96,14.96,0,0,0-5.1-5.234,26.57,26.57,0,0,0-8.376-3.306,51.9,51.9,0,0,0-11.438-1.147c-1.073,0-2.175.026-3.274.077s-2.214.117-3.3.194-2.123.174-3.121.289-1.9.248-2.7.4l-1.184.222V-43.3h35.7v-9.367H38.2v29.68h2.376c1.077-.3,2.3-.6,3.638-.9,1.4-.3,2.928-.571,4.548-.795s3.346-.4,5.142-.534,3.657-.2,5.522-.2c5.627,0,10.02.637,13.058,1.892a8.879,8.879,0,0,1,3.7,2.629,6.255,6.255,0,0,1,1.31,3.94,5.546,5.546,0,0,1-1.221,3.515,9.061,9.061,0,0,1-3.384,2.491C70.046-9.637,65.731-9,59.7-9a74.716,74.716,0,0,1-8.652-.456,68.055,68.055,0,0,1-6.939-1.15,44.134,44.134,0,0,1-5.437-1.56c-.945-.347-1.821-.69-2.62-1.026ZM92.578-1h12.8V-13.063h-12.8ZM30.609,1H14.2V-41.61L-.219-37.117V-49.956l15.263-4.715H30.609ZM16.2-1H28.609V-52.672H15.346L1.781-48.481v8.645L16.2-44.328Zm313.68-3.664H316.43V-20.055H301.078V-33.461H316.43V-48.852h13.445v15.391h15.352v13.406H329.875Zm-11.445-2h9.445V-22.055h15.352v-9.406H327.875V-46.852H318.43v15.391H303.078v9.406H318.43ZM267.891-9a20.38,20.38,0,0,1-6.859-1.171,17.327,17.327,0,0,1-5.822-3.441,16.849,16.849,0,0,1-4.03-5.582,18.213,18.213,0,0,1-1.516-7.6,18.213,18.213,0,0,1,1.516-7.6,17.065,17.065,0,0,1,4.026-5.6,16.911,16.911,0,0,1,5.831-3.446,20.693,20.693,0,0,1,6.854-1.15,20.352,20.352,0,0,1,6.818,1.151A16.983,16.983,0,0,1,280.5-40a16.833,16.833,0,0,1,4.009,5.6A18.42,18.42,0,0,1,286-26.8a18.42,18.42,0,0,1-1.494,7.6,16.621,16.621,0,0,1-4.012,5.587,17.407,17.407,0,0,1-5.779,3.44A20.046,20.046,0,0,1,267.891-9Zm0-33.594a18.7,18.7,0,0,0-6.193,1.038,14.922,14.922,0,0,0-5.146,3.038A15.079,15.079,0,0,0,253-33.569a16.239,16.239,0,0,0-1.336,6.772A16.239,16.239,0,0,0,253-20.024a14.863,14.863,0,0,0,3.549,4.926,15.336,15.336,0,0,0,5.155,3.043A18.386,18.386,0,0,0,267.891-11a18.051,18.051,0,0,0,6.145-1.054,15.415,15.415,0,0,0,5.119-3.045,14.635,14.635,0,0,0,3.527-4.921A16.445,16.445,0,0,0,284-26.8a16.445,16.445,0,0,0-1.318-6.777,14.846,14.846,0,0,0-3.53-4.944,14.994,14.994,0,0,0-5.111-3.04A18.357,18.357,0,0,0,267.891-42.594ZM203.313-9a20.38,20.38,0,0,1-6.859-1.171,17.327,17.327,0,0,1-5.822-3.441,16.849,16.849,0,0,1-4.029-5.582,18.214,18.214,0,0,1-1.516-7.6,18.214,18.214,0,0,1,1.516-7.6,17.065,17.065,0,0,1,4.026-5.6,16.911,16.911,0,0,1,5.831-3.446,20.693,20.693,0,0,1,6.854-1.15,20.352,20.352,0,0,1,6.818,1.151A16.982,16.982,0,0,1,215.919-40a16.833,16.833,0,0,1,4.009,5.6,18.42,18.42,0,0,1,1.494,7.6,18.42,18.42,0,0,1-1.494,7.6,16.621,16.621,0,0,1-4.012,5.587,17.406,17.406,0,0,1-5.779,3.44A20.046,20.046,0,0,1,203.313-9Zm0-33.594a18.7,18.7,0,0,0-6.193,1.038,14.922,14.922,0,0,0-5.146,3.038,15.079,15.079,0,0,0-3.552,4.949,16.239,16.239,0,0,0-1.336,6.772,16.239,16.239,0,0,0,1.336,6.772A14.863,14.863,0,0,0,191.97-15.1a15.336,15.336,0,0,0,5.155,3.043A18.385,18.385,0,0,0,203.313-11a18.051,18.051,0,0,0,6.145-1.054,15.414,15.414,0,0,0,5.119-3.045A14.635,14.635,0,0,0,218.1-20.02a16.445,16.445,0,0,0,1.318-6.777,16.445,16.445,0,0,0-1.318-6.777,14.846,14.846,0,0,0-3.53-4.944,14.993,14.993,0,0,0-5.111-3.04A18.357,18.357,0,0,0,203.313-42.594ZM138.734-9a20.38,20.38,0,0,1-6.859-1.171,17.326,17.326,0,0,1-5.822-3.441,16.85,16.85,0,0,1-4.03-5.582,18.214,18.214,0,0,1-1.516-7.6,18.214,18.214,0,0,1,1.516-7.6A17.067,17.067,0,0,1,126.05-40a16.91,16.91,0,0,1,5.831-3.446,20.692,20.692,0,0,1,6.854-1.15,20.353,20.353,0,0,1,6.818,1.151A16.984,16.984,0,0,1,151.341-40a16.833,16.833,0,0,1,4.009,5.6,18.42,18.42,0,0,1,1.494,7.6,18.42,18.42,0,0,1-1.494,7.6,16.621,16.621,0,0,1-4.012,5.587,17.407,17.407,0,0,1-5.779,3.44A20.047,20.047,0,0,1,138.734-9Zm0-33.594a18.7,18.7,0,0,0-6.193,1.038,14.921,14.921,0,0,0-5.146,3.038,15.079,15.079,0,0,0-3.552,4.949,16.239,16.239,0,0,0-1.336,6.772,16.239,16.239,0,0,0,1.336,6.772,14.863,14.863,0,0,0,3.549,4.926,15.335,15.335,0,0,0,5.155,3.043A18.385,18.385,0,0,0,138.734-11a18.051,18.051,0,0,0,6.145-1.054A15.416,15.416,0,0,0,150-15.1a14.635,14.635,0,0,0,3.527-4.921,16.445,16.445,0,0,0,1.318-6.777,16.445,16.445,0,0,0-1.318-6.777A14.846,14.846,0,0,0,150-38.518a14.993,14.993,0,0,0-5.111-3.04A18.358,18.358,0,0,0,138.734-42.594Z" transform="translate(0.719 56.539)" stroke="rgba(0,0,0,0)" stroke-miterlimit="10" stroke-width="1" fill="url(#linear-gradient-15k-mobile)"/>
</svg>
