<svg xmlns="http://www.w3.org/2000/svg" xmlns:xlink="http://www.w3.org/1999/xlink" width="1596.625" height="245.059" viewBox="0 0 1596.625 245.059">
  <defs>
    <linearGradient id="linear-gradient-1" x1="-0.055" y1="0.5" x2="1.1" y2="0.5" gradientUnits="objectBoundingBox">
      <stop offset="0" stop-color="#04c9e4"/>
      <stop offset="0.48" stop-color="#fa41a5"/>
      <stop offset="1" stop-color="#f3bd2f"/>
    </linearGradient>
  </defs>
  <path id="_20.000_" data-name="20.000+" d="M465.657,8.143a169.968,169.968,0,0,1-36.623-3.866A148,148,0,0,1,396.3-7a127.642,127.642,0,0,1-27.66-18.132,116.6,116.6,0,0,1-11.508-11.424,113.522,113.522,0,0,1-9.7-12.823,110.4,110.4,0,0,1-7.8-14.2,118.656,118.656,0,0,1-5.805-15.536,114.323,114.323,0,0,1-3.613-16.814,131.531,131.531,0,0,1-1.2-17.955,130.457,130.457,0,0,1,1.2-17.852,115.712,115.712,0,0,1,3.612-16.831,118.789,118.789,0,0,1,5.8-15.6,109.752,109.752,0,0,1,7.8-14.226,113.52,113.52,0,0,1,9.7-12.823,116.6,116.6,0,0,1,11.508-11.424,127.647,127.647,0,0,1,27.66-18.132,148,148,0,0,1,32.733-11.277,169.972,169.972,0,0,1,36.623-3.865,173.414,173.414,0,0,1,27.629,2.163,153.394,153.394,0,0,1,25.821,6.5,141.134,141.134,0,0,1,23.282,10.484,124.555,124.555,0,0,1,20.037,14.132,114.328,114.328,0,0,1,16.454,17.616,118.125,118.125,0,0,1,12.519,20.9,109.372,109.372,0,0,1,7.928,23.866,128.61,128.61,0,0,1,2.637,26.372,128.611,128.611,0,0,1-2.637,26.372A109.372,109.372,0,0,1,591.4-63.649a118.125,118.125,0,0,1-12.519,20.9,114.328,114.328,0,0,1-16.454,17.616A124.555,124.555,0,0,1,542.39-11,141.13,141.13,0,0,1,519.107-.518a153.407,153.407,0,0,1-25.821,6.5A173.415,173.415,0,0,1,465.657,8.143Zm0-240.059a165.969,165.969,0,0,0-35.76,3.771,143.992,143.992,0,0,0-31.847,10.969,123.639,123.639,0,0,0-26.794,17.561,112.6,112.6,0,0,0-11.112,11.03,109.533,109.533,0,0,0-9.354,12.37,105.723,105.723,0,0,0-7.515,13.706,114.778,114.778,0,0,0-5.608,15.072,111.714,111.714,0,0,0-3.486,16.248,126.45,126.45,0,0,0-1.164,17.3,127.512,127.512,0,0,0,1.164,17.407,110.281,110.281,0,0,0,3.485,16.223,114.645,114.645,0,0,0,5.608,15.011,106.39,106.39,0,0,0,7.515,13.687,109.533,109.533,0,0,0,9.354,12.37,112.6,112.6,0,0,0,11.112,11.03A123.644,123.644,0,0,0,398.05-10.6,144,144,0,0,0,429.9.371a165.965,165.965,0,0,0,35.76,3.771,169.415,169.415,0,0,0,26.99-2.112A149.364,149.364,0,0,0,517.793-4.3a137.1,137.1,0,0,0,22.621-10.184,120.528,120.528,0,0,0,19.392-13.676,110.3,110.3,0,0,0,15.878-17,114.119,114.119,0,0,0,12.093-20.19,105.362,105.362,0,0,0,7.636-22.992,124.61,124.61,0,0,0,2.551-25.549,124.61,124.61,0,0,0-2.551-25.549,105.362,105.362,0,0,0-7.636-22.992,114.118,114.118,0,0,0-12.093-20.19,110.3,110.3,0,0,0-15.878-17,120.528,120.528,0,0,0-19.392-13.676,137.107,137.107,0,0,0-22.621-10.184,149.371,149.371,0,0,0-25.146-6.327A169.414,169.414,0,0,0,465.657-231.916ZM191.2,8.143a169.967,169.967,0,0,1-36.623-3.866A147.99,147.99,0,0,1,121.844-7a127.635,127.635,0,0,1-27.66-18.132A116.6,116.6,0,0,1,82.677-36.556a113.523,113.523,0,0,1-9.7-12.823,110.4,110.4,0,0,1-7.8-14.2,118.657,118.657,0,0,1-5.805-15.536,114.281,114.281,0,0,1-3.613-16.814,131.535,131.535,0,0,1-1.2-17.955,130.461,130.461,0,0,1,1.2-17.852,115.749,115.749,0,0,1,3.612-16.831,118.79,118.79,0,0,1,5.805-15.6,109.753,109.753,0,0,1,7.8-14.226,113.521,113.521,0,0,1,9.7-12.823,116.6,116.6,0,0,1,11.508-11.424,127.647,127.647,0,0,1,27.659-18.132,148,148,0,0,1,32.733-11.277,169.972,169.972,0,0,1,36.623-3.865,173.414,173.414,0,0,1,27.629,2.163,153.394,153.394,0,0,1,25.821,6.5,141.136,141.136,0,0,1,23.282,10.484,124.554,124.554,0,0,1,20.037,14.132,114.338,114.338,0,0,1,16.454,17.616,118.133,118.133,0,0,1,12.519,20.9,109.374,109.374,0,0,1,7.928,23.866,128.608,128.608,0,0,1,2.637,26.372,128.608,128.608,0,0,1-2.637,26.372,109.374,109.374,0,0,1-7.928,23.866,118.133,118.133,0,0,1-12.519,20.9,114.339,114.339,0,0,1-16.454,17.616A124.554,124.554,0,0,1,267.933-11,141.131,141.131,0,0,1,244.65-.518a153.407,153.407,0,0,1-25.821,6.5A173.415,173.415,0,0,1,191.2,8.143Zm0-240.059a165.969,165.969,0,0,0-35.76,3.771,144.01,144.01,0,0,0-31.848,10.969A123.64,123.64,0,0,0,96.8-199.615a112.6,112.6,0,0,0-11.112,11.03,109.534,109.534,0,0,0-9.354,12.37,105.723,105.723,0,0,0-7.515,13.706,114.78,114.78,0,0,0-5.608,15.072,111.725,111.725,0,0,0-3.486,16.248,126.423,126.423,0,0,0-1.164,17.3A127.517,127.517,0,0,0,59.725-96.48,110.315,110.315,0,0,0,63.21-80.257a114.646,114.646,0,0,0,5.608,15.011,106.388,106.388,0,0,0,7.515,13.687,109.533,109.533,0,0,0,9.354,12.37A112.6,112.6,0,0,0,96.8-28.159,123.64,123.64,0,0,0,123.593-10.6,144.011,144.011,0,0,0,155.441.371,165.965,165.965,0,0,0,191.2,4.143a169.415,169.415,0,0,0,26.99-2.112A149.365,149.365,0,0,0,243.336-4.3a137.1,137.1,0,0,0,22.621-10.184,120.525,120.525,0,0,0,19.392-13.676,110.315,110.315,0,0,0,15.878-17,114.113,114.113,0,0,0,12.093-20.19,105.362,105.362,0,0,0,7.636-22.992,124.61,124.61,0,0,0,2.551-25.549,124.61,124.61,0,0,0-2.551-25.549,105.362,105.362,0,0,0-7.636-22.992,114.113,114.113,0,0,0-12.093-20.19,110.315,110.315,0,0,0-15.878-17,120.525,120.525,0,0,0-19.392-13.676,137.107,137.107,0,0,0-22.621-10.184A149.37,149.37,0,0,0,218.19-229.8,169.414,169.414,0,0,0,191.2-231.916ZM-83.257,8.143A169.967,169.967,0,0,1-119.88,4.277,148,148,0,0,1-152.613-7a127.635,127.635,0,0,1-27.66-18.132A116.6,116.6,0,0,1-191.78-36.556a113.522,113.522,0,0,1-9.7-12.823,110.4,110.4,0,0,1-7.8-14.2,118.648,118.648,0,0,1-5.805-15.536,114.308,114.308,0,0,1-3.612-16.814,131.537,131.537,0,0,1-1.2-17.955,130.462,130.462,0,0,1,1.2-17.852,115.774,115.774,0,0,1,3.611-16.831,118.806,118.806,0,0,1,5.805-15.6,109.75,109.75,0,0,1,7.8-14.226,113.52,113.52,0,0,1,9.7-12.823,116.6,116.6,0,0,1,11.508-11.424,127.647,127.647,0,0,1,27.659-18.132,148,148,0,0,1,32.733-11.277,169.972,169.972,0,0,1,36.623-3.865,173.414,173.414,0,0,1,27.629,2.163,153.4,153.4,0,0,1,25.821,6.5A141.135,141.135,0,0,1-6.524-216.771a124.555,124.555,0,0,1,20.037,14.132,114.34,114.34,0,0,1,16.454,17.616,118.129,118.129,0,0,1,12.519,20.9,109.38,109.38,0,0,1,7.928,23.866,128.61,128.61,0,0,1,2.637,26.372,128.61,128.61,0,0,1-2.637,26.372,109.38,109.38,0,0,1-7.928,23.866,118.129,118.129,0,0,1-12.519,20.9A114.341,114.341,0,0,1,13.512-25.134,124.555,124.555,0,0,1-6.524-11,141.13,141.13,0,0,1-29.807-.518a153.409,153.409,0,0,1-25.821,6.5A173.415,173.415,0,0,1-83.257,8.143Zm0-240.059a165.969,165.969,0,0,0-35.76,3.771,144.014,144.014,0,0,0-31.848,10.969,123.64,123.64,0,0,0-26.793,17.561,112.6,112.6,0,0,0-11.112,11.03,109.535,109.535,0,0,0-9.354,12.37,105.749,105.749,0,0,0-7.515,13.706,114.81,114.81,0,0,0-5.609,15.072,111.751,111.751,0,0,0-3.485,16.248,126.425,126.425,0,0,0-1.164,17.3,127.517,127.517,0,0,0,1.164,17.407,110.339,110.339,0,0,0,3.485,16.223,114.674,114.674,0,0,0,5.608,15.011,106.425,106.425,0,0,0,7.516,13.687,109.534,109.534,0,0,0,9.354,12.37,112.6,112.6,0,0,0,11.112,11.03A123.64,123.64,0,0,0-150.864-10.6,144.014,144.014,0,0,0-119.016.371a165.965,165.965,0,0,0,35.76,3.771,169.415,169.415,0,0,0,26.99-2.112A149.367,149.367,0,0,0-31.121-4.3,137.1,137.1,0,0,0-8.5-14.481,120.525,120.525,0,0,0,10.892-28.157a110.324,110.324,0,0,0,15.878-17,114.109,114.109,0,0,0,12.093-20.19A105.365,105.365,0,0,0,46.5-88.337a124.6,124.6,0,0,0,2.551-25.549A124.6,124.6,0,0,0,46.5-139.436a105.365,105.365,0,0,0-7.636-22.992,114.108,114.108,0,0,0-12.093-20.19,110.324,110.324,0,0,0-15.878-17A120.526,120.526,0,0,0-8.5-213.293a137.108,137.108,0,0,0-22.621-10.184A149.373,149.373,0,0,0-56.267-229.8,169.414,169.414,0,0,0-83.257-231.916ZM-420.667,8.143A169.967,169.967,0,0,1-457.29,4.277,148,148,0,0,1-490.023-7a127.643,127.643,0,0,1-27.66-18.132A116.6,116.6,0,0,1-529.19-36.556a113.525,113.525,0,0,1-9.7-12.823,110.4,110.4,0,0,1-7.8-14.2,118.656,118.656,0,0,1-5.805-15.536A114.327,114.327,0,0,1-556.1-95.932a131.531,131.531,0,0,1-1.2-17.955,130.462,130.462,0,0,1,1.2-17.852,115.708,115.708,0,0,1,3.612-16.831,118.789,118.789,0,0,1,5.8-15.6,109.748,109.748,0,0,1,7.8-14.226,113.523,113.523,0,0,1,9.7-12.823,116.6,116.6,0,0,1,11.508-11.424,127.646,127.646,0,0,1,27.66-18.132,147.994,147.994,0,0,1,32.733-11.277,169.972,169.972,0,0,1,36.623-3.865,173.413,173.413,0,0,1,27.629,2.163,153.393,153.393,0,0,1,25.821,6.5,141.135,141.135,0,0,1,23.282,10.484A124.555,124.555,0,0,1-323.9-202.639a114.34,114.34,0,0,1,16.454,17.616,118.135,118.135,0,0,1,12.519,20.9A109.374,109.374,0,0,1-287-140.259a128.608,128.608,0,0,1,2.637,26.372A128.608,128.608,0,0,1-287-87.515a109.374,109.374,0,0,1-7.928,23.866,118.135,118.135,0,0,1-12.519,20.9A114.34,114.34,0,0,1-323.9-25.134,124.555,124.555,0,0,1-343.934-11,141.131,141.131,0,0,1-367.217-.518a153.406,153.406,0,0,1-25.821,6.5A173.414,173.414,0,0,1-420.667,8.143Zm0-240.059a165.969,165.969,0,0,0-35.76,3.771,143.993,143.993,0,0,0-31.847,10.969,123.64,123.64,0,0,0-26.794,17.561,112.6,112.6,0,0,0-11.112,11.03,109.53,109.53,0,0,0-9.354,12.37,105.716,105.716,0,0,0-7.515,13.706,114.778,114.778,0,0,0-5.608,15.072,111.71,111.71,0,0,0-3.486,16.248,126.45,126.45,0,0,0-1.164,17.3,127.512,127.512,0,0,0,1.164,17.407,110.277,110.277,0,0,0,3.485,16.223,114.636,114.636,0,0,0,5.608,15.011,106.383,106.383,0,0,0,7.515,13.687,109.529,109.529,0,0,0,9.354,12.37,112.6,112.6,0,0,0,11.112,11.03A123.643,123.643,0,0,0-488.274-10.6,144,144,0,0,0-456.427.371a165.966,165.966,0,0,0,35.76,3.771,169.415,169.415,0,0,0,26.99-2.112A149.365,149.365,0,0,0-368.531-4.3,137.1,137.1,0,0,0-345.91-14.481a120.526,120.526,0,0,0,19.392-13.676,110.315,110.315,0,0,0,15.878-17,114.113,114.113,0,0,0,12.093-20.19,105.364,105.364,0,0,0,7.636-22.992,124.613,124.613,0,0,0,2.551-25.549,124.612,124.612,0,0,0-2.551-25.549,105.363,105.363,0,0,0-7.636-22.992,114.113,114.113,0,0,0-12.093-20.19,110.315,110.315,0,0,0-15.878-17,120.527,120.527,0,0,0-19.392-13.676,137.109,137.109,0,0,0-22.621-10.184,149.371,149.371,0,0,0-25.146-6.327A169.414,169.414,0,0,0-420.667-231.916ZM-218.751,2h-66.92V-61.766h66.92Zm-62.92-4h58.92V-57.766h-58.92ZM-558.817,2H-803.54V-42.123l1.166-.535c29.508-13.543,55.493-25.823,77.233-36.5,21.7-10.658,39.913-20.459,54.127-29.131,14.119-8.613,24.737-16.576,31.558-23.668a42.3,42.3,0,0,0,7.5-10.192,21.156,21.156,0,0,0,2.4-9.422,38.418,38.418,0,0,0-.555-6.07,20.669,20.669,0,0,0-2.431-6.655,28.118,28.118,0,0,0-5.663-6.885,33.337,33.337,0,0,0-10.337-6,86.542,86.542,0,0,0-16.868-4.372,150.655,150.655,0,0,0-24.568-1.715,236.118,236.118,0,0,0-27.82,1.729c-9.63,1.149-19.284,2.786-28.692,4.865a263.9,263.9,0,0,0-27.35,7.579,182.6,182.6,0,0,0-24.139,10.016l-2.9,1.474v-58.967l1.343-.467a370.179,370.179,0,0,1,51.162-13.439c9.346-1.8,19.082-3.173,28.938-4.074s20.1-1.357,30.459-1.357c9.7,0,19.029.436,27.714,1.3a205.748,205.748,0,0,1,24.687,3.9,155.161,155.161,0,0,1,21.424,6.372,109.379,109.379,0,0,1,17.947,8.733A81.916,81.916,0,0,1-582.873-204.6,66.527,66.527,0,0,1-572.3-191.372,59.015,59.015,0,0,1-565.8-176.1a65.97,65.97,0,0,1,2.164,17.057,77.152,77.152,0,0,1-2.134,18.493,54.168,54.168,0,0,1-7.665,16.981,87.315,87.315,0,0,1-14.695,16.4,192.449,192.449,0,0,1-23.154,17.2c-9.243,5.978-20.433,12.512-33.258,19.422-10.847,5.844-23.346,12.3-37.243,19.232h122.962ZM-799.54-2h236.723V-47.307H-690.31l-.885-3.793c16.942-8.361,32-16.086,44.761-22.96,12.731-6.86,23.828-13.34,32.983-19.26a188.525,188.525,0,0,0,22.666-16.831,83.355,83.355,0,0,0,14.026-15.636,50.19,50.19,0,0,0,7.111-15.724,73.15,73.15,0,0,0,2.017-17.532,61.963,61.963,0,0,0-2.028-16.022,55.013,55.013,0,0,0-6.067-14.237,62.527,62.527,0,0,0-9.935-12.426A77.918,77.918,0,0,0-599.3-212.206a105.384,105.384,0,0,0-17.289-8.408,151.167,151.167,0,0,0-20.869-6.2,201.774,201.774,0,0,0-24.2-3.821c-8.555-.847-17.747-1.277-27.32-1.277-10.24,0-20.365.451-30.1,1.341s-19.329,2.241-28.545,4.019a368.957,368.957,0,0,0-49.263,12.826v49.641a190.892,190.892,0,0,1,21.765-8.8,267.94,267.94,0,0,1,27.767-7.695c9.537-2.107,19.321-3.766,29.081-4.931a240.151,240.151,0,0,1,28.294-1.757,154.609,154.609,0,0,1,25.236,1.771,90.47,90.47,0,0,1,17.663,4.593,37.225,37.225,0,0,1,11.577,6.779,32.067,32.067,0,0,1,6.457,7.891,24.635,24.635,0,0,1,2.882,7.954,42.376,42.376,0,0,1,.607,6.713,25.1,25.1,0,0,1-2.825,11.205,46.247,46.247,0,0,1-8.193,11.182,112.631,112.631,0,0,1-13.46,11.647c-5.353,4.018-11.711,8.278-18.9,12.663-14.318,8.735-32.637,18.595-54.447,29.307-21.484,10.552-47.1,22.665-76.162,36.011ZM726.841-22.072H674.2v-65.41H608.954v-52.476H674.2v-65.41h52.643v65.41h65.244v52.476H726.841Zm-48.643-4h44.643v-65.41h65.244v-44.476H722.841v-65.41H678.2v65.41H612.954v44.476H678.2ZM465.657-40.5a86.383,86.383,0,0,1-14.489-1.211,83.309,83.309,0,0,1-13.906-3.636,74.2,74.2,0,0,1-12.818-5.973,69.7,69.7,0,0,1-11.175-8.2,66.018,66.018,0,0,1-9.331-10.422,74.052,74.052,0,0,1-7.253-12.563A66.812,66.812,0,0,1,392-97.228a85.933,85.933,0,0,1-1.553-16.659A85.933,85.933,0,0,1,392-130.546a66.812,66.812,0,0,1,4.687-14.718,74.8,74.8,0,0,1,7.251-12.581,67.085,67.085,0,0,1,9.327-10.481,68.312,68.312,0,0,1,11.181-8.252,72.079,72.079,0,0,1,12.829-5.935,84.5,84.5,0,0,1,13.9-3.571,87.83,87.83,0,0,1,14.484-1.19,87.105,87.105,0,0,1,14.444,1.19,82.385,82.385,0,0,1,13.783,3.574,71.767,71.767,0,0,1,12.7,5.935,69.174,69.174,0,0,1,11.135,8.249,66.264,66.264,0,0,1,9.309,10.485,73.642,73.642,0,0,1,7.19,12.586,67.439,67.439,0,0,1,4.621,14.714,87.055,87.055,0,0,1,1.531,16.654,87.055,87.055,0,0,1-1.531,16.654,67.439,67.439,0,0,1-4.621,14.714,72.9,72.9,0,0,1-7.192,12.568,65.21,65.21,0,0,1-9.313,10.426,70.6,70.6,0,0,1-11.128,8.2,73.925,73.925,0,0,1-12.691,5.973,81.24,81.24,0,0,1-13.788,3.638A85.626,85.626,0,0,1,465.657-40.5Zm0-142.774a83.849,83.849,0,0,0-13.822,1.135,80.49,80.49,0,0,0-13.242,3.4,68.049,68.049,0,0,0-12.115,5.6,64.308,64.308,0,0,0-10.525,7.768,63.072,63.072,0,0,0-8.769,9.856,70.8,70.8,0,0,0-6.86,11.907,62.8,62.8,0,0,0-4.4,13.836,81.923,81.923,0,0,0-1.477,15.88,81.923,81.923,0,0,0,1.477,15.88,62.8,62.8,0,0,0,4.4,13.836,70.051,70.051,0,0,0,6.858,11.883,62.013,62.013,0,0,0,8.764,9.79,65.684,65.684,0,0,0,10.532,7.733A70.2,70.2,0,0,0,438.6-49.116a79.315,79.315,0,0,0,13.237,3.461A82.368,82.368,0,0,0,465.657-44.5a81.63,81.63,0,0,0,13.773-1.154,77.236,77.236,0,0,0,13.107-3.459,69.922,69.922,0,0,0,12-5.648,66.606,66.606,0,0,0,10.5-7.736,61.205,61.205,0,0,0,8.741-9.786,68.9,68.9,0,0,0,6.795-11.878A63.444,63.444,0,0,0,534.915-98a83.058,83.058,0,0,0,1.457-15.886,83.058,83.058,0,0,0-1.457-15.886,63.444,63.444,0,0,0-4.343-13.84,69.616,69.616,0,0,0-6.8-11.9,62.261,62.261,0,0,0-8.745-9.852,65.167,65.167,0,0,0-10.489-7.771,67.758,67.758,0,0,0-11.993-5.6,78.361,78.361,0,0,0-13.112-3.4A83.074,83.074,0,0,0,465.657-183.274ZM191.2-40.5a86.383,86.383,0,0,1-14.489-1.211A83.309,83.309,0,0,1,162.8-45.348a74.2,74.2,0,0,1-12.818-5.973,69.7,69.7,0,0,1-11.175-8.2,66.019,66.019,0,0,1-9.331-10.422,74.054,74.054,0,0,1-7.253-12.563,66.813,66.813,0,0,1-4.687-14.718,85.934,85.934,0,0,1-1.553-16.659,85.934,85.934,0,0,1,1.553-16.659,66.813,66.813,0,0,1,4.687-14.718,74.8,74.8,0,0,1,7.251-12.581,67.085,67.085,0,0,1,9.327-10.481,68.312,68.312,0,0,1,11.181-8.252,72.078,72.078,0,0,1,12.829-5.935,84.5,84.5,0,0,1,13.9-3.571,87.831,87.831,0,0,1,14.484-1.19,87.105,87.105,0,0,1,14.444,1.19,82.385,82.385,0,0,1,13.783,3.574,71.767,71.767,0,0,1,12.7,5.935,69.175,69.175,0,0,1,11.135,8.249,66.265,66.265,0,0,1,9.309,10.485,73.619,73.619,0,0,1,7.19,12.586,67.444,67.444,0,0,1,4.621,14.714,87.057,87.057,0,0,1,1.531,16.654,87.057,87.057,0,0,1-1.531,16.654,67.444,67.444,0,0,1-4.621,14.714,72.914,72.914,0,0,1-7.192,12.568,65.23,65.23,0,0,1-9.313,10.426,70.6,70.6,0,0,1-11.128,8.2,73.926,73.926,0,0,1-12.691,5.973,81.239,81.239,0,0,1-13.788,3.638A85.626,85.626,0,0,1,191.2-40.5Zm0-142.774a83.848,83.848,0,0,0-13.822,1.135,80.49,80.49,0,0,0-13.242,3.4,68.05,68.05,0,0,0-12.115,5.6,64.307,64.307,0,0,0-10.525,7.768,63.073,63.073,0,0,0-8.769,9.856,70.794,70.794,0,0,0-6.86,11.907,62.8,62.8,0,0,0-4.4,13.836,81.922,81.922,0,0,0-1.477,15.88,81.922,81.922,0,0,0,1.477,15.88,62.8,62.8,0,0,0,4.4,13.836,70.052,70.052,0,0,0,6.858,11.883,62.015,62.015,0,0,0,8.764,9.79,65.685,65.685,0,0,0,10.532,7.733,70.2,70.2,0,0,0,12.126,5.648,79.313,79.313,0,0,0,13.237,3.461A82.367,82.367,0,0,0,191.2-44.5a81.63,81.63,0,0,0,13.773-1.154,77.236,77.236,0,0,0,13.107-3.459,69.924,69.924,0,0,0,12-5.648,66.609,66.609,0,0,0,10.5-7.736,61.217,61.217,0,0,0,8.741-9.786,68.9,68.9,0,0,0,6.795-11.878A63.444,63.444,0,0,0,260.458-98a83.058,83.058,0,0,0,1.457-15.886,83.058,83.058,0,0,0-1.457-15.886,63.444,63.444,0,0,0-4.343-13.84,69.629,69.629,0,0,0-6.8-11.9,62.258,62.258,0,0,0-8.745-9.852,65.168,65.168,0,0,0-10.489-7.771,67.757,67.757,0,0,0-11.993-5.6,78.36,78.36,0,0,0-13.112-3.4A83.075,83.075,0,0,0,191.2-183.274ZM-83.257-40.5a86.383,86.383,0,0,1-14.489-1.211,83.319,83.319,0,0,1-13.906-3.636,74.184,74.184,0,0,1-12.818-5.973,69.688,69.688,0,0,1-11.175-8.2,66.019,66.019,0,0,1-9.331-10.422A74.054,74.054,0,0,1-152.23-82.51a66.8,66.8,0,0,1-4.687-14.718,85.93,85.93,0,0,1-1.553-16.659,85.93,85.93,0,0,1,1.553-16.659,66.8,66.8,0,0,1,4.687-14.718,74.8,74.8,0,0,1,7.251-12.581,67.085,67.085,0,0,1,9.327-10.481,68.294,68.294,0,0,1,11.181-8.252,72.072,72.072,0,0,1,12.829-5.935,84.5,84.5,0,0,1,13.9-3.571,87.831,87.831,0,0,1,14.484-1.19,87.1,87.1,0,0,1,14.444,1.19A82.385,82.385,0,0,1-55.03-182.51a71.775,71.775,0,0,1,12.7,5.935,69.165,69.165,0,0,1,11.134,8.249,66.256,66.256,0,0,1,9.309,10.485,73.618,73.618,0,0,1,7.19,12.586,67.444,67.444,0,0,1,4.621,14.714,87.058,87.058,0,0,1,1.531,16.654,87.058,87.058,0,0,1-1.531,16.654,67.444,67.444,0,0,1-4.621,14.714,72.912,72.912,0,0,1-7.192,12.568A65.222,65.222,0,0,1-31.2-59.525a70.592,70.592,0,0,1-11.128,8.2A73.928,73.928,0,0,1-55.02-45.35a81.233,81.233,0,0,1-13.787,3.638A85.626,85.626,0,0,1-83.257-40.5Zm0-142.774a83.847,83.847,0,0,0-13.822,1.135,80.485,80.485,0,0,0-13.242,3.4,68.057,68.057,0,0,0-12.116,5.6,64.3,64.3,0,0,0-10.525,7.768,63.073,63.073,0,0,0-8.769,9.856,70.8,70.8,0,0,0-6.86,11.907,62.8,62.8,0,0,0-4.4,13.836,81.934,81.934,0,0,0-1.477,15.88,81.934,81.934,0,0,0,1.477,15.88,62.8,62.8,0,0,0,4.4,13.836,70.053,70.053,0,0,0,6.858,11.883,62.015,62.015,0,0,0,8.764,9.79,65.695,65.695,0,0,0,10.532,7.733,70.207,70.207,0,0,0,12.126,5.648,79.314,79.314,0,0,0,13.237,3.461A82.366,82.366,0,0,0-83.257-44.5a81.63,81.63,0,0,0,13.773-1.154,77.239,77.239,0,0,0,13.107-3.459,69.909,69.909,0,0,0,12-5.648,66.6,66.6,0,0,0,10.5-7.736,61.227,61.227,0,0,0,8.741-9.786,68.9,68.9,0,0,0,6.795-11.878A63.444,63.444,0,0,0-14-98a83.058,83.058,0,0,0,1.457-15.886A83.058,83.058,0,0,0-14-129.772a63.444,63.444,0,0,0-4.343-13.84,69.617,69.617,0,0,0-6.8-11.9,62.239,62.239,0,0,0-8.745-9.852,65.159,65.159,0,0,0-10.489-7.771,67.749,67.749,0,0,0-11.993-5.6,78.36,78.36,0,0,0-13.112-3.4A83.074,83.074,0,0,0-83.257-183.274ZM-420.667-40.5a86.383,86.383,0,0,1-14.489-1.211,83.31,83.31,0,0,1-13.906-3.636,74.2,74.2,0,0,1-12.818-5.973,69.7,69.7,0,0,1-11.175-8.2,66.018,66.018,0,0,1-9.331-10.422A74.056,74.056,0,0,1-489.64-82.51a66.814,66.814,0,0,1-4.687-14.718,85.936,85.936,0,0,1-1.553-16.659,85.936,85.936,0,0,1,1.553-16.659,66.814,66.814,0,0,1,4.687-14.718,74.8,74.8,0,0,1,7.251-12.581,67.085,67.085,0,0,1,9.327-10.481,68.312,68.312,0,0,1,11.181-8.252,72.078,72.078,0,0,1,12.829-5.935,84.5,84.5,0,0,1,13.9-3.571,87.831,87.831,0,0,1,14.484-1.19,87.105,87.105,0,0,1,14.444,1.19,82.385,82.385,0,0,1,13.783,3.574,71.768,71.768,0,0,1,12.7,5.935,69.175,69.175,0,0,1,11.135,8.249A66.265,66.265,0,0,1-359.3-157.84a73.619,73.619,0,0,1,7.19,12.586,67.443,67.443,0,0,1,4.621,14.714,87.057,87.057,0,0,1,1.531,16.654,87.057,87.057,0,0,1-1.531,16.654A67.443,67.443,0,0,1-352.1-82.519,72.91,72.91,0,0,1-359.3-69.951a65.229,65.229,0,0,1-9.313,10.426,70.6,70.6,0,0,1-11.128,8.2A73.926,73.926,0,0,1-392.43-45.35a81.239,81.239,0,0,1-13.788,3.638A85.626,85.626,0,0,1-420.667-40.5Zm0-142.774a83.848,83.848,0,0,0-13.822,1.135,80.49,80.49,0,0,0-13.242,3.4,68.048,68.048,0,0,0-12.115,5.6,64.308,64.308,0,0,0-10.525,7.768,63.073,63.073,0,0,0-8.769,9.856A70.8,70.8,0,0,0-486-143.6a62.8,62.8,0,0,0-4.4,13.836,81.921,81.921,0,0,0-1.477,15.88,81.921,81.921,0,0,0,1.477,15.88A62.8,62.8,0,0,0-486-84.17a70.051,70.051,0,0,0,6.858,11.883,62.016,62.016,0,0,0,8.764,9.79,65.684,65.684,0,0,0,10.532,7.733,70.2,70.2,0,0,0,12.126,5.648,79.314,79.314,0,0,0,13.237,3.461A82.368,82.368,0,0,0-420.667-44.5a81.63,81.63,0,0,0,13.773-1.154,77.236,77.236,0,0,0,13.107-3.459,69.924,69.924,0,0,0,12-5.648,66.608,66.608,0,0,0,10.5-7.736,61.215,61.215,0,0,0,8.741-9.786,68.9,68.9,0,0,0,6.795-11.878A63.444,63.444,0,0,0-351.409-98a83.058,83.058,0,0,0,1.457-15.886,83.058,83.058,0,0,0-1.457-15.886,63.444,63.444,0,0,0-4.343-13.84,69.631,69.631,0,0,0-6.8-11.9,62.259,62.259,0,0,0-8.745-9.852,65.168,65.168,0,0,0-10.489-7.771,67.757,67.757,0,0,0-11.993-5.6,78.36,78.36,0,0,0-13.112-3.4A83.074,83.074,0,0,0-420.667-183.274Z" transform="translate(804.04 236.416)" stroke="rgba(0,0,0,0)" stroke-miterlimit="10" stroke-width="1" fill="url(#linear-gradient-1)"/>
</svg>
