<svg xmlns="http://www.w3.org/2000/svg" xmlns:xlink="http://www.w3.org/1999/xlink" width="377.5" height="59.484" viewBox="0 0 377.5 59.484">
  <defs>
    <linearGradient id="linear-gradient-2-mobile" x1="-0.055" y1="0.5" x2="1.1" y2="0.5" gradientUnits="objectBoundingBox">
      <stop offset="0" stop-color="#04c9e4"/>
      <stop offset="0.48" stop-color="#fa41a5"/>
      <stop offset="1" stop-color="#f3bd2f"/>
    </linearGradient>
  </defs>
  <path id="_20.000_mobile" data-name="20.000+ mobile" d="M109.566,2.445a40.522,40.522,0,0,1-8.732-.922,35.353,35.353,0,0,1-7.819-2.694,30.562,30.562,0,0,1-6.623-4.342,27.5,27.5,0,0,1-5.087-5.817,27.36,27.36,0,0,1-3.265-7.135,27.136,27.136,0,0,1-.8-3.594,26.621,26.621,0,0,1-2.186,7.308A27.643,27.643,0,0,1,68.1-5.514,31.516,31.516,0,0,1,57.739.378a38.709,38.709,0,0,1-12.75,2.067,40.522,40.522,0,0,1-8.732-.922,35.355,35.355,0,0,1-7.819-2.694,30.562,30.562,0,0,1-6.623-4.342,27.5,27.5,0,0,1-5.087-5.817,27.357,27.357,0,0,1-3.265-7.135,27.146,27.146,0,0,1-.8-3.594,26.621,26.621,0,0,1-2.186,7.308,27.641,27.641,0,0,1-6.95,9.238A31.516,31.516,0,0,1-6.839.378,38.71,38.71,0,0,1-19.59,2.445a40.521,40.521,0,0,1-8.732-.922A35.353,35.353,0,0,1-36.14-1.171a30.562,30.562,0,0,1-6.623-4.342A27.5,27.5,0,0,1-47.85-11.33a27.357,27.357,0,0,1-3.265-7.135A29.276,29.276,0,0,1-52.27-26.8a29.337,29.337,0,0,1,1.154-8.311,27.291,27.291,0,0,1,3.265-7.156,27.5,27.5,0,0,1,5.087-5.817,30.562,30.562,0,0,1,6.623-4.342,35.353,35.353,0,0,1,7.819-2.694,40.521,40.521,0,0,1,8.732-.922A38.71,38.71,0,0,1-6.839-53.972,31.516,31.516,0,0,1,3.526-48.08a27.641,27.641,0,0,1,6.95,9.238,26.623,26.623,0,0,1,2.188,7.32,27.5,27.5,0,0,1,.8-3.586,27.292,27.292,0,0,1,3.265-7.156,27.5,27.5,0,0,1,5.087-5.817,30.563,30.563,0,0,1,6.623-4.342,35.355,35.355,0,0,1,7.819-2.694,40.522,40.522,0,0,1,8.732-.922,38.709,38.709,0,0,1,12.75,2.067A31.516,31.516,0,0,1,68.1-48.08a27.643,27.643,0,0,1,6.95,9.238,26.623,26.623,0,0,1,2.188,7.32,27.5,27.5,0,0,1,.8-3.586,27.292,27.292,0,0,1,3.265-7.156,27.5,27.5,0,0,1,5.087-5.817,30.562,30.562,0,0,1,6.623-4.342,35.353,35.353,0,0,1,7.819-2.694,40.522,40.522,0,0,1,8.732-.922,38.709,38.709,0,0,1,12.751,2.067,31.516,31.516,0,0,1,10.365,5.892,27.643,27.643,0,0,1,6.95,9.238A28.189,28.189,0,0,1,142.168-26.8a28.189,28.189,0,0,1-2.536,12.045,27.642,27.642,0,0,1-6.95,9.238A31.515,31.515,0,0,1,122.317.378,38.709,38.709,0,0,1,109.566,2.445Zm0-56.484a38.522,38.522,0,0,0-8.3.875,33.352,33.352,0,0,0-7.376,2.54,28.561,28.561,0,0,0-6.19,4.057,25.5,25.5,0,0,0-4.718,5.394,25.293,25.293,0,0,0-3.024,6.633A27.339,27.339,0,0,0,78.887-26.8a27.281,27.281,0,0,0,1.072,7.762,25.361,25.361,0,0,0,3.024,6.615A25.5,25.5,0,0,0,87.7-7.026,28.561,28.561,0,0,0,93.89-2.97a33.352,33.352,0,0,0,7.376,2.54,38.522,38.522,0,0,0,8.3.875A36.716,36.716,0,0,0,121.66-1.511a29.529,29.529,0,0,0,9.713-5.514,25.657,25.657,0,0,0,6.449-8.575,26.208,26.208,0,0,0,2.347-11.2,26.208,26.208,0,0,0-2.347-11.2,25.657,25.657,0,0,0-6.449-8.575,29.529,29.529,0,0,0-9.713-5.514A36.716,36.716,0,0,0,109.566-54.039Zm-64.578,0a38.522,38.522,0,0,0-8.3.875,33.354,33.354,0,0,0-7.376,2.54,28.562,28.562,0,0,0-6.19,4.057A25.5,25.5,0,0,0,18.4-41.174a25.293,25.293,0,0,0-3.024,6.633A27.34,27.34,0,0,0,14.309-26.8a27.281,27.281,0,0,0,1.072,7.762A25.359,25.359,0,0,0,18.4-12.42a25.5,25.5,0,0,0,4.718,5.394,28.562,28.562,0,0,0,6.19,4.057A33.353,33.353,0,0,0,36.689-.43a38.522,38.522,0,0,0,8.3.875A36.716,36.716,0,0,0,57.081-1.511a29.53,29.53,0,0,0,9.713-5.514A25.656,25.656,0,0,0,73.243-15.6,26.208,26.208,0,0,0,75.59-26.8a26.208,26.208,0,0,0-2.347-11.2,25.656,25.656,0,0,0-6.449-8.575,29.53,29.53,0,0,0-9.713-5.514A36.716,36.716,0,0,0,44.988-54.039Zm-64.578,0a38.522,38.522,0,0,0-8.3.875,33.352,33.352,0,0,0-7.376,2.54,28.561,28.561,0,0,0-6.19,4.057,25.5,25.5,0,0,0-4.718,5.394A25.292,25.292,0,0,0-49.2-34.541,27.339,27.339,0,0,0-50.27-26.8,27.281,27.281,0,0,0-49.2-19.035a25.358,25.358,0,0,0,3.024,6.615,25.5,25.5,0,0,0,4.718,5.394,28.561,28.561,0,0,0,6.19,4.057A33.352,33.352,0,0,0-27.89-.43a38.521,38.521,0,0,0,8.3.875A36.717,36.717,0,0,0-7.5-1.511,29.529,29.529,0,0,0,2.216-7.025,25.656,25.656,0,0,0,8.665-15.6a26.208,26.208,0,0,0,2.347-11.2,26.208,26.208,0,0,0-2.347-11.2,25.656,25.656,0,0,0-6.449-8.575A29.529,29.529,0,0,0-7.5-52.083,36.717,36.717,0,0,0-19.59-54.039ZM-98.98,2.445a40.522,40.522,0,0,1-8.732-.922,35.355,35.355,0,0,1-7.819-2.694,30.565,30.565,0,0,1-6.623-4.342,27.5,27.5,0,0,1-5.087-5.817,27.359,27.359,0,0,1-3.265-7.135A29.277,29.277,0,0,1-131.66-26.8a29.336,29.336,0,0,1,1.154-8.311,27.292,27.292,0,0,1,3.265-7.156,27.5,27.5,0,0,1,5.087-5.817,30.565,30.565,0,0,1,6.623-4.342,35.355,35.355,0,0,1,7.819-2.694,40.522,40.522,0,0,1,8.732-.922,38.709,38.709,0,0,1,12.75,2.067A31.516,31.516,0,0,1-75.864-48.08a27.643,27.643,0,0,1,6.95,9.238A28.189,28.189,0,0,1-66.379-26.8a28.189,28.189,0,0,1-2.536,12.045,27.643,27.643,0,0,1-6.95,9.238A31.516,31.516,0,0,1-86.23.378,38.709,38.709,0,0,1-98.98,2.445Zm0-56.484a38.522,38.522,0,0,0-8.3.875,33.354,33.354,0,0,0-7.376,2.54,28.563,28.563,0,0,0-6.19,4.057,25.5,25.5,0,0,0-4.718,5.394,25.294,25.294,0,0,0-3.024,6.633A27.339,27.339,0,0,0-129.66-26.8a27.281,27.281,0,0,0,1.072,7.762,25.36,25.36,0,0,0,3.024,6.615,25.5,25.5,0,0,0,4.718,5.394,28.563,28.563,0,0,0,6.19,4.057A33.354,33.354,0,0,0-107.28-.43a38.522,38.522,0,0,0,8.3.875A36.716,36.716,0,0,0-86.887-1.511a29.53,29.53,0,0,0,9.713-5.514A25.656,25.656,0,0,0-70.726-15.6a26.208,26.208,0,0,0,2.347-11.2,26.208,26.208,0,0,0-2.347-11.2,25.656,25.656,0,0,0-6.449-8.575,29.53,29.53,0,0,0-9.713-5.514A36.716,36.716,0,0,0-98.98-54.039ZM-50.941,1h-16.8V-15.062h16.8Zm-14.8-2h12.8V-13.062h-12.8Zm-65.211,2H-189.6V-10.251l.583-.267c6.937-3.184,13.047-6.072,18.16-8.583,5.092-2.5,9.363-4.8,12.693-6.831a37.612,37.612,0,0,0,7.32-5.484,6.458,6.458,0,0,0,2.182-4.248,8.513,8.513,0,0,0-.124-1.343A4.34,4.34,0,0,0-149.3-38.4a6.1,6.1,0,0,0-1.227-1.487,7.33,7.33,0,0,0-2.268-1.31,19.849,19.849,0,0,0-3.864-1,34.93,34.93,0,0,0-5.692-.4,55.016,55.016,0,0,0-6.483.4c-2.248.268-4.5.65-6.7,1.136a61.561,61.561,0,0,0-6.38,1.768,42.444,42.444,0,0,0-5.609,2.327l-1.452.737V-51.336l.671-.234a87.626,87.626,0,0,1,12.112-3.182,74.579,74.579,0,0,1,14.076-1.288A57.278,57.278,0,0,1-149.668-54.8a31.092,31.092,0,0,1,9.424,3.619,17.718,17.718,0,0,1,6.036,5.882,15,15,0,0,1,2.117,7.881,18.683,18.683,0,0,1-.518,4.479,13.272,13.272,0,0,1-1.877,4.162,21.068,21.068,0,0,1-3.546,3.962,45.813,45.813,0,0,1-5.512,4.1c-2.187,1.414-4.832,2.959-7.862,4.591-2.026,1.092-4.3,2.273-6.781,3.53h27.228ZM-187.6-1h54.641v-9.6h-29.469l-.443-1.9c3.981-1.965,7.519-3.779,10.515-5.394s5.582-3.125,7.724-4.51a43.846,43.846,0,0,0,5.269-3.911,19.092,19.092,0,0,0,3.212-3.577,11.283,11.283,0,0,0,1.6-3.533,16.684,16.684,0,0,0,.459-4,13.025,13.025,0,0,0-1.828-6.846,15.744,15.744,0,0,0-5.37-5.212,29.118,29.118,0,0,0-8.818-3.373,55.29,55.29,0,0,0-12.007-1.187,72.574,72.574,0,0,0-13.7,1.251,86.994,86.994,0,0,0-11.162,2.878v10.468a46.507,46.507,0,0,1,4.422-1.74,63.565,63.565,0,0,1,6.588-1.826c2.261-.5,4.581-.893,6.894-1.169a57.02,57.02,0,0,1,6.72-.417,36.888,36.888,0,0,1,6.026.424,21.8,21.8,0,0,1,4.261,1.11,9.277,9.277,0,0,1,2.888,1.7,8.068,8.068,0,0,1,1.624,1.99,6.322,6.322,0,0,1,.738,2.044,10.5,10.5,0,0,1,.15,1.665c0,1.848-.922,3.744-2.74,5.635a39.5,39.5,0,0,1-7.719,5.805c-3.382,2.063-7.707,4.391-12.853,6.919-4.985,2.448-10.911,5.252-17.624,8.337ZM171.551-4.664H158.105V-20.055H142.754V-33.461h15.352V-48.852h13.445v15.391H186.9v13.406H171.551Zm-11.445-2h9.445V-22.055H184.9v-9.406H169.551V-46.852h-9.445v15.391H144.754v9.406h15.352ZM109.566-9a20.379,20.379,0,0,1-6.859-1.171,17.325,17.325,0,0,1-5.822-3.441,16.848,16.848,0,0,1-4.03-5.582,18.214,18.214,0,0,1-1.516-7.6,18.214,18.214,0,0,1,1.516-7.6A17.065,17.065,0,0,1,96.882-40a16.909,16.909,0,0,1,5.831-3.446,20.691,20.691,0,0,1,6.854-1.15,20.351,20.351,0,0,1,6.819,1.151A16.982,16.982,0,0,1,122.173-40a16.832,16.832,0,0,1,4.009,5.6,18.42,18.42,0,0,1,1.494,7.6,18.42,18.42,0,0,1-1.494,7.6,16.62,16.62,0,0,1-4.012,5.587,17.406,17.406,0,0,1-5.779,3.44A20.045,20.045,0,0,1,109.566-9Zm0-33.594a18.7,18.7,0,0,0-6.193,1.038,14.92,14.92,0,0,0-5.146,3.038,15.077,15.077,0,0,0-3.552,4.949A16.238,16.238,0,0,0,93.34-26.8a16.238,16.238,0,0,0,1.336,6.772A14.861,14.861,0,0,0,98.224-15.1a15.336,15.336,0,0,0,5.155,3.043A18.384,18.384,0,0,0,109.566-11a18.052,18.052,0,0,0,6.145-1.054,15.416,15.416,0,0,0,5.119-3.045,14.634,14.634,0,0,0,3.527-4.921,16.446,16.446,0,0,0,1.318-6.777,16.446,16.446,0,0,0-1.318-6.777,14.846,14.846,0,0,0-3.53-4.944,14.993,14.993,0,0,0-5.111-3.04A18.357,18.357,0,0,0,109.566-42.594ZM44.988-9a20.38,20.38,0,0,1-6.859-1.171,17.326,17.326,0,0,1-5.822-3.441,16.849,16.849,0,0,1-4.03-5.582,18.215,18.215,0,0,1-1.516-7.6,18.215,18.215,0,0,1,1.516-7.6A17.067,17.067,0,0,1,32.3-40a16.911,16.911,0,0,1,5.831-3.446,20.691,20.691,0,0,1,6.854-1.15,20.351,20.351,0,0,1,6.818,1.151A16.983,16.983,0,0,1,57.595-40a16.831,16.831,0,0,1,4.009,5.6A18.42,18.42,0,0,1,63.1-26.8,18.42,18.42,0,0,1,61.6-19.2a16.621,16.621,0,0,1-4.012,5.587,17.406,17.406,0,0,1-5.779,3.44A20.045,20.045,0,0,1,44.988-9Zm0-33.594A18.7,18.7,0,0,0,38.8-41.556a14.923,14.923,0,0,0-5.146,3.038A15.079,15.079,0,0,0,30.1-33.569,16.239,16.239,0,0,0,28.762-26.8,16.239,16.239,0,0,0,30.1-20.024,14.862,14.862,0,0,0,33.646-15.1,15.336,15.336,0,0,0,38.8-12.055,18.385,18.385,0,0,0,44.988-11a18.051,18.051,0,0,0,6.145-1.054A15.416,15.416,0,0,0,56.253-15.1a14.635,14.635,0,0,0,3.527-4.921A16.446,16.446,0,0,0,61.1-26.8a16.446,16.446,0,0,0-1.318-6.777,14.846,14.846,0,0,0-3.53-4.944,14.993,14.993,0,0,0-5.111-3.04A18.357,18.357,0,0,0,44.988-42.594ZM-19.59-9a20.379,20.379,0,0,1-6.859-1.171,17.325,17.325,0,0,1-5.822-3.441,16.849,16.849,0,0,1-4.03-5.582,18.214,18.214,0,0,1-1.516-7.6A18.214,18.214,0,0,1-36.3-34.4,17.066,17.066,0,0,1-32.274-40a16.91,16.91,0,0,1,5.831-3.446,20.691,20.691,0,0,1,6.854-1.15,20.351,20.351,0,0,1,6.819,1.151A16.982,16.982,0,0,1-6.984-40a16.832,16.832,0,0,1,4.009,5.6A18.42,18.42,0,0,1-1.48-26.8a18.42,18.42,0,0,1-1.494,7.6,16.62,16.62,0,0,1-4.012,5.587,17.406,17.406,0,0,1-5.779,3.44A20.045,20.045,0,0,1-19.59-9Zm0-33.594a18.7,18.7,0,0,0-6.193,1.038,14.92,14.92,0,0,0-5.146,3.038,15.077,15.077,0,0,0-3.552,4.949A16.238,16.238,0,0,0-35.816-26.8a16.238,16.238,0,0,0,1.336,6.772A14.862,14.862,0,0,0-30.932-15.1a15.336,15.336,0,0,0,5.155,3.043A18.384,18.384,0,0,0-19.59-11a18.052,18.052,0,0,0,6.145-1.054A15.416,15.416,0,0,0-8.326-15.1,14.634,14.634,0,0,0-4.8-20.02,16.446,16.446,0,0,0-3.48-26.8,16.446,16.446,0,0,0-4.8-33.574a14.846,14.846,0,0,0-3.53-4.944,14.993,14.993,0,0,0-5.111-3.04A18.357,18.357,0,0,0-19.59-42.594ZM-98.98-9a20.38,20.38,0,0,1-6.859-1.171,17.325,17.325,0,0,1-5.822-3.441,16.85,16.85,0,0,1-4.03-5.582,18.215,18.215,0,0,1-1.516-7.6,18.215,18.215,0,0,1,1.516-7.6,17.067,17.067,0,0,1,4.026-5.6,16.909,16.909,0,0,1,5.831-3.446,20.691,20.691,0,0,1,6.854-1.15,20.35,20.35,0,0,1,6.818,1.151A16.983,16.983,0,0,1-86.374-40a16.831,16.831,0,0,1,4.009,5.6,18.42,18.42,0,0,1,1.494,7.6,18.42,18.42,0,0,1-1.494,7.6,16.62,16.62,0,0,1-4.012,5.587,17.406,17.406,0,0,1-5.779,3.44A20.045,20.045,0,0,1-98.98-9Zm0-33.594a18.7,18.7,0,0,0-6.193,1.038,14.92,14.92,0,0,0-5.146,3.038,15.078,15.078,0,0,0-3.552,4.949,16.239,16.239,0,0,0-1.336,6.772,16.239,16.239,0,0,0,1.336,6.772,14.862,14.862,0,0,0,3.549,4.926,15.335,15.335,0,0,0,5.155,3.043A18.385,18.385,0,0,0-98.98-11a18.051,18.051,0,0,0,6.145-1.054A15.416,15.416,0,0,0-87.716-15.1a14.635,14.635,0,0,0,3.527-4.921A16.446,16.446,0,0,0-82.871-26.8a16.446,16.446,0,0,0-1.318-6.777,14.846,14.846,0,0,0-3.53-4.944,14.993,14.993,0,0,0-5.111-3.04A18.356,18.356,0,0,0-98.98-42.594Z" transform="translate(190.098 56.539)" stroke="rgba(0,0,0,0)" stroke-miterlimit="10" stroke-width="1" fill="url(#linear-gradient-2-mobile)"/>
</svg>
