<svg xmlns="http://www.w3.org/2000/svg" xmlns:xlink="http://www.w3.org/1999/xlink" width="1590.814" height="245.059" viewBox="0 0 1590.814 245.059">
  <defs>
    <linearGradient id="linear-gradient-30k" x1="-0.055" y1="0.5" x2="1.1" y2="0.5" gradientUnits="objectBoundingBox">
      <stop offset="0" stop-color="#04c9e4"/>
      <stop offset="0.48" stop-color="#fa41a5"/>
      <stop offset="1" stop-color="#f3bd2f"/>
    </linearGradient>
  </defs>
  <path id="Unique_Features" data-name="Unique Features" d="M-694.045-235.916a316.7,316.7,0,0,1,47.032,3.343,182.729,182.729,0,0,1,20.857,4.344,133.527,133.527,0,0,1,18.161,6.343,83.2,83.2,0,0,1,15.161,8.508,63.263,63.263,0,0,1,11.721,10.8,42.366,42.366,0,0,1,7.577,13.393,48.658,48.658,0,0,1,2.516,15.862,47.762,47.762,0,0,1-3.208,17.41A44.327,44.327,0,0,1-584.388-140.7a66,66,0,0,1-17.631,12.167,110.1,110.1,0,0,1-17.935,6.764A144.3,144.3,0,0,1-598.1-114.3a74.37,74.37,0,0,1,20.3,12.809A45.519,45.519,0,0,1-566.182-85a52.948,52.948,0,0,1,3.629,19.752,58.816,58.816,0,0,1-2.517,17.4A52.2,52.2,0,0,1-572.643-32.7a69.2,69.2,0,0,1-11.923,12.674A87.27,87.27,0,0,1-600.241-9.762a128.838,128.838,0,0,1-19.035,7.885,175.92,175.92,0,0,1-22.1,5.585C-649.211,5.18-657.474,6.3-665.94,7.035s-17.354,1.107-26.445,1.107a331.606,331.606,0,0,1-33.74-1.588c-10.193-1.052-19.719-2.43-28.314-4.093s-16.61-3.548-23.825-5.6c-7.192-2.047-13.983-4.152-20.183-6.255l-1.357-.461V-69.238l2.94,1.565a151.278,151.278,0,0,0,22.856,9.664,266.656,266.656,0,0,0,26.364,7.332,258.721,258.721,0,0,0,27.429,4.613A234.485,234.485,0,0,0-694.045-44.5c14.847,0,26.834-.908,35.626-2.7,8.7-1.772,15.352-4.033,19.781-6.722,4.265-2.589,7.04-5.324,8.249-8.13a21.229,21.229,0,0,0,1.912-8.339,17.332,17.332,0,0,0-1.055-6.1,16.513,16.513,0,0,0-3.169-5.182c-2.887-3.242-8.16-6-15.672-8.21-7.749-2.276-18.425-4.011-31.732-5.156-13.386-1.152-30.536-1.792-50.972-1.9l-1.989-.011V-146.1h2c18.575,0,34.2-.39,46.442-1.158,12.177-.764,22.042-1.978,29.322-3.608,7.052-1.579,12.035-3.608,14.81-6.03a10.5,10.5,0,0,0,3.881-8.288,13.5,13.5,0,0,0-.512-3.464,9.893,9.893,0,0,0-2.16-3.7,19.739,19.739,0,0,0-5.276-4.043,41.119,41.119,0,0,0-9.96-3.619,117.379,117.379,0,0,0-16.153-2.607c-6.432-.654-14.3-.986-23.372-.986-8.526,0-17.313.444-26.116,1.318a249.066,249.066,0,0,0-25.938,3.952,244.215,244.215,0,0,0-24.535,6.422,146.89,146.89,0,0,0-21.782,8.843l-2.906,1.477v-59.158l1.372-.454c7.551-2.5,15.474-4.7,23.549-6.546s16.52-3.384,25.115-4.576A374.34,374.34,0,0,1-694.045-235.916Zm1.66,240.059c8.976,0,17.757-.368,26.1-1.092s16.465-1.825,24.166-3.273a171.905,171.905,0,0,0,21.6-5.455,124.846,124.846,0,0,0,18.442-7.637A83.273,83.273,0,0,0-587.122-23.1a65.2,65.2,0,0,0,11.236-11.938,48.2,48.2,0,0,0,6.995-13.988,54.825,54.825,0,0,0,2.339-16.218A48.967,48.967,0,0,0-569.9-83.51a38.593,38.593,0,0,0-4.3-7.891,45.531,45.531,0,0,0-6.322-7.154,70.422,70.422,0,0,0-19.212-12.093,154.707,154.707,0,0,0-28.841-9.089l-.023-3.9a118.259,118.259,0,0,0,24.81-8.481,62.039,62.039,0,0,0,16.569-11.407,40.361,40.361,0,0,0,9.262-13.838,43.78,43.78,0,0,0,2.935-15.959,44.669,44.669,0,0,0-2.3-14.56,38.378,38.378,0,0,0-6.866-12.132,59.263,59.263,0,0,0-10.982-10.115,79.207,79.207,0,0,0-14.431-8.093,129.5,129.5,0,0,0-17.615-6.15,178.738,178.738,0,0,0-20.4-4.247,312.705,312.705,0,0,0-46.435-3.3,370.334,370.334,0,0,0-50.692,3.55c-8.48,1.176-16.815,2.695-24.773,4.513-7.465,1.706-14.8,3.721-21.812,6v49.789a154.168,154.168,0,0,1,19.471-7.655,248.253,248.253,0,0,1,24.938-6.528,253.106,253.106,0,0,1,26.356-4.016c8.934-.888,17.854-1.338,26.511-1.338,9.211,0,17.211.339,23.777,1.006a121.275,121.275,0,0,1,16.718,2.706,44.954,44.954,0,0,1,10.958,4.017,23.62,23.62,0,0,1,6.345,4.922,13.773,13.773,0,0,1,2.986,5.264,17.46,17.46,0,0,1,.65,4.5,14.481,14.481,0,0,1-5.251,11.3c-3.329,2.906-8.748,5.169-16.566,6.919-7.484,1.676-17.559,2.919-29.946,3.7-11.881.746-26.91,1.137-44.693,1.165v41.17c19.669.14,36.25.78,49.3,1.9,13.572,1.168,24.512,2.952,32.516,5.3a56.648,56.648,0,0,1,10.458,4.095,25.184,25.184,0,0,1,7.073,5.293,20.363,20.363,0,0,1,5.238,13.947,25.176,25.176,0,0,1-2.239,9.923,17.222,17.222,0,0,1-3.722,5.292,32.552,32.552,0,0,1-6.124,4.674,46.275,46.275,0,0,1-8.983,4.043,98.968,98.968,0,0,1-12.076,3.18c-9.055,1.844-21.31,2.78-36.425,2.78a238.538,238.538,0,0,1-26.621-1.59,262.81,262.81,0,0,1-27.854-4.684,270.787,270.787,0,0,1-26.761-7.443A160.333,160.333,0,0,1-795.8-62.628v49.9c5.767,1.93,12.028,3.858,18.635,5.739,7.1,2.022,15.008,3.88,23.49,5.522s17.889,3,27.965,4.042A327.605,327.605,0,0,0-692.385,4.142Zm269.643-240.059a173.418,173.418,0,0,1,27.629,2.163,153.415,153.415,0,0,1,25.821,6.5,141.133,141.133,0,0,1,23.282,10.484,124.555,124.555,0,0,1,20.037,14.132,114.339,114.339,0,0,1,16.454,17.616A118.129,118.129,0,0,1-297-164.124a109.381,109.381,0,0,1,7.928,23.866,128.61,128.61,0,0,1,2.637,26.372,128.61,128.61,0,0,1-2.637,26.372A109.381,109.381,0,0,1-297-63.649a118.129,118.129,0,0,1-12.519,20.9,114.339,114.339,0,0,1-16.454,17.616A124.555,124.555,0,0,1-346.01-11,141.128,141.128,0,0,1-369.292-.518a153.389,153.389,0,0,1-25.821,6.5,173.416,173.416,0,0,1-27.629,2.163,169.972,169.972,0,0,1-36.623-3.865A148,148,0,0,1-492.1-7a127.656,127.656,0,0,1-27.66-18.132,116.6,116.6,0,0,1-11.508-11.424,113.523,113.523,0,0,1-9.7-12.823,110.409,110.409,0,0,1-7.8-14.2,118.687,118.687,0,0,1-5.805-15.536,114.314,114.314,0,0,1-3.612-16.814,131.542,131.542,0,0,1-1.2-17.955,130.467,130.467,0,0,1,1.2-17.852,115.784,115.784,0,0,1,3.611-16.831,118.8,118.8,0,0,1,5.805-15.6,109.712,109.712,0,0,1,7.8-14.226,113.525,113.525,0,0,1,9.7-12.823,116.6,116.6,0,0,1,11.508-11.424,127.642,127.642,0,0,1,27.66-18.132,147.994,147.994,0,0,1,32.733-11.277A169.967,169.967,0,0,1-422.742-235.916Zm0,240.059a169.411,169.411,0,0,0,26.99-2.112A149.363,149.363,0,0,0-370.607-4.3a137.1,137.1,0,0,0,22.621-10.184,120.524,120.524,0,0,0,19.392-13.676,110.323,110.323,0,0,0,15.878-17,114.11,114.11,0,0,0,12.093-20.19,105.365,105.365,0,0,0,7.636-22.992,124.6,124.6,0,0,0,2.551-25.549,124.6,124.6,0,0,0-2.551-25.549,105.365,105.365,0,0,0-7.636-22.992,114.11,114.11,0,0,0-12.093-20.19,110.323,110.323,0,0,0-15.878-17,120.524,120.524,0,0,0-19.392-13.676,137.106,137.106,0,0,0-22.621-10.184,149.37,149.37,0,0,0-25.146-6.327,169.413,169.413,0,0,0-26.99-2.112,165.965,165.965,0,0,0-35.76,3.771,143.994,143.994,0,0,0-31.847,10.969,123.641,123.641,0,0,0-26.794,17.561,112.606,112.606,0,0,0-11.112,11.03,109.53,109.53,0,0,0-9.354,12.37,105.746,105.746,0,0,0-7.515,13.706,114.812,114.812,0,0,0-5.608,15.072,111.746,111.746,0,0,0-3.485,16.248,126.425,126.425,0,0,0-1.164,17.3,127.517,127.517,0,0,0,1.164,17.407,110.336,110.336,0,0,0,3.485,16.223,114.661,114.661,0,0,0,5.608,15.011,106.4,106.4,0,0,0,7.515,13.687,109.53,109.53,0,0,0,9.354,12.37,112.606,112.606,0,0,0,11.112,11.03A123.653,123.653,0,0,0-490.349-10.6,143.993,143.993,0,0,0-458.5.371,165.969,165.969,0,0,0-422.742,4.142Zm337.41-240.059A173.418,173.418,0,0,1-57.7-233.753a153.415,153.415,0,0,1,25.821,6.5A141.135,141.135,0,0,1-8.6-216.771a124.555,124.555,0,0,1,20.037,14.132,114.329,114.329,0,0,1,16.454,17.616,118.128,118.128,0,0,1,12.519,20.9,109.373,109.373,0,0,1,7.928,23.866,128.609,128.609,0,0,1,2.637,26.372,128.609,128.609,0,0,1-2.637,26.372A109.373,109.373,0,0,1,40.41-63.649a118.129,118.129,0,0,1-12.519,20.9A114.329,114.329,0,0,1,11.437-25.134,124.555,124.555,0,0,1-8.6-11,141.13,141.13,0,0,1-31.882-.518,153.389,153.389,0,0,1-57.7,5.979,173.416,173.416,0,0,1-85.332,8.142a169.972,169.972,0,0,1-36.623-3.865A148,148,0,0,1-154.688-7a127.65,127.65,0,0,1-27.66-18.132,116.6,116.6,0,0,1-11.508-11.424,113.522,113.522,0,0,1-9.7-12.823,110.4,110.4,0,0,1-7.8-14.2,118.658,118.658,0,0,1-5.805-15.536,114.321,114.321,0,0,1-3.613-16.814,131.533,131.533,0,0,1-1.2-17.955,130.457,130.457,0,0,1,1.2-17.852,115.711,115.711,0,0,1,3.612-16.831,118.789,118.789,0,0,1,5.8-15.6,109.755,109.755,0,0,1,7.8-14.226,113.523,113.523,0,0,1,9.7-12.823,116.6,116.6,0,0,1,11.508-11.424,127.639,127.639,0,0,1,27.66-18.132,148,148,0,0,1,32.733-11.277A169.967,169.967,0,0,1-85.332-235.916Zm0,240.059a169.412,169.412,0,0,0,26.99-2.112A149.363,149.363,0,0,0-33.2-4.3,137.1,137.1,0,0,0-10.575-14.481,120.526,120.526,0,0,0,8.817-28.157a110.3,110.3,0,0,0,15.878-17,114.115,114.115,0,0,0,12.093-20.19,105.362,105.362,0,0,0,7.636-22.992,124.611,124.611,0,0,0,2.551-25.549,124.611,124.611,0,0,0-2.551-25.549,105.362,105.362,0,0,0-7.636-22.992,114.115,114.115,0,0,0-12.093-20.19,110.3,110.3,0,0,0-15.878-17,120.526,120.526,0,0,0-19.392-13.676A137.108,137.108,0,0,0-33.2-223.477,149.37,149.37,0,0,0-58.342-229.8a169.413,169.413,0,0,0-26.99-2.112,165.965,165.965,0,0,0-35.76,3.771,143.993,143.993,0,0,0-31.847,10.969,123.64,123.64,0,0,0-26.794,17.561,112.6,112.6,0,0,0-11.112,11.03,109.533,109.533,0,0,0-9.354,12.37,105.722,105.722,0,0,0-7.515,13.706,114.78,114.78,0,0,0-5.608,15.072,111.714,111.714,0,0,0-3.486,16.248,126.452,126.452,0,0,0-1.164,17.3,127.512,127.512,0,0,0,1.164,17.407,110.278,110.278,0,0,0,3.485,16.223,114.647,114.647,0,0,0,5.608,15.011A106.386,106.386,0,0,0-200.2-51.559a109.533,109.533,0,0,0,9.354,12.37,112.6,112.6,0,0,0,11.112,11.03A123.644,123.644,0,0,0-152.939-10.6,144,144,0,0,0-121.092.371,165.969,165.969,0,0,0-85.332,4.142ZM189.125-235.916a173.418,173.418,0,0,1,27.629,2.163,153.415,153.415,0,0,1,25.821,6.5,141.135,141.135,0,0,1,23.282,10.484,124.555,124.555,0,0,1,20.037,14.132,114.341,114.341,0,0,1,16.454,17.616,118.127,118.127,0,0,1,12.519,20.9,109.385,109.385,0,0,1,7.928,23.866,128.623,128.623,0,0,1,2.637,26.372,128.623,128.623,0,0,1-2.637,26.372,109.385,109.385,0,0,1-7.928,23.866,118.127,118.127,0,0,1-12.519,20.9,114.341,114.341,0,0,1-16.454,17.616A124.555,124.555,0,0,1,265.858-11,141.13,141.13,0,0,1,242.575-.518a153.389,153.389,0,0,1-25.821,6.5,173.416,173.416,0,0,1-27.629,2.163A169.972,169.972,0,0,1,152.5,4.277,148,148,0,0,1,119.769-7a127.655,127.655,0,0,1-27.66-18.132A116.6,116.6,0,0,1,80.6-36.556a113.522,113.522,0,0,1-9.7-12.823,110.408,110.408,0,0,1-7.8-14.2A118.693,118.693,0,0,1,57.3-79.118a114.307,114.307,0,0,1-3.612-16.814,131.536,131.536,0,0,1-1.2-17.955,130.461,130.461,0,0,1,1.2-17.852A115.775,115.775,0,0,1,57.3-148.569a118.8,118.8,0,0,1,5.805-15.6,109.714,109.714,0,0,1,7.8-14.226,113.523,113.523,0,0,1,9.7-12.823,116.6,116.6,0,0,1,11.508-11.424,127.641,127.641,0,0,1,27.66-18.132A147.994,147.994,0,0,1,152.5-232.051,169.967,169.967,0,0,1,189.125-235.916Zm0,240.059a169.412,169.412,0,0,0,26.99-2.112A149.363,149.363,0,0,0,241.261-4.3a137.1,137.1,0,0,0,22.621-10.184,120.525,120.525,0,0,0,19.392-13.676,110.324,110.324,0,0,0,15.878-17,114.108,114.108,0,0,0,12.093-20.19,105.373,105.373,0,0,0,7.636-22.992,124.612,124.612,0,0,0,2.551-25.549,124.612,124.612,0,0,0-2.551-25.549,105.373,105.373,0,0,0-7.636-22.992,114.108,114.108,0,0,0-12.093-20.19,110.324,110.324,0,0,0-15.878-17,120.525,120.525,0,0,0-19.392-13.676,137.107,137.107,0,0,0-22.621-10.184,149.37,149.37,0,0,0-25.146-6.327,169.413,169.413,0,0,0-26.99-2.112,165.965,165.965,0,0,0-35.76,3.771,143.993,143.993,0,0,0-31.847,10.969,123.64,123.64,0,0,0-26.794,17.561,112.6,112.6,0,0,0-11.112,11.03,109.534,109.534,0,0,0-9.354,12.37,105.748,105.748,0,0,0-7.515,13.706,114.817,114.817,0,0,0-5.608,15.072,111.752,111.752,0,0,0-3.485,16.248,126.425,126.425,0,0,0-1.164,17.3A127.517,127.517,0,0,0,57.65-96.48a110.341,110.341,0,0,0,3.485,16.223,114.664,114.664,0,0,0,5.608,15.011,106.4,106.4,0,0,0,7.515,13.687,109.534,109.534,0,0,0,9.354,12.37,112.6,112.6,0,0,0,11.112,11.03A123.652,123.652,0,0,0,121.518-10.6,143.993,143.993,0,0,0,153.365.371,165.969,165.969,0,0,0,189.125,4.142ZM463.582-235.916a173.418,173.418,0,0,1,27.629,2.163,153.416,153.416,0,0,1,25.821,6.5,141.134,141.134,0,0,1,23.282,10.484,124.555,124.555,0,0,1,20.037,14.132,114.338,114.338,0,0,1,16.454,17.616,118.129,118.129,0,0,1,12.519,20.9,109.383,109.383,0,0,1,7.928,23.866,128.612,128.612,0,0,1,2.637,26.372,128.612,128.612,0,0,1-2.637,26.372,109.383,109.383,0,0,1-7.928,23.866,118.129,118.129,0,0,1-12.519,20.9,114.338,114.338,0,0,1-16.454,17.616A124.555,124.555,0,0,1,540.315-11,141.129,141.129,0,0,1,517.032-.518a153.39,153.39,0,0,1-25.821,6.5,173.416,173.416,0,0,1-27.629,2.163,169.972,169.972,0,0,1-36.623-3.865A148,148,0,0,1,394.226-7a127.651,127.651,0,0,1-27.66-18.132,116.616,116.616,0,0,1-11.508-11.424,113.542,113.542,0,0,1-9.7-12.823,110.392,110.392,0,0,1-7.8-14.2,118.691,118.691,0,0,1-5.805-15.536,114.306,114.306,0,0,1-3.612-16.814,131.537,131.537,0,0,1-1.2-17.955,130.462,130.462,0,0,1,1.2-17.852,115.776,115.776,0,0,1,3.611-16.831,118.8,118.8,0,0,1,5.805-15.6,109.726,109.726,0,0,1,7.8-14.226,113.543,113.543,0,0,1,9.7-12.823,116.618,116.618,0,0,1,11.508-11.424,127.641,127.641,0,0,1,27.66-18.132,148,148,0,0,1,32.733-11.277A169.967,169.967,0,0,1,463.582-235.916Zm0,240.059a169.412,169.412,0,0,0,26.99-2.112A149.362,149.362,0,0,0,515.718-4.3a137.1,137.1,0,0,0,22.621-10.184,120.525,120.525,0,0,0,19.392-13.676,110.325,110.325,0,0,0,15.878-17A114.112,114.112,0,0,0,585.7-65.345a105.365,105.365,0,0,0,7.636-22.992,124.6,124.6,0,0,0,2.551-25.549,124.6,124.6,0,0,0-2.551-25.549,105.365,105.365,0,0,0-7.636-22.992,114.112,114.112,0,0,0-12.093-20.19,110.325,110.325,0,0,0-15.878-17,120.525,120.525,0,0,0-19.392-13.676,137.108,137.108,0,0,0-22.621-10.184,149.369,149.369,0,0,0-25.146-6.327,169.414,169.414,0,0,0-26.99-2.112,165.965,165.965,0,0,0-35.76,3.771,144.013,144.013,0,0,0-31.847,10.969,123.643,123.643,0,0,0-26.793,17.561,112.578,112.578,0,0,0-11.112,11.03,109.511,109.511,0,0,0-9.354,12.37,105.751,105.751,0,0,0-7.515,13.706,114.816,114.816,0,0,0-5.608,15.072,111.754,111.754,0,0,0-3.485,16.248,126.425,126.425,0,0,0-1.164,17.3,127.517,127.517,0,0,0,1.164,17.407,110.34,110.34,0,0,0,3.485,16.223A114.681,114.681,0,0,0,341.2-65.246a106.4,106.4,0,0,0,7.516,13.687,109.511,109.511,0,0,0,9.354,12.37,112.578,112.578,0,0,0,11.112,11.03A123.652,123.652,0,0,0,395.975-10.6,144.007,144.007,0,0,0,427.822.371,165.969,165.969,0,0,0,463.582,4.142ZM672.123-205.369h52.643v65.41H790.01v52.476H724.766v65.41H672.123v-65.41H606.879v-52.476h65.244Zm48.643,4H676.123v65.41H610.879v44.476h65.244v65.41h44.643v-65.41H786.01v-44.476H720.766Zm-1143.508,14.1a87.105,87.105,0,0,1,14.444,1.19,82.385,82.385,0,0,1,13.783,3.574,71.767,71.767,0,0,1,12.7,5.935,69.177,69.177,0,0,1,11.135,8.249,66.257,66.257,0,0,1,9.309,10.485,73.617,73.617,0,0,1,7.19,12.586,67.444,67.444,0,0,1,4.621,14.714,87.057,87.057,0,0,1,1.531,16.654,87.057,87.057,0,0,1-1.531,16.654,67.444,67.444,0,0,1-4.621,14.714,72.913,72.913,0,0,1-7.192,12.568,65.223,65.223,0,0,1-9.314,10.426,70.6,70.6,0,0,1-11.128,8.2,73.927,73.927,0,0,1-12.691,5.973,81.233,81.233,0,0,1-13.787,3.638,85.627,85.627,0,0,1-14.45,1.212,86.381,86.381,0,0,1-14.489-1.211,83.326,83.326,0,0,1-13.907-3.636,74.2,74.2,0,0,1-12.818-5.973,69.7,69.7,0,0,1-11.175-8.2,66.018,66.018,0,0,1-9.331-10.422,74.053,74.053,0,0,1-7.253-12.563A66.794,66.794,0,0,1-496.4-97.228a85.93,85.93,0,0,1-1.553-16.659,85.93,85.93,0,0,1,1.553-16.659,66.794,66.794,0,0,1,4.687-14.718,74.788,74.788,0,0,1,7.251-12.581,67.073,67.073,0,0,1,9.327-10.481,68.31,68.31,0,0,1,11.181-8.252,72.079,72.079,0,0,1,12.829-5.935,84.5,84.5,0,0,1,13.9-3.571A87.829,87.829,0,0,1-422.742-187.274Zm0,142.774a81.631,81.631,0,0,0,13.773-1.154,77.239,77.239,0,0,0,13.107-3.459,69.917,69.917,0,0,0,12-5.648,66.606,66.606,0,0,0,10.5-7.736,61.229,61.229,0,0,0,8.741-9.786,68.9,68.9,0,0,0,6.795-11.878A63.444,63.444,0,0,0-353.484-98a83.058,83.058,0,0,0,1.457-15.886,83.058,83.058,0,0,0-1.457-15.886,63.444,63.444,0,0,0-4.343-13.84,69.619,69.619,0,0,0-6.8-11.9,62.238,62.238,0,0,0-8.745-9.852,65.164,65.164,0,0,0-10.489-7.771,67.756,67.756,0,0,0-11.993-5.6,78.36,78.36,0,0,0-13.112-3.4,83.077,83.077,0,0,0-13.779-1.134,83.844,83.844,0,0,0-13.822,1.135,80.482,80.482,0,0,0-13.242,3.4,68.048,68.048,0,0,0-12.115,5.6,64.305,64.305,0,0,0-10.525,7.768,63.073,63.073,0,0,0-8.769,9.856,70.784,70.784,0,0,0-6.86,11.907,62.8,62.8,0,0,0-4.4,13.836,81.935,81.935,0,0,0-1.477,15.88,81.935,81.935,0,0,0,1.477,15.88,62.8,62.8,0,0,0,4.4,13.836,70.036,70.036,0,0,0,6.858,11.883,62,62,0,0,0,8.764,9.79,65.684,65.684,0,0,0,10.532,7.733A70.2,70.2,0,0,0-449.8-49.116a79.315,79.315,0,0,0,13.237,3.461A82.371,82.371,0,0,0-422.742-44.5Zm337.41-142.774a87.105,87.105,0,0,1,14.444,1.19,82.386,82.386,0,0,1,13.783,3.574,71.767,71.767,0,0,1,12.7,5.935,69.176,69.176,0,0,1,11.135,8.249A66.257,66.257,0,0,1-23.96-157.84a73.618,73.618,0,0,1,7.19,12.586,67.455,67.455,0,0,1,4.621,14.714,87.059,87.059,0,0,1,1.531,16.654,87.059,87.059,0,0,1-1.531,16.654A67.455,67.455,0,0,1-16.77-82.519a72.911,72.911,0,0,1-7.192,12.568,65.222,65.222,0,0,1-9.314,10.426,70.6,70.6,0,0,1-11.128,8.2A73.927,73.927,0,0,1-57.095-45.35a81.233,81.233,0,0,1-13.787,3.638A85.627,85.627,0,0,1-85.332-40.5a86.38,86.38,0,0,1-14.489-1.211,83.326,83.326,0,0,1-13.907-3.636,74.2,74.2,0,0,1-12.818-5.973,69.7,69.7,0,0,1-11.175-8.2,66.018,66.018,0,0,1-9.331-10.422A74.052,74.052,0,0,1-154.3-82.51a66.8,66.8,0,0,1-4.687-14.718,85.93,85.93,0,0,1-1.553-16.659,85.93,85.93,0,0,1,1.553-16.659,66.8,66.8,0,0,1,4.687-14.718,74.789,74.789,0,0,1,7.251-12.581,67.076,67.076,0,0,1,9.327-10.481,68.312,68.312,0,0,1,11.181-8.252,72.079,72.079,0,0,1,12.829-5.935,84.5,84.5,0,0,1,13.9-3.571A87.829,87.829,0,0,1-85.332-187.274Zm0,142.774a81.632,81.632,0,0,0,13.773-1.154,77.239,77.239,0,0,0,13.107-3.459,69.918,69.918,0,0,0,12-5.648,66.605,66.605,0,0,0,10.5-7.736,61.227,61.227,0,0,0,8.741-9.786,68.9,68.9,0,0,0,6.795-11.878A63.448,63.448,0,0,0-16.074-98a83.06,83.06,0,0,0,1.457-15.886,83.059,83.059,0,0,0-1.457-15.886,63.447,63.447,0,0,0-4.343-13.84,69.618,69.618,0,0,0-6.8-11.9,62.239,62.239,0,0,0-8.745-9.852,65.164,65.164,0,0,0-10.489-7.771,67.755,67.755,0,0,0-11.993-5.6,78.36,78.36,0,0,0-13.112-3.4,83.077,83.077,0,0,0-13.779-1.134,83.844,83.844,0,0,0-13.822,1.135,80.482,80.482,0,0,0-13.242,3.4,68.049,68.049,0,0,0-12.115,5.6,64.308,64.308,0,0,0-10.525,7.768,63.073,63.073,0,0,0-8.769,9.856,70.782,70.782,0,0,0-6.86,11.907,62.8,62.8,0,0,0-4.4,13.836,81.935,81.935,0,0,0-1.477,15.88,81.935,81.935,0,0,0,1.477,15.88,62.8,62.8,0,0,0,4.4,13.836,70.038,70.038,0,0,0,6.858,11.883,62,62,0,0,0,8.764,9.79,65.685,65.685,0,0,0,10.532,7.733,70.2,70.2,0,0,0,12.126,5.648,79.315,79.315,0,0,0,13.237,3.461A82.371,82.371,0,0,0-85.332-44.5ZM189.125-187.274a87.105,87.105,0,0,1,14.444,1.19,82.387,82.387,0,0,1,13.783,3.574,71.767,71.767,0,0,1,12.7,5.935,69.175,69.175,0,0,1,11.135,8.249A66.258,66.258,0,0,1,250.5-157.84a73.619,73.619,0,0,1,7.19,12.586,67.439,67.439,0,0,1,4.621,14.714,87.075,87.075,0,0,1,1.531,16.654,87.075,87.075,0,0,1-1.531,16.654,67.439,67.439,0,0,1-4.621,14.714,72.909,72.909,0,0,1-7.192,12.568,65.221,65.221,0,0,1-9.314,10.426,70.6,70.6,0,0,1-11.128,8.2,73.927,73.927,0,0,1-12.691,5.973,81.233,81.233,0,0,1-13.787,3.638,85.627,85.627,0,0,1-14.45,1.212,86.38,86.38,0,0,1-14.489-1.211,83.326,83.326,0,0,1-13.907-3.636,74.2,74.2,0,0,1-12.818-5.973,69.7,69.7,0,0,1-11.175-8.2,66.018,66.018,0,0,1-9.331-10.422,74.052,74.052,0,0,1-7.253-12.563,66.8,66.8,0,0,1-4.687-14.718,85.931,85.931,0,0,1-1.553-16.659,85.931,85.931,0,0,1,1.553-16.659,66.8,66.8,0,0,1,4.687-14.718,74.789,74.789,0,0,1,7.251-12.581,67.076,67.076,0,0,1,9.327-10.481,68.312,68.312,0,0,1,11.181-8.252,72.079,72.079,0,0,1,12.829-5.935,84.5,84.5,0,0,1,13.9-3.571A87.829,87.829,0,0,1,189.125-187.274Zm0,142.774A81.631,81.631,0,0,0,202.9-45.654,77.239,77.239,0,0,0,216-49.113a69.918,69.918,0,0,0,12-5.648A66.606,66.606,0,0,0,238.5-62.5a61.227,61.227,0,0,0,8.741-9.786,68.9,68.9,0,0,0,6.795-11.878A63.446,63.446,0,0,0,258.383-98a83.074,83.074,0,0,0,1.457-15.886,83.073,83.073,0,0,0-1.457-15.886,63.446,63.446,0,0,0-4.343-13.84,69.619,69.619,0,0,0-6.8-11.9,62.238,62.238,0,0,0-8.745-9.852,65.165,65.165,0,0,0-10.489-7.771,67.756,67.756,0,0,0-11.993-5.6,78.36,78.36,0,0,0-13.112-3.4,83.077,83.077,0,0,0-13.779-1.134,83.844,83.844,0,0,0-13.822,1.135,80.482,80.482,0,0,0-13.242,3.4,68.049,68.049,0,0,0-12.115,5.6,64.308,64.308,0,0,0-10.525,7.768,63.073,63.073,0,0,0-8.769,9.856,70.782,70.782,0,0,0-6.86,11.907,62.8,62.8,0,0,0-4.4,13.836,81.935,81.935,0,0,0-1.477,15.88,81.935,81.935,0,0,0,1.477,15.88,62.8,62.8,0,0,0,4.4,13.836,70.038,70.038,0,0,0,6.858,11.883,62,62,0,0,0,8.764,9.79,65.684,65.684,0,0,0,10.532,7.733,70.2,70.2,0,0,0,12.126,5.648,79.315,79.315,0,0,0,13.237,3.461A82.371,82.371,0,0,0,189.125-44.5ZM463.582-187.274a87.105,87.105,0,0,1,14.444,1.19,82.387,82.387,0,0,1,13.783,3.574,71.768,71.768,0,0,1,12.7,5.935,69.175,69.175,0,0,1,11.135,8.249,66.257,66.257,0,0,1,9.309,10.485,73.619,73.619,0,0,1,7.19,12.586,67.446,67.446,0,0,1,4.621,14.714,87.06,87.06,0,0,1,1.531,16.654,87.06,87.06,0,0,1-1.531,16.654,67.446,67.446,0,0,1-4.621,14.714,72.913,72.913,0,0,1-7.192,12.568,65.223,65.223,0,0,1-9.314,10.426,70.606,70.606,0,0,1-11.128,8.2,73.928,73.928,0,0,1-12.691,5.973,81.234,81.234,0,0,1-13.787,3.638,85.627,85.627,0,0,1-14.45,1.212,86.38,86.38,0,0,1-14.489-1.211,83.326,83.326,0,0,1-13.907-3.636,74.19,74.19,0,0,1-12.818-5.973,69.689,69.689,0,0,1-11.175-8.2,66.018,66.018,0,0,1-9.331-10.422,74.061,74.061,0,0,1-7.253-12.563,66.8,66.8,0,0,1-4.687-14.718,85.932,85.932,0,0,1-1.553-16.659,85.932,85.932,0,0,1,1.553-16.659,66.8,66.8,0,0,1,4.687-14.718,74.79,74.79,0,0,1,7.251-12.581,67.085,67.085,0,0,1,9.327-10.481,68.3,68.3,0,0,1,11.182-8.252,72.076,72.076,0,0,1,12.828-5.935,84.5,84.5,0,0,1,13.9-3.571A87.829,87.829,0,0,1,463.582-187.274Zm0,142.774a81.632,81.632,0,0,0,13.773-1.154,77.239,77.239,0,0,0,13.107-3.459,69.917,69.917,0,0,0,12-5.648,66.6,66.6,0,0,0,10.5-7.736,61.227,61.227,0,0,0,8.741-9.786A68.9,68.9,0,0,0,528.5-84.161,63.444,63.444,0,0,0,532.84-98a83.058,83.058,0,0,0,1.457-15.886,83.058,83.058,0,0,0-1.457-15.886,63.444,63.444,0,0,0-4.343-13.84,69.617,69.617,0,0,0-6.8-11.9,62.242,62.242,0,0,0-8.745-9.852,65.163,65.163,0,0,0-10.489-7.771,67.755,67.755,0,0,0-11.993-5.6,78.36,78.36,0,0,0-13.112-3.4,83.077,83.077,0,0,0-13.779-1.134,83.844,83.844,0,0,0-13.822,1.135,80.483,80.483,0,0,0-13.242,3.4,68.062,68.062,0,0,0-12.115,5.6,64.3,64.3,0,0,0-10.525,7.768,63.081,63.081,0,0,0-8.769,9.856,70.788,70.788,0,0,0-6.86,11.907,62.8,62.8,0,0,0-4.4,13.836,81.935,81.935,0,0,0-1.477,15.88,81.935,81.935,0,0,0,1.477,15.88,62.8,62.8,0,0,0,4.4,13.836,70.046,70.046,0,0,0,6.858,11.883,62.013,62.013,0,0,0,8.764,9.79A65.688,65.688,0,0,0,424.4-54.764a70.2,70.2,0,0,0,12.126,5.648,79.315,79.315,0,0,0,13.237,3.461A82.371,82.371,0,0,0,463.582-44.5ZM-287.746-61.766h66.92V2h-66.92Zm62.92,4h-58.92V-2h58.92Z" transform="translate(800.305 236.416)" stroke="rgba(0,0,0,0)" stroke-miterlimit="10" stroke-width="1" fill="url(#linear-gradient-30k)"/>
</svg>
