<svg xmlns="http://www.w3.org/2000/svg" xmlns:xlink="http://www.w3.org/1999/xlink" width="376.133" height="59.484" viewBox="0 0 376.133 59.484">
  <defs>
    <linearGradient id="linear-gradient-30" x1="-0.055" y1="0.5" x2="1.1" y2="0.5" gradientUnits="objectBoundingBox">
      <stop offset="0" stop-color="#04c9e4"/>
      <stop offset="0.48" stop-color="#fa41a5"/>
      <stop offset="1" stop-color="#f3bd2f"/>
    </linearGradient>
  </defs>
  <path id="Unique_Features_30" data-name="Unique Features" d="M-163.3-56.039a75.053,75.053,0,0,1,11.145.792,37.223,37.223,0,0,1,9.314,2.553,17.44,17.44,0,0,1,6.52,4.69,10.951,10.951,0,0,1,2.5,7.223,11.765,11.765,0,0,1-.791,4.289,10.954,10.954,0,0,1-2.51,3.762,16.048,16.048,0,0,1-4.289,2.964,23.755,23.755,0,0,1-2.62,1.088,31.3,31.3,0,0,1,3.523,1.3,18.021,18.021,0,0,1,4.92,3.109,11.235,11.235,0,0,1,2.867,4.074,12.984,12.984,0,0,1,.892,4.844,13.311,13.311,0,0,1-2.475,7.968,18.635,18.635,0,0,1-6.68,5.557,35.875,35.875,0,0,1-9.825,3.219,65.845,65.845,0,0,1-12.1,1.052,78.548,78.548,0,0,1-7.993-.376c-2.414-.249-4.671-.576-6.708-.97s-3.938-.841-5.65-1.329-3.307-.982-4.774-1.48l-.679-.23V-17.173l1.47.782a35.068,35.068,0,0,0,5.3,2.239,62.228,62.228,0,0,0,6.151,1.711,60.368,60.368,0,0,0,6.4,1.076,54.643,54.643,0,0,0,6.1.365,43.546,43.546,0,0,0,8.277-.624,14.605,14.605,0,0,0,4.485-1.516,4.118,4.118,0,0,0,1.73-1.67,4.474,4.474,0,0,0,.407-1.753,3.318,3.318,0,0,0-.86-2.3,7.5,7.5,0,0,0-3.441-1.776,39.36,39.36,0,0,0-7.363-1.194c-3.136-.27-7.156-.42-11.951-.446l-.995-.005v-12.62h1c4.36,0,8.026-.091,10.894-.271a45.861,45.861,0,0,0,6.817-.837,7.519,7.519,0,0,0,3.252-1.3,1.945,1.945,0,0,0,.732-1.551,2.652,2.652,0,0,0-.1-.677,1.789,1.789,0,0,0-.4-.664,4.138,4.138,0,0,0-1.1-.835,9.173,9.173,0,0,0-2.211-.8,27.1,27.1,0,0,0-3.726-.6c-1.5-.152-3.328-.229-5.446-.229-1.989,0-4.039.1-6.092.308a58.083,58.083,0,0,0-6.048.921,56.931,56.931,0,0,0-5.719,1.5,34.033,34.033,0,0,0-5.047,2.048l-1.453.738V-52.324l.686-.227a65.52,65.52,0,0,1,11.544-2.639A88.607,88.607,0,0,1-163.3-56.039Zm.391,56.484A63.849,63.849,0,0,0-151.185-.573,33.892,33.892,0,0,0-141.908-3.6a16.662,16.662,0,0,0,5.977-4.951,11.352,11.352,0,0,0,2.1-6.8,11,11,0,0,0-.749-4.1,9.254,9.254,0,0,0-2.367-3.348,16.048,16.048,0,0,0-4.377-2.751,35.885,35.885,0,0,0-6.686-2.106l-.012-1.949a27.3,27.3,0,0,0,5.726-1.955,14.073,14.073,0,0,0,3.758-2.583,8.97,8.97,0,0,0,2.06-3.074,9.774,9.774,0,0,0,.655-3.563,8.887,8.887,0,0,0-2.033-5.941,15.471,15.471,0,0,0-5.785-4.139,35.241,35.241,0,0,0-8.811-2.408,73.056,73.056,0,0,0-10.847-.77,86.61,86.61,0,0,0-11.855.83,64.106,64.106,0,0,0-10.5,2.335v10.5a37.586,37.586,0,0,1,3.891-1.478,58.961,58.961,0,0,1,5.921-1.55,60.093,60.093,0,0,1,6.257-.954c2.119-.211,4.236-.317,6.29-.317,2.185,0,4.085.081,5.648.24a29.049,29.049,0,0,1,4.009.65,10.931,10.931,0,0,1,2.711,1A5.99,5.99,0,0,1-149.3-41.51a3.76,3.76,0,0,1,.812,1.445,4.635,4.635,0,0,1,.171,1.2,3.916,3.916,0,0,1-1.417,3.058,9.431,9.431,0,0,1-4.13,1.746,47.768,47.768,0,0,1-7.128.882c-2.687.169-6.054.261-10.02.274v8.634c4.413.041,8.149.19,11.117.446a41.256,41.256,0,0,1,7.755,1.267,9.189,9.189,0,0,1,4.371,2.365,5.306,5.306,0,0,1,1.367,3.634,6.448,6.448,0,0,1-.57,2.544A5.906,5.906,0,0,1-149.5-11.43a16.245,16.245,0,0,1-5.124,1.766A45.442,45.442,0,0,1-163.3-9a56.635,56.635,0,0,1-6.323-.377,62.357,62.357,0,0,1-6.61-1.112,64.213,64.213,0,0,1-6.349-1.766,39.473,39.473,0,0,1-4.131-1.638V-3.376c1.248.411,2.591.822,4,1.223,1.657.472,3.5.905,5.483,1.289s4.178.7,6.534.944A76.563,76.563,0,0,0-162.914.445Zm63.445-56.484a38.709,38.709,0,0,1,12.75,2.067A31.516,31.516,0,0,1-76.353-48.08a27.643,27.643,0,0,1,6.95,9.238A28.189,28.189,0,0,1-66.867-26.8,28.189,28.189,0,0,1-69.4-14.752a27.643,27.643,0,0,1-6.95,9.238A31.516,31.516,0,0,1-86.718.378a38.709,38.709,0,0,1-12.75,2.067,40.522,40.522,0,0,1-8.732-.922,35.355,35.355,0,0,1-7.819-2.694,30.563,30.563,0,0,1-6.623-4.342,27.5,27.5,0,0,1-5.087-5.817,27.357,27.357,0,0,1-3.265-7.135,29.277,29.277,0,0,1-1.155-8.331,29.336,29.336,0,0,1,1.154-8.311,27.292,27.292,0,0,1,3.265-7.156,27.5,27.5,0,0,1,5.087-5.817,30.562,30.562,0,0,1,6.623-4.342,35.355,35.355,0,0,1,7.819-2.694A40.522,40.522,0,0,1-99.469-56.039Zm0,56.484A36.716,36.716,0,0,0-87.376-1.511a29.53,29.53,0,0,0,9.713-5.514A25.656,25.656,0,0,0-71.214-15.6a26.208,26.208,0,0,0,2.347-11.2,26.208,26.208,0,0,0-2.347-11.2,25.656,25.656,0,0,0-6.449-8.575,29.53,29.53,0,0,0-9.713-5.514,36.716,36.716,0,0,0-12.093-1.956,38.522,38.522,0,0,0-8.3.875,33.354,33.354,0,0,0-7.376,2.54,28.561,28.561,0,0,0-6.19,4.057,25.5,25.5,0,0,0-4.718,5.394,25.294,25.294,0,0,0-3.024,6.633,27.34,27.34,0,0,0-1.072,7.744,27.28,27.28,0,0,0,1.072,7.762,25.358,25.358,0,0,0,3.024,6.615,25.5,25.5,0,0,0,4.718,5.394,28.561,28.561,0,0,0,6.19,4.057,33.354,33.354,0,0,0,7.376,2.54A38.522,38.522,0,0,0-99.469.445Zm79.391-56.484A38.709,38.709,0,0,1-7.328-53.972,31.516,31.516,0,0,1,3.038-48.08a27.641,27.641,0,0,1,6.95,9.238,26.622,26.622,0,0,1,2.188,7.32,27.5,27.5,0,0,1,.8-3.586,27.292,27.292,0,0,1,3.265-7.156,27.5,27.5,0,0,1,5.087-5.817,30.562,30.562,0,0,1,6.623-4.342,35.355,35.355,0,0,1,7.819-2.694,40.522,40.522,0,0,1,8.732-.922,38.709,38.709,0,0,1,12.75,2.067A31.516,31.516,0,0,1,67.616-48.08a27.643,27.643,0,0,1,6.95,9.238,26.624,26.624,0,0,1,2.188,7.32,27.5,27.5,0,0,1,.8-3.586,27.294,27.294,0,0,1,3.265-7.156A27.5,27.5,0,0,1,85.9-48.081a30.562,30.562,0,0,1,6.623-4.342,35.353,35.353,0,0,1,7.819-2.694,40.522,40.522,0,0,1,8.732-.922,38.71,38.71,0,0,1,12.751,2.067,31.516,31.516,0,0,1,10.365,5.892,27.642,27.642,0,0,1,6.95,9.238A28.188,28.188,0,0,1,141.68-26.8a28.188,28.188,0,0,1-2.536,12.045,27.642,27.642,0,0,1-6.95,9.238A31.516,31.516,0,0,1,121.829.378a38.71,38.71,0,0,1-12.751,2.067,40.522,40.522,0,0,1-8.732-.922,35.353,35.353,0,0,1-7.819-2.694A30.562,30.562,0,0,1,85.9-5.513a27.5,27.5,0,0,1-5.087-5.817,27.357,27.357,0,0,1-3.265-7.135,27.143,27.143,0,0,1-.8-3.594,26.621,26.621,0,0,1-2.186,7.308,27.643,27.643,0,0,1-6.95,9.238A31.516,31.516,0,0,1,57.251.378,38.709,38.709,0,0,1,44.5,2.445a40.522,40.522,0,0,1-8.732-.922,35.355,35.355,0,0,1-7.819-2.694,30.563,30.563,0,0,1-6.623-4.342A27.5,27.5,0,0,1,16.24-11.33a27.357,27.357,0,0,1-3.265-7.135,27.146,27.146,0,0,1-.8-3.594,26.619,26.619,0,0,1-2.186,7.308,27.641,27.641,0,0,1-6.95,9.238A31.516,31.516,0,0,1-7.328.378,38.709,38.709,0,0,1-20.078,2.445a40.522,40.522,0,0,1-8.732-.922,35.353,35.353,0,0,1-7.819-2.694,30.562,30.562,0,0,1-6.623-4.342,27.5,27.5,0,0,1-5.087-5.817A27.356,27.356,0,0,1-51.6-18.465,29.276,29.276,0,0,1-52.758-26.8,29.337,29.337,0,0,1-51.6-35.107a27.293,27.293,0,0,1,3.265-7.156,27.5,27.5,0,0,1,5.087-5.817,30.562,30.562,0,0,1,6.623-4.342,35.353,35.353,0,0,1,7.819-2.694A40.522,40.522,0,0,1-20.078-56.039Zm0,56.484A36.716,36.716,0,0,0-7.985-1.511,29.529,29.529,0,0,0,1.728-7.025,25.656,25.656,0,0,0,8.176-15.6a26.208,26.208,0,0,0,2.347-11.2,26.208,26.208,0,0,0-2.347-11.2,25.656,25.656,0,0,0-6.449-8.575,29.529,29.529,0,0,0-9.713-5.514,36.716,36.716,0,0,0-12.093-1.956,38.522,38.522,0,0,0-8.3.875,33.352,33.352,0,0,0-7.376,2.54,28.561,28.561,0,0,0-6.19,4.057,25.5,25.5,0,0,0-4.718,5.394,25.294,25.294,0,0,0-3.024,6.633A27.339,27.339,0,0,0-50.758-26.8a27.281,27.281,0,0,0,1.072,7.762,25.358,25.358,0,0,0,3.024,6.615,25.5,25.5,0,0,0,4.718,5.394,28.561,28.561,0,0,0,6.19,4.057A33.352,33.352,0,0,0-28.378-.43,38.522,38.522,0,0,0-20.078.445ZM44.5.445A36.716,36.716,0,0,0,56.593-1.511a29.53,29.53,0,0,0,9.713-5.514A25.656,25.656,0,0,0,72.755-15.6,26.208,26.208,0,0,0,75.1-26.8a26.208,26.208,0,0,0-2.347-11.2,25.656,25.656,0,0,0-6.449-8.575,29.53,29.53,0,0,0-9.713-5.514A36.716,36.716,0,0,0,44.5-54.039a38.522,38.522,0,0,0-8.3.875,33.354,33.354,0,0,0-7.376,2.54,28.562,28.562,0,0,0-6.19,4.057,25.5,25.5,0,0,0-4.718,5.394,25.294,25.294,0,0,0-3.024,6.633A27.34,27.34,0,0,0,13.82-26.8a27.28,27.28,0,0,0,1.072,7.762,25.358,25.358,0,0,0,3.024,6.615,25.5,25.5,0,0,0,4.718,5.394,28.561,28.561,0,0,0,6.19,4.057A33.354,33.354,0,0,0,36.2-.43,38.522,38.522,0,0,0,44.5.445Zm64.578,0a36.717,36.717,0,0,0,12.093-1.956,29.529,29.529,0,0,0,9.713-5.514,25.656,25.656,0,0,0,6.449-8.575,26.207,26.207,0,0,0,2.347-11.2,26.207,26.207,0,0,0-2.347-11.2,25.656,25.656,0,0,0-6.449-8.575,29.529,29.529,0,0,0-9.713-5.514,36.717,36.717,0,0,0-12.093-1.956,38.522,38.522,0,0,0-8.3.875,33.352,33.352,0,0,0-7.376,2.54,28.561,28.561,0,0,0-6.19,4.057,25.5,25.5,0,0,0-4.718,5.394,25.294,25.294,0,0,0-3.024,6.633A27.339,27.339,0,0,0,78.4-26.8a27.281,27.281,0,0,0,1.072,7.762,25.358,25.358,0,0,0,3.024,6.615,25.5,25.5,0,0,0,4.718,5.394A28.561,28.561,0,0,0,93.4-2.97a33.352,33.352,0,0,0,7.376,2.54A38.522,38.522,0,0,0,109.078.445Zm48.539-49.3h13.445v15.391h15.352v13.406H171.063V-4.664H157.617V-20.055H142.266V-33.461h15.352Zm11.445,2h-9.445v15.391H144.266v9.406h15.352V-6.664h9.445V-22.055h15.352v-9.406H169.063ZM-99.469-44.594a20.351,20.351,0,0,1,6.818,1.151A16.983,16.983,0,0,1-86.862-40a16.831,16.831,0,0,1,4.009,5.6,18.42,18.42,0,0,1,1.494,7.6,18.42,18.42,0,0,1-1.494,7.6,16.62,16.62,0,0,1-4.012,5.587,17.406,17.406,0,0,1-5.779,3.44A20.044,20.044,0,0,1-99.469-9a20.379,20.379,0,0,1-6.859-1.171,17.326,17.326,0,0,1-5.822-3.441,16.849,16.849,0,0,1-4.03-5.582,18.215,18.215,0,0,1-1.516-7.6,18.215,18.215,0,0,1,1.516-7.6,17.067,17.067,0,0,1,4.026-5.6,16.911,16.911,0,0,1,5.831-3.446A20.693,20.693,0,0,1-99.469-44.594Zm0,33.594a18.051,18.051,0,0,0,6.145-1.054A15.416,15.416,0,0,0-88.2-15.1a14.635,14.635,0,0,0,3.527-4.921A16.446,16.446,0,0,0-83.359-26.8a16.446,16.446,0,0,0-1.318-6.777,14.846,14.846,0,0,0-3.53-4.944,14.993,14.993,0,0,0-5.111-3.04,18.357,18.357,0,0,0-6.15-1.036,18.7,18.7,0,0,0-6.193,1.038,14.922,14.922,0,0,0-5.146,3.038,15.079,15.079,0,0,0-3.552,4.949A16.239,16.239,0,0,0-115.7-26.8a16.239,16.239,0,0,0,1.336,6.772,14.862,14.862,0,0,0,3.549,4.926,15.336,15.336,0,0,0,5.155,3.043A18.385,18.385,0,0,0-99.469-11Zm79.391-33.594a20.352,20.352,0,0,1,6.818,1.151A16.984,16.984,0,0,1-7.472-40a16.832,16.832,0,0,1,4.009,5.6,18.42,18.42,0,0,1,1.494,7.6,18.42,18.42,0,0,1-1.494,7.6,16.62,16.62,0,0,1-4.012,5.587,17.406,17.406,0,0,1-5.779,3.44A20.045,20.045,0,0,1-20.078-9a20.378,20.378,0,0,1-6.859-1.171,17.325,17.325,0,0,1-5.822-3.441,16.849,16.849,0,0,1-4.03-5.582A18.214,18.214,0,0,1-38.3-26.8a18.214,18.214,0,0,1,1.516-7.6A17.066,17.066,0,0,1-32.763-40a16.911,16.911,0,0,1,5.831-3.446A20.692,20.692,0,0,1-20.078-44.594Zm0,33.594a18.052,18.052,0,0,0,6.145-1.054A15.416,15.416,0,0,0-8.814-15.1,14.634,14.634,0,0,0-5.287-20.02,16.446,16.446,0,0,0-3.969-26.8a16.446,16.446,0,0,0-1.318-6.777,14.846,14.846,0,0,0-3.53-4.944,14.993,14.993,0,0,0-5.111-3.04,18.357,18.357,0,0,0-6.15-1.036,18.7,18.7,0,0,0-6.193,1.038,14.922,14.922,0,0,0-5.146,3.038,15.077,15.077,0,0,0-3.552,4.949A16.238,16.238,0,0,0-36.3-26.8a16.238,16.238,0,0,0,1.336,6.772A14.862,14.862,0,0,0-31.421-15.1a15.336,15.336,0,0,0,5.155,3.043A18.385,18.385,0,0,0-20.078-11ZM44.5-44.594a20.352,20.352,0,0,1,6.818,1.151A16.983,16.983,0,0,1,57.106-40a16.831,16.831,0,0,1,4.009,5.6,18.42,18.42,0,0,1,1.494,7.6,18.42,18.42,0,0,1-1.494,7.6A16.62,16.62,0,0,1,57.1-13.612a17.406,17.406,0,0,1-5.779,3.44A20.044,20.044,0,0,1,44.5-9a20.379,20.379,0,0,1-6.859-1.171,17.326,17.326,0,0,1-5.822-3.441,16.849,16.849,0,0,1-4.03-5.582,18.215,18.215,0,0,1-1.516-7.6,18.215,18.215,0,0,1,1.516-7.6A17.067,17.067,0,0,1,31.816-40a16.911,16.911,0,0,1,5.831-3.446A20.693,20.693,0,0,1,44.5-44.594ZM44.5-11a18.052,18.052,0,0,0,6.145-1.054A15.416,15.416,0,0,0,55.764-15.1a14.635,14.635,0,0,0,3.527-4.921A16.446,16.446,0,0,0,60.609-26.8a16.446,16.446,0,0,0-1.318-6.777,14.846,14.846,0,0,0-3.53-4.944,14.993,14.993,0,0,0-5.111-3.04,18.357,18.357,0,0,0-6.15-1.036,18.7,18.7,0,0,0-6.193,1.038,14.922,14.922,0,0,0-5.146,3.038,15.08,15.08,0,0,0-3.552,4.949A16.239,16.239,0,0,0,28.273-26.8a16.239,16.239,0,0,0,1.336,6.772A14.862,14.862,0,0,0,33.158-15.1a15.336,15.336,0,0,0,5.155,3.043A18.385,18.385,0,0,0,44.5-11Zm64.578-33.594a20.352,20.352,0,0,1,6.818,1.151A16.983,16.983,0,0,1,121.684-40a16.832,16.832,0,0,1,4.009,5.6,18.42,18.42,0,0,1,1.494,7.6,18.42,18.42,0,0,1-1.494,7.6,16.619,16.619,0,0,1-4.012,5.587,17.406,17.406,0,0,1-5.779,3.44A20.045,20.045,0,0,1,109.078-9a20.378,20.378,0,0,1-6.859-1.171A17.325,17.325,0,0,1,96.4-13.612a16.848,16.848,0,0,1-4.03-5.582,18.214,18.214,0,0,1-1.516-7.6,18.214,18.214,0,0,1,1.516-7.6A17.065,17.065,0,0,1,96.394-40a16.911,16.911,0,0,1,5.831-3.446A20.692,20.692,0,0,1,109.078-44.594Zm0,33.594a18.052,18.052,0,0,0,6.145-1.054,15.416,15.416,0,0,0,5.119-3.045,14.634,14.634,0,0,0,3.527-4.921,16.446,16.446,0,0,0,1.318-6.777,16.446,16.446,0,0,0-1.318-6.777,14.846,14.846,0,0,0-3.53-4.944,14.993,14.993,0,0,0-5.111-3.04,18.357,18.357,0,0,0-6.15-1.036,18.7,18.7,0,0,0-6.193,1.038,14.922,14.922,0,0,0-5.146,3.038,15.077,15.077,0,0,0-3.552,4.949A16.238,16.238,0,0,0,92.852-26.8a16.238,16.238,0,0,0,1.336,6.772A14.861,14.861,0,0,0,97.736-15.1a15.336,15.336,0,0,0,5.155,3.043A18.385,18.385,0,0,0,109.078-11ZM-68.234-15.063h16.8V1h-16.8Zm14.8,2h-12.8V-1h12.8Z" transform="translate(189.219 56.539)" stroke="rgba(0,0,0,0)" stroke-miterlimit="10" stroke-width="1" fill="url(#linear-gradient-30)"/>
</svg>
