<svg xmlns="http://www.w3.org/2000/svg" xmlns:xlink="http://www.w3.org/1999/xlink" width="368.75" height="59.495" viewBox="0 0 368.75 59.495">
  <defs>
    <linearGradient id="linear-gradient-mobile-35+" x1="-0.203" y1="-0.134" x2="0.9" y2="0.1" gradientUnits="objectBoundingBox">
      <stop offset="0" stop-color="#ffc600"/>
      <stop offset="1" stop-color="#ff00b8"/>
    </linearGradient>
  </defs>
  <path id="_35k_mobile-view" data-name="35k mobile" d="M-159.613-56.039a75.054,75.054,0,0,1,11.145.792,37.227,37.227,0,0,1,9.314,2.553,17.44,17.44,0,0,1,6.52,4.69,10.951,10.951,0,0,1,2.5,7.223,11.766,11.766,0,0,1-.791,4.289,10.954,10.954,0,0,1-2.51,3.762,16.053,16.053,0,0,1-4.289,2.964,23.758,23.758,0,0,1-2.62,1.088,31.3,31.3,0,0,1,3.523,1.3,18.02,18.02,0,0,1,4.92,3.109,11.235,11.235,0,0,1,2.867,4.074,12.715,12.715,0,0,1,.87,4.036l1.131.526c1.089.507,2.4,1.041,3.888,1.589a42.159,42.159,0,0,0,5.188,1.487,66.037,66.037,0,0,0,6.733,1.115,72.714,72.714,0,0,0,8.418.442c5.66,0,9.817-.593,12.355-1.764,2.316-1.068,3.442-2.439,3.442-4.19a4.244,4.244,0,0,0-.888-2.711,6.937,6.937,0,0,0-2.889-2.009c-2.794-1.155-6.93-1.741-12.294-1.741-1.816,0-3.625.065-5.376.193s-3.44.3-5.014.521-3.049.475-4.4.768-2.58.6-3.648.9l-.135.038h-4.656v-33.68H-75.09V-41.3h-35.7v6.059q.789-.12,1.659-.221c1.025-.118,2.1-.218,3.207-.3s2.224-.145,3.345-.2,2.263-.079,3.367-.079a53.882,53.882,0,0,1,11.883,1.2,28.545,28.545,0,0,1,9.006,3.569,16.935,16.935,0,0,1,5.763,5.938,16.357,16.357,0,0,1,2,8.148,18.561,18.561,0,0,1-.12,2.125h15.558V1h-16.8V-10.321q-.222.521-.48,1.028a16.619,16.619,0,0,1-5.85,6.281,31.485,31.485,0,0,1-10.11,4.025,66.24,66.24,0,0,1-14.8,1.433c-2.645,0-5.2-.1-7.6-.3s-4.673-.469-6.759-.81-4.017-.727-5.74-1.148-3.255-.866-4.53-1.318l-.666-.236V-12.277a12.824,12.824,0,0,1-2.162,4.894,18.635,18.635,0,0,1-6.68,5.557,35.87,35.87,0,0,1-9.825,3.219,65.843,65.843,0,0,1-12.1,1.052,78.549,78.549,0,0,1-7.993-.376c-2.414-.249-4.671-.576-6.708-.97s-3.937-.841-5.65-1.329-3.307-.982-4.774-1.48l-.679-.23V-17.173l1.47.782a35.058,35.058,0,0,0,5.3,2.239,62.21,62.21,0,0,0,6.151,1.711,60.348,60.348,0,0,0,6.4,1.076,54.638,54.638,0,0,0,6.1.365,43.55,43.55,0,0,0,8.277-.624,14.607,14.607,0,0,0,4.485-1.516,4.119,4.119,0,0,0,1.73-1.67,4.475,4.475,0,0,0,.407-1.753,3.318,3.318,0,0,0-.86-2.3,7.5,7.5,0,0,0-3.441-1.776,39.352,39.352,0,0,0-7.363-1.194c-3.135-.27-7.156-.42-11.951-.446l-.995,0V-34.9h1c4.36,0,8.025-.091,10.894-.271a45.858,45.858,0,0,0,6.817-.837,7.52,7.52,0,0,0,3.252-1.3,1.945,1.945,0,0,0,.732-1.551,2.652,2.652,0,0,0-.1-.678,1.788,1.788,0,0,0-.4-.664,4.137,4.137,0,0,0-1.1-.835,9.171,9.171,0,0,0-2.211-.8,27.109,27.109,0,0,0-3.726-.6c-1.5-.152-3.328-.229-5.446-.229a60.715,60.715,0,0,0-6.093.308,58.061,58.061,0,0,0-6.048.922,56.943,56.943,0,0,0-5.719,1.5A34.036,34.036,0,0,0-182.52-37.9l-1.453.738V-52.324l.686-.227a65.521,65.521,0,0,1,11.544-2.639,88.609,88.609,0,0,1,12.13-.849Zm.391,56.484A63.85,63.85,0,0,0-147.493-.573,33.892,33.892,0,0,0-138.217-3.6a16.662,16.662,0,0,0,5.977-4.951,11.352,11.352,0,0,0,2.1-6.8,11,11,0,0,0-.749-4.1,9.253,9.253,0,0,0-2.367-3.348,16.048,16.048,0,0,0-4.376-2.751,35.881,35.881,0,0,0-6.686-2.106l-.012-1.949A27.306,27.306,0,0,0-138.6-31.56a14.074,14.074,0,0,0,3.758-2.583,8.972,8.972,0,0,0,2.06-3.074,9.775,9.775,0,0,0,.655-3.563,8.887,8.887,0,0,0-2.033-5.941,15.471,15.471,0,0,0-5.785-4.139,35.242,35.242,0,0,0-8.811-2.408,73.051,73.051,0,0,0-10.847-.77,86.611,86.611,0,0,0-11.855.83,64.105,64.105,0,0,0-10.5,2.335v10.5a37.587,37.587,0,0,1,3.891-1.478,58.956,58.956,0,0,1,5.921-1.55,60.079,60.079,0,0,1,6.257-.953c2.119-.211,4.236-.317,6.29-.317,2.185,0,4.085.081,5.648.24a29.059,29.059,0,0,1,4.009.65,10.929,10.929,0,0,1,2.71,1,5.99,5.99,0,0,1,1.634,1.274,3.761,3.761,0,0,1,.812,1.445,4.638,4.638,0,0,1,.171,1.2,3.916,3.916,0,0,1-1.417,3.058,9.431,9.431,0,0,1-4.13,1.746,47.773,47.773,0,0,1-7.129.882c-2.687.169-6.054.261-10.02.274v8.634c4.413.041,8.149.19,11.117.446a41.247,41.247,0,0,1,7.755,1.267,9.188,9.188,0,0,1,4.371,2.365,5.307,5.307,0,0,1,1.367,3.634,6.448,6.448,0,0,1-.57,2.544,5.907,5.907,0,0,1-2.528,2.588,16.247,16.247,0,0,1-5.124,1.766A45.441,45.441,0,0,1-159.613-9a56.649,56.649,0,0,1-6.323-.377,62.362,62.362,0,0,1-6.61-1.112,64.221,64.221,0,0,1-6.349-1.766,39.474,39.474,0,0,1-4.131-1.638V-3.376c1.248.411,2.59.822,4,1.223,1.658.472,3.5.9,5.483,1.289s4.178.7,6.534.944a76.548,76.548,0,0,0,7.786.365ZM-77.09-52.672h-47.219v29.68h2.376c1.077-.3,2.3-.6,3.638-.9,1.4-.3,2.928-.571,4.548-.8s3.346-.4,5.142-.534,3.657-.2,5.522-.2c5.627,0,10.02.637,13.058,1.892a8.879,8.879,0,0,1,3.7,2.629,6.255,6.255,0,0,1,1.31,3.939,5.546,5.546,0,0,1-1.221,3.515,9.062,9.062,0,0,1-3.384,2.491C-92.458-9.637-96.773-9-102.809-9a74.717,74.717,0,0,1-8.652-.456,68.054,68.054,0,0,1-6.939-1.15,44.132,44.132,0,0,1-5.437-1.56c-.945-.347-1.821-.69-2.62-1.026V-2.786c1.069.352,2.3.7,3.671,1.033,1.673.409,3.553.785,5.588,1.117s4.255.6,6.6.791,4.847.29,7.438.29A64.282,64.282,0,0,0-88.817-.935a29.532,29.532,0,0,0,9.463-3.748A14.654,14.654,0,0,0-74.188-10.2a15.26,15.26,0,0,0,1.63-6.988A14.386,14.386,0,0,0-74.3-24.352a14.96,14.96,0,0,0-5.1-5.234,26.57,26.57,0,0,0-8.376-3.306,51.9,51.9,0,0,0-11.438-1.147c-1.073,0-2.175.026-3.274.077s-2.213.117-3.3.194-2.124.174-3.121.289-1.9.248-2.7.4l-1.184.222V-43.3h35.7Zm19.969,39.609h-12.8V-1h12.8ZM-23.77-56.039a38.709,38.709,0,0,1,12.75,2.067A31.517,31.517,0,0,1-.654-48.08,27.643,27.643,0,0,1,6.3-38.842a26.623,26.623,0,0,1,2.188,7.32,27.5,27.5,0,0,1,.8-3.586,27.293,27.293,0,0,1,3.265-7.156,27.5,27.5,0,0,1,5.087-5.817,30.564,30.564,0,0,1,6.623-4.342,35.356,35.356,0,0,1,7.819-2.694,40.525,40.525,0,0,1,8.732-.922,38.709,38.709,0,0,1,12.751,2.067,31.518,31.518,0,0,1,10.36,5.892,27.643,27.643,0,0,1,6.95,9.238,26.623,26.623,0,0,1,2.188,7.32,27.5,27.5,0,0,1,.8-3.586,27.292,27.292,0,0,1,3.265-7.156,27.5,27.5,0,0,1,5.087-5.817,30.565,30.565,0,0,1,6.623-4.342,35.354,35.354,0,0,1,7.819-2.694,40.525,40.525,0,0,1,8.732-.922,38.709,38.709,0,0,1,12.75,2.067A31.518,31.518,0,0,1,128.5-48.08a27.643,27.643,0,0,1,6.95,9.238A28.188,28.188,0,0,1,137.988-26.8a28.189,28.189,0,0,1-2.536,12.045,27.644,27.644,0,0,1-6.95,9.238A31.518,31.518,0,0,1,118.137.378a38.71,38.71,0,0,1-12.75,2.067,40.521,40.521,0,0,1-8.732-.922,35.351,35.351,0,0,1-7.819-2.694,30.564,30.564,0,0,1-6.623-4.342,27.5,27.5,0,0,1-5.087-5.817,27.357,27.357,0,0,1-3.265-7.135,27.143,27.143,0,0,1-.8-3.594,26.621,26.621,0,0,1-2.186,7.308,27.643,27.643,0,0,1-6.95,9.238A31.518,31.518,0,0,1,53.559.378a38.71,38.71,0,0,1-12.75,2.067,40.521,40.521,0,0,1-8.732-.922,35.351,35.351,0,0,1-7.819-2.694,30.564,30.564,0,0,1-6.623-4.342,27.5,27.5,0,0,1-5.087-5.817,27.357,27.357,0,0,1-3.265-7.135,27.147,27.147,0,0,1-.8-3.594A26.62,26.62,0,0,1,6.3-14.752,27.642,27.642,0,0,1-.654-5.514,31.517,31.517,0,0,1-11.019.378,38.71,38.71,0,0,1-23.77,2.445a40.52,40.52,0,0,1-8.73-.922,35.351,35.351,0,0,1-7.82-2.694,30.563,30.563,0,0,1-6.623-4.342A27.5,27.5,0,0,1-52.03-11.33a27.356,27.356,0,0,1-3.265-7.135A29.276,29.276,0,0,1-56.449-26.8,29.336,29.336,0,0,1-55.3-35.111a27.291,27.291,0,0,1,3.265-7.156,27.5,27.5,0,0,1,5.087-5.817,30.564,30.564,0,0,1,6.623-4.342,35.354,35.354,0,0,1,7.82-2.691,40.525,40.525,0,0,1,8.73-.922Zm0,56.484A36.717,36.717,0,0,0-11.676-1.511,29.528,29.528,0,0,0-1.964-7.025,25.654,25.654,0,0,0,4.485-15.6,26.207,26.207,0,0,0,6.832-26.8,26.208,26.208,0,0,0,4.485-38a25.655,25.655,0,0,0-6.449-8.575,29.528,29.528,0,0,0-9.713-5.514,36.716,36.716,0,0,0-12.093-1.95,38.52,38.52,0,0,0-8.3.875,33.353,33.353,0,0,0-7.376,2.54,28.566,28.566,0,0,0-6.19,4.057,25.5,25.5,0,0,0-4.718,5.394,25.3,25.3,0,0,0-3.024,6.633,27.34,27.34,0,0,0-1.071,7.74,27.281,27.281,0,0,0,1.072,7.762,25.358,25.358,0,0,0,3.024,6.615,25.5,25.5,0,0,0,4.718,5.394,28.565,28.565,0,0,0,6.19,4.056A33.351,33.351,0,0,0-32.069-.43a38.519,38.519,0,0,0,8.3.875Zm64.578,0A36.717,36.717,0,0,0,52.9-1.511a29.529,29.529,0,0,0,9.713-5.514,25.654,25.654,0,0,0,6.45-8.575A26.208,26.208,0,0,0,71.41-26.8,26.208,26.208,0,0,0,69.063-38a25.654,25.654,0,0,0-6.449-8.575A29.529,29.529,0,0,0,52.9-52.083a36.716,36.716,0,0,0-12.093-1.956,38.52,38.52,0,0,0-8.3.875,33.353,33.353,0,0,0-7.376,2.54,28.562,28.562,0,0,0-6.19,4.057,25.5,25.5,0,0,0-4.718,5.394A25.3,25.3,0,0,0,11.2-34.541,27.341,27.341,0,0,0,10.129-26.8,27.282,27.282,0,0,0,11.2-19.035a25.359,25.359,0,0,0,3.024,6.615,25.5,25.5,0,0,0,4.718,5.394,28.562,28.562,0,0,0,6.19,4.056A33.349,33.349,0,0,0,32.509-.43a38.519,38.519,0,0,0,8.3.875Zm64.578,0A36.716,36.716,0,0,0,117.48-1.511a29.529,29.529,0,0,0,9.713-5.514,25.657,25.657,0,0,0,6.449-8.575,26.209,26.209,0,0,0,2.347-11.2A26.208,26.208,0,0,0,133.642-38a25.656,25.656,0,0,0-6.449-8.575,29.529,29.529,0,0,0-9.713-5.514,36.715,36.715,0,0,0-12.093-1.956,38.52,38.52,0,0,0-8.3.875,33.353,33.353,0,0,0-7.376,2.54,28.562,28.562,0,0,0-6.19,4.057,25.5,25.5,0,0,0-4.721,5.4,25.294,25.294,0,0,0-3.024,6.633A27.341,27.341,0,0,0,74.707-26.8a27.281,27.281,0,0,0,1.072,7.762A25.358,25.358,0,0,0,78.8-12.42a25.5,25.5,0,0,0,4.718,5.394,28.561,28.561,0,0,0,6.19,4.057A33.351,33.351,0,0,0,97.087-.43a38.519,38.519,0,0,0,8.3.875Zm48.539-49.3H167.37v15.391h15.352v13.406H167.371V-4.664H153.926V-20.055H138.574V-33.461h15.352Zm11.445,2h-9.445v15.391H140.574v9.406h15.352V-6.664h9.445V-22.055h15.352v-9.406H165.371ZM-23.77-44.594a20.352,20.352,0,0,1,6.818,1.151A16.984,16.984,0,0,1-11.163-40a16.833,16.833,0,0,1,4.009,5.6A18.42,18.42,0,0,1-5.66-26.8a18.42,18.42,0,0,1-1.494,7.6,16.621,16.621,0,0,1-4.012,5.587,17.407,17.407,0,0,1-5.779,3.44A20.046,20.046,0,0,1-23.77-9a20.38,20.38,0,0,1-6.859-1.171,17.327,17.327,0,0,1-5.822-3.441,16.849,16.849,0,0,1-4.03-5.582A18.214,18.214,0,0,1-42-26.8a18.214,18.214,0,0,1,1.516-7.6,17.065,17.065,0,0,1,4.03-5.6,16.911,16.911,0,0,1,5.831-3.446A20.693,20.693,0,0,1-23.77-44.594Zm0,33.594a18.051,18.051,0,0,0,6.145-1.054,15.416,15.416,0,0,0,5.12-3.046,14.635,14.635,0,0,0,3.527-4.92A16.445,16.445,0,0,0-7.66-26.8a16.445,16.445,0,0,0-1.318-6.777,14.847,14.847,0,0,0-3.53-4.944,14.994,14.994,0,0,0-5.111-3.04,18.357,18.357,0,0,0-6.15-1.036,18.7,18.7,0,0,0-6.193,1.038,14.922,14.922,0,0,0-5.146,3.038,15.078,15.078,0,0,0-3.552,4.949A16.238,16.238,0,0,0-40-26.8a16.238,16.238,0,0,0,1.336,6.772A14.863,14.863,0,0,0-35.112-15.1a15.336,15.336,0,0,0,5.155,3.043A18.386,18.386,0,0,0-23.77-11ZM40.809-44.594a20.352,20.352,0,0,1,6.818,1.151A16.983,16.983,0,0,1,53.415-40a16.832,16.832,0,0,1,4.009,5.6,18.42,18.42,0,0,1,1.494,7.6,18.42,18.42,0,0,1-1.494,7.6,16.621,16.621,0,0,1-4.012,5.587,17.407,17.407,0,0,1-5.779,3.44A20.047,20.047,0,0,1,40.809-9a20.38,20.38,0,0,1-6.859-1.171,17.326,17.326,0,0,1-5.822-3.441,16.85,16.85,0,0,1-4.03-5.582,18.214,18.214,0,0,1-1.516-7.6A18.214,18.214,0,0,1,24.1-34.4,17.067,17.067,0,0,1,28.124-40a16.911,16.911,0,0,1,5.831-3.446,20.693,20.693,0,0,1,6.854-1.148Zm0,33.594a18.051,18.051,0,0,0,6.145-1.054A15.415,15.415,0,0,0,52.073-15.1,14.635,14.635,0,0,0,55.6-20.02a16.445,16.445,0,0,0,1.318-6.78A16.445,16.445,0,0,0,55.6-33.574a14.847,14.847,0,0,0-3.53-4.944,15,15,0,0,0-5.111-3.04,18.358,18.358,0,0,0-6.15-1.036,18.7,18.7,0,0,0-6.193,1.038,14.922,14.922,0,0,0-5.146,3.038,15.08,15.08,0,0,0-3.552,4.949A16.239,16.239,0,0,0,24.582-26.8a16.239,16.239,0,0,0,1.336,6.772A14.863,14.863,0,0,0,29.466-15.1a15.336,15.336,0,0,0,5.155,3.043A18.385,18.385,0,0,0,40.809-11Zm64.578-33.594a20.352,20.352,0,0,1,6.818,1.151A16.982,16.982,0,0,1,117.993-40,16.833,16.833,0,0,1,122-34.4a18.42,18.42,0,0,1,1.494,7.6,18.42,18.42,0,0,1-1.5,7.6,16.621,16.621,0,0,1-4.012,5.587,17.406,17.406,0,0,1-5.779,3.44A20.046,20.046,0,0,1,105.387-9a20.38,20.38,0,0,1-6.859-1.171,17.326,17.326,0,0,1-5.822-3.441,16.85,16.85,0,0,1-4.03-5.582,18.214,18.214,0,0,1-1.516-7.6,18.214,18.214,0,0,1,1.516-7.6A17.066,17.066,0,0,1,92.7-40a16.911,16.911,0,0,1,5.831-3.446,20.692,20.692,0,0,1,6.856-1.148Zm0,33.594a18.051,18.051,0,0,0,6.145-1.054,15.414,15.414,0,0,0,5.119-3.044,14.635,14.635,0,0,0,3.527-4.921A16.445,16.445,0,0,0,121.5-26.8a16.445,16.445,0,0,0-1.318-6.777,14.846,14.846,0,0,0-3.53-4.944,14.993,14.993,0,0,0-5.111-3.04,18.357,18.357,0,0,0-6.15-1.036A18.7,18.7,0,0,0,99.2-41.559a14.922,14.922,0,0,0-5.146,3.038A15.08,15.08,0,0,0,90.5-33.569,16.239,16.239,0,0,0,89.16-26.8a16.239,16.239,0,0,0,1.34,6.776A14.864,14.864,0,0,0,94.044-15.1,15.336,15.336,0,0,0,99.2-12.055,18.385,18.385,0,0,0,105.387-11Z" transform="translate(185.528 56.54)" stroke="rgba(0,0,0,0)" stroke-width="1" fill="url(#linear-gradient-mobile-35+)"/>
</svg>
