<svg xmlns="http://www.w3.org/2000/svg" xmlns:xlink="http://www.w3.org/1999/xlink" width="1559.438" height="245.059" viewBox="0 0 1559.438 245.059">
  <defs>
    <linearGradient id="linear-gradient" x1="-0.055" y1="0.5" x2="1.1" y2="0.5" gradientUnits="objectBoundingBox">
      <stop offset="0" stop-color="#04c9e4"/>
      <stop offset="0.48" stop-color="#fa41a5"/>
      <stop offset="1" stop-color="#f3bd2f"/>
    </linearGradient>
  </defs>
  <path id="_35k" data-name="35k" d="M-678.356-235.916a316.7,316.7,0,0,1,47.032,3.343,182.729,182.729,0,0,1,20.857,4.344,133.527,133.527,0,0,1,18.161,6.343,83.2,83.2,0,0,1,15.161,8.508,63.263,63.263,0,0,1,11.721,10.8,42.364,42.364,0,0,1,7.577,13.393,48.654,48.654,0,0,1,2.516,15.862,47.762,47.762,0,0,1-3.208,17.41A44.326,44.326,0,0,1-568.7-140.7a65.993,65.993,0,0,1-17.631,12.167,110.1,110.1,0,0,1-17.935,6.764,144.3,144.3,0,0,1,21.85,7.461,74.367,74.367,0,0,1,20.3,12.809A45.516,45.516,0,0,1-550.494-85a52.948,52.948,0,0,1,3.629,19.752,58.816,58.816,0,0,1-2.517,17.4A52.2,52.2,0,0,1-556.955-32.7a69.2,69.2,0,0,1-11.923,12.674A87.281,87.281,0,0,1-584.552-9.762a128.839,128.839,0,0,1-19.036,7.885,175.924,175.924,0,0,1-22.1,5.585c-7.831,1.472-16.094,2.591-24.559,3.326S-667.605,8.142-676.7,8.142a331.617,331.617,0,0,1-33.741-1.588c-10.193-1.052-19.719-2.43-28.314-4.093s-16.61-3.548-23.825-5.6c-7.191-2.047-13.982-4.151-20.183-6.255l-1.357-.461V-69.238l2.94,1.565a151.289,151.289,0,0,0,22.856,9.664,266.674,266.674,0,0,0,26.364,7.332,258.742,258.742,0,0,0,27.429,4.613A234.478,234.478,0,0,0-678.356-44.5c14.848,0,26.834-.908,35.626-2.7,8.7-1.771,15.352-4.033,19.781-6.722,4.264-2.589,7.04-5.324,8.249-8.13a21.23,21.23,0,0,0,1.912-8.339,17.326,17.326,0,0,0-1.056-6.1,16.511,16.511,0,0,0-3.169-5.183c-2.887-3.242-8.16-6-15.672-8.21-7.749-2.276-18.425-4.011-31.732-5.156-13.387-1.152-30.536-1.792-50.972-1.9l-1.989-.011V-146.1h2c18.575,0,34.2-.39,46.442-1.158,12.177-.764,22.043-1.978,29.322-3.608,7.052-1.579,12.035-3.608,14.81-6.03a10.5,10.5,0,0,0,3.881-8.288,13.5,13.5,0,0,0-.512-3.464,9.89,9.89,0,0,0-2.161-3.7,19.735,19.735,0,0,0-5.276-4.043,41.121,41.121,0,0,0-9.96-3.619,117.388,117.388,0,0,0-16.153-2.607c-6.432-.654-14.3-.986-23.372-.986-8.526,0-17.313.444-26.116,1.318a249.069,249.069,0,0,0-25.939,3.952,244.234,244.234,0,0,0-24.534,6.422,146.922,146.922,0,0,0-21.783,8.843l-2.906,1.477v-59.158l1.372-.454c7.551-2.5,15.474-4.7,23.549-6.546s16.52-3.384,25.115-4.576A374.346,374.346,0,0,1-678.356-235.916ZM-676.7,4.142c8.976,0,17.757-.368,26.1-1.092s16.465-1.825,24.167-3.273a171.894,171.894,0,0,0,21.6-5.455,124.84,124.84,0,0,0,18.443-7.637A83.278,83.278,0,0,0-571.433-23.1,65.2,65.2,0,0,0-560.2-35.038,48.2,48.2,0,0,0-553.2-49.027a54.823,54.823,0,0,0,2.339-16.218,48.967,48.967,0,0,0-3.343-18.266,38.6,38.6,0,0,0-4.3-7.891,45.542,45.542,0,0,0-6.322-7.154,70.419,70.419,0,0,0-19.212-12.093,154.705,154.705,0,0,0-28.841-9.089l-.023-3.9a118.254,118.254,0,0,0,24.811-8.481,62.033,62.033,0,0,0,16.568-11.407,40.358,40.358,0,0,0,9.262-13.838,43.781,43.781,0,0,0,2.935-15.959,44.668,44.668,0,0,0-2.3-14.56,38.379,38.379,0,0,0-6.866-12.132,59.263,59.263,0,0,0-10.982-10.115,79.206,79.206,0,0,0-14.431-8.093,129.466,129.466,0,0,0-17.615-6.15,178.726,178.726,0,0,0-20.4-4.247,312.705,312.705,0,0,0-46.435-3.3,370.338,370.338,0,0,0-50.692,3.55c-8.48,1.176-16.815,2.695-24.773,4.513-7.465,1.706-14.8,3.721-21.812,6v49.789a154.158,154.158,0,0,1,19.472-7.655,248.219,248.219,0,0,1,24.938-6.528,253.1,253.1,0,0,1,26.357-4.016c8.934-.888,17.854-1.338,26.511-1.338,9.211,0,17.211.339,23.777,1.006a121.283,121.283,0,0,1,16.718,2.706,44.956,44.956,0,0,1,10.958,4.017,23.615,23.615,0,0,1,6.345,4.922,13.772,13.772,0,0,1,2.986,5.264,17.464,17.464,0,0,1,.65,4.5,14.48,14.48,0,0,1-5.25,11.3c-3.329,2.906-8.748,5.169-16.567,6.92-7.484,1.675-17.559,2.919-29.946,3.7-11.881.746-26.909,1.137-44.692,1.165v41.17c19.669.14,36.25.78,49.3,1.9,13.572,1.168,24.512,2.952,32.516,5.3A56.648,56.648,0,0,1-621.1-89.631a25.19,25.19,0,0,1,7.073,5.293,20.364,20.364,0,0,1,5.238,13.947,25.178,25.178,0,0,1-2.239,9.923,17.226,17.226,0,0,1-3.722,5.292,32.566,32.566,0,0,1-6.124,4.674,46.277,46.277,0,0,1-8.983,4.043,98.972,98.972,0,0,1-12.076,3.18c-9.054,1.844-21.309,2.78-36.425,2.78a238.532,238.532,0,0,1-26.621-1.59,262.772,262.772,0,0,1-27.854-4.684,270.747,270.747,0,0,1-26.761-7.443,160.341,160.341,0,0,1-20.523-8.411v49.9c5.768,1.93,12.03,3.859,18.635,5.739,7.1,2.022,15.008,3.88,23.49,5.522s17.889,3,27.965,4.042A327.612,327.612,0,0,0-676.7,4.142ZM-101.02-235.916a173.413,173.413,0,0,1,27.629,2.163,153.413,153.413,0,0,1,25.821,6.5,141.135,141.135,0,0,1,23.282,10.484A124.555,124.555,0,0,1-4.251-202.639,114.339,114.339,0,0,1,12.2-185.023a118.133,118.133,0,0,1,12.519,20.9,109.373,109.373,0,0,1,7.928,23.866,128.609,128.609,0,0,1,2.637,26.372,128.609,128.609,0,0,1-2.637,26.372,109.373,109.373,0,0,1-7.928,23.866A118.134,118.134,0,0,1,12.2-42.751,114.339,114.339,0,0,1-4.251-25.134,124.555,124.555,0,0,1-24.288-11,141.13,141.13,0,0,1-47.57-.518a153.386,153.386,0,0,1-25.821,6.5A173.413,173.413,0,0,1-101.02,8.142a169.972,169.972,0,0,1-36.623-3.865A148,148,0,0,1-170.376-7a127.65,127.65,0,0,1-27.66-18.132,116.6,116.6,0,0,1-11.508-11.424,113.522,113.522,0,0,1-9.7-12.823,110.4,110.4,0,0,1-7.8-14.2,118.658,118.658,0,0,1-5.805-15.536,114.281,114.281,0,0,1-3.613-16.814,131.533,131.533,0,0,1-1.2-17.955,130.459,130.459,0,0,1,1.2-17.852,115.748,115.748,0,0,1,3.612-16.831,118.789,118.789,0,0,1,5.8-15.6,109.755,109.755,0,0,1,7.8-14.226,113.523,113.523,0,0,1,9.7-12.823,116.6,116.6,0,0,1,11.508-11.424,127.647,127.647,0,0,1,27.66-18.132,148,148,0,0,1,32.733-11.277A169.967,169.967,0,0,1-101.02-235.916Zm0,240.059a169.414,169.414,0,0,0,26.99-2.112A149.363,149.363,0,0,0-48.885-4.3,137.1,137.1,0,0,0-26.264-14.481,120.526,120.526,0,0,0-6.872-28.157a110.314,110.314,0,0,0,15.878-17A114.113,114.113,0,0,0,21.1-65.345a105.362,105.362,0,0,0,7.636-22.992,124.611,124.611,0,0,0,2.551-25.549,124.611,124.611,0,0,0-2.551-25.549A105.362,105.362,0,0,0,21.1-162.428a114.113,114.113,0,0,0-12.093-20.19,110.314,110.314,0,0,0-15.878-17,120.526,120.526,0,0,0-19.392-13.676,137.107,137.107,0,0,0-22.621-10.184A149.37,149.37,0,0,0-74.031-229.8a169.415,169.415,0,0,0-26.99-2.112,165.965,165.965,0,0,0-35.76,3.771,143.993,143.993,0,0,0-31.847,10.969,123.641,123.641,0,0,0-26.794,17.561,112.6,112.6,0,0,0-11.112,11.03,109.533,109.533,0,0,0-9.354,12.37,105.722,105.722,0,0,0-7.515,13.706,114.78,114.78,0,0,0-5.608,15.072,111.726,111.726,0,0,0-3.486,16.248,126.423,126.423,0,0,0-1.164,17.3A127.517,127.517,0,0,0-232.5-96.48a110.315,110.315,0,0,0,3.485,16.223A114.647,114.647,0,0,0-223.4-65.246a106.386,106.386,0,0,0,7.515,13.687,109.533,109.533,0,0,0,9.354,12.37,112.6,112.6,0,0,0,11.112,11.03A123.644,123.644,0,0,0-168.627-10.6,144,144,0,0,0-136.78.371,165.969,165.969,0,0,0-101.02,4.142ZM173.437-235.916a173.413,173.413,0,0,1,27.629,2.163,153.413,153.413,0,0,1,25.821,6.5,141.134,141.134,0,0,1,23.282,10.484,124.555,124.555,0,0,1,20.037,14.132,114.329,114.329,0,0,1,16.454,17.616,118.127,118.127,0,0,1,12.519,20.9,109.373,109.373,0,0,1,7.928,23.866,128.61,128.61,0,0,1,2.637,26.372,128.61,128.61,0,0,1-2.637,26.372,109.374,109.374,0,0,1-7.928,23.866,118.127,118.127,0,0,1-12.519,20.9,114.329,114.329,0,0,1-16.454,17.616A124.555,124.555,0,0,1,250.169-11,141.129,141.129,0,0,1,226.887-.518a153.386,153.386,0,0,1-25.821,6.5,173.413,173.413,0,0,1-27.629,2.163,169.972,169.972,0,0,1-36.623-3.865A148,148,0,0,1,104.081-7a127.65,127.65,0,0,1-27.66-18.132A116.6,116.6,0,0,1,64.913-36.556a113.522,113.522,0,0,1-9.7-12.823,110.4,110.4,0,0,1-7.8-14.2,118.656,118.656,0,0,1-5.805-15.536A114.322,114.322,0,0,1,38-95.932a131.535,131.535,0,0,1-1.2-17.955A130.456,130.456,0,0,1,38-131.738a115.711,115.711,0,0,1,3.612-16.831,118.79,118.79,0,0,1,5.805-15.6,109.754,109.754,0,0,1,7.8-14.226,113.523,113.523,0,0,1,9.7-12.823,116.6,116.6,0,0,1,11.508-11.424,127.647,127.647,0,0,1,27.66-18.132,147.994,147.994,0,0,1,32.733-11.277A169.967,169.967,0,0,1,173.437-235.916Zm0,240.059a169.414,169.414,0,0,0,26.99-2.112A149.363,149.363,0,0,0,225.572-4.3a137.1,137.1,0,0,0,22.621-10.184,120.524,120.524,0,0,0,19.392-13.676,110.305,110.305,0,0,0,15.878-17,114.114,114.114,0,0,0,12.093-20.19,105.36,105.36,0,0,0,7.636-22.992,124.61,124.61,0,0,0,2.551-25.549,124.611,124.611,0,0,0-2.551-25.549,105.36,105.36,0,0,0-7.636-22.992,114.114,114.114,0,0,0-12.093-20.19,110.305,110.305,0,0,0-15.878-17,120.524,120.524,0,0,0-19.392-13.676,137.107,137.107,0,0,0-22.621-10.184,149.37,149.37,0,0,0-25.146-6.327,169.415,169.415,0,0,0-26.99-2.112,165.965,165.965,0,0,0-35.76,3.771,143.993,143.993,0,0,0-31.847,10.969,123.64,123.64,0,0,0-26.794,17.561,112.6,112.6,0,0,0-11.112,11.03,109.534,109.534,0,0,0-9.354,12.37,105.724,105.724,0,0,0-7.515,13.706,114.781,114.781,0,0,0-5.608,15.072,111.714,111.714,0,0,0-3.486,16.248,126.453,126.453,0,0,0-1.164,17.3A127.512,127.512,0,0,0,41.962-96.48a110.278,110.278,0,0,0,3.485,16.223,114.646,114.646,0,0,0,5.608,15.011A106.389,106.389,0,0,0,58.57-51.559a109.534,109.534,0,0,0,9.354,12.37,112.6,112.6,0,0,0,11.112,11.03A123.644,123.644,0,0,0,105.83-10.6,144,144,0,0,0,137.677.371,165.969,165.969,0,0,0,173.437,4.142ZM447.894-235.916a173.413,173.413,0,0,1,27.629,2.163,153.412,153.412,0,0,1,25.821,6.5,141.137,141.137,0,0,1,23.282,10.484,124.555,124.555,0,0,1,20.037,14.132,114.328,114.328,0,0,1,16.454,17.616,118.129,118.129,0,0,1,12.519,20.9,109.375,109.375,0,0,1,7.928,23.866,128.61,128.61,0,0,1,2.637,26.372,128.61,128.61,0,0,1-2.637,26.372,109.375,109.375,0,0,1-7.928,23.866,118.129,118.129,0,0,1-12.519,20.9,114.328,114.328,0,0,1-16.454,17.616A124.555,124.555,0,0,1,524.626-11,141.132,141.132,0,0,1,501.344-.518a153.386,153.386,0,0,1-25.821,6.5,173.413,173.413,0,0,1-27.629,2.163A169.972,169.972,0,0,1,411.27,4.277,148,148,0,0,1,378.538-7a127.65,127.65,0,0,1-27.66-18.132A116.6,116.6,0,0,1,339.37-36.556a113.52,113.52,0,0,1-9.7-12.823,110.4,110.4,0,0,1-7.8-14.2,118.655,118.655,0,0,1-5.805-15.536,114.319,114.319,0,0,1-3.613-16.814,131.536,131.536,0,0,1-1.2-17.955,130.457,130.457,0,0,1,1.2-17.852,115.713,115.713,0,0,1,3.612-16.831,118.793,118.793,0,0,1,5.805-15.6,109.753,109.753,0,0,1,7.8-14.226,113.522,113.522,0,0,1,9.7-12.823,116.6,116.6,0,0,1,11.508-11.424,127.647,127.647,0,0,1,27.66-18.132,147.994,147.994,0,0,1,32.733-11.277A169.967,169.967,0,0,1,447.894-235.916Zm0,240.059a169.414,169.414,0,0,0,26.99-2.112A149.363,149.363,0,0,0,500.029-4.3,137.1,137.1,0,0,0,522.65-14.481a120.526,120.526,0,0,0,19.392-13.676,110.3,110.3,0,0,0,15.878-17,114.114,114.114,0,0,0,12.093-20.19,105.362,105.362,0,0,0,7.636-22.992,124.61,124.61,0,0,0,2.551-25.549,124.611,124.611,0,0,0-2.551-25.549,105.362,105.362,0,0,0-7.636-22.992,114.114,114.114,0,0,0-12.093-20.19,110.3,110.3,0,0,0-15.878-17,120.526,120.526,0,0,0-19.392-13.676,137.106,137.106,0,0,0-22.621-10.184,149.37,149.37,0,0,0-25.146-6.327,169.415,169.415,0,0,0-26.99-2.112,165.965,165.965,0,0,0-35.76,3.771,143.993,143.993,0,0,0-31.847,10.969,123.64,123.64,0,0,0-26.794,17.561,112.6,112.6,0,0,0-11.112,11.03,109.537,109.537,0,0,0-9.354,12.37,105.728,105.728,0,0,0-7.515,13.706,114.784,114.784,0,0,0-5.608,15.072,111.714,111.714,0,0,0-3.486,16.248,126.455,126.455,0,0,0-1.164,17.3,127.512,127.512,0,0,0,1.164,17.407A110.278,110.278,0,0,0,319.9-80.257a114.649,114.649,0,0,0,5.608,15.011,106.386,106.386,0,0,0,7.515,13.687,109.537,109.537,0,0,0,9.354,12.37,112.6,112.6,0,0,0,11.112,11.03A123.644,123.644,0,0,0,380.287-10.6,144,144,0,0,0,412.134.371,165.969,165.969,0,0,0,447.894,4.142ZM-534.561-230.106h213.18v52.311H-473.12v30.641c2.947-.5,6.151-.949,9.558-1.342,4.323-.5,8.877-.921,13.534-1.253s9.413-.612,14.161-.833c4.766-.222,9.545-.334,14.2-.334,9.265,0,18.164.422,26.451,1.255a193.381,193.381,0,0,1,23.549,3.776,141.252,141.252,0,0,1,20.441,6.232,101.139,101.139,0,0,1,17.128,8.64,76.091,76.091,0,0,1,13.682,11.042,65.387,65.387,0,0,1,10.061,13.4,61.793,61.793,0,0,1,6.178,15.7,75.086,75.086,0,0,1,2.05,17.824,76.394,76.394,0,0,1-.825,11.281h66.435V2h-66.92V-58.912q-.267,1.4-.589,2.776a69.244,69.244,0,0,1-5.705,15.621A61.2,61.2,0,0,1-319.6-26.526,78.346,78.346,0,0,1-333.82-14.682a104.2,104.2,0,0,1-18.768,9.589,166.8,166.8,0,0,1-23.463,7.207,218.541,218.541,0,0,1-28.527,4.526c-10.336,1-21.725,1.5-33.852,1.5-11.18,0-21.988-.421-32.121-1.252S-490.29,4.908-499.1,3.468-516.059.4-523.324-1.378s-13.685-3.641-19.036-5.536l-1.332-.472V-65.724l2.843,1.323c4.688,2.18,10.306,4.477,16.7,6.826a181.362,181.362,0,0,0,22.329,6.4A282.975,282.975,0,0,0-472.977-46.4a311.362,311.362,0,0,0,36.04,1.9,226.355,226.355,0,0,0,31.878-1.951c8.815-1.281,16.073-3.216,21.571-5.751,5.384-2.483,9.453-5.438,12.092-8.782a17.876,17.876,0,0,0,2.887-5.2,17.83,17.83,0,0,0,.958-5.865,22.2,22.2,0,0,0-1.066-6.973,19.7,19.7,0,0,0-3.181-5.93c-2.882-3.7-7.321-6.811-13.193-9.238a94.206,94.206,0,0,0-22.326-5.658,220.423,220.423,0,0,0-30.782-1.91c-7.774,0-15.517.277-23.014.825s-14.722,1.3-21.454,2.228-13.07,2.038-18.858,3.294-11.062,2.56-15.646,3.87l-.269.077h-17.222Zm209.18,4h-205.18V-95.467H-517.9c4.6-1.307,9.858-2.6,15.626-3.856,5.888-1.277,12.334-2.4,19.159-3.347s14.121-1.7,21.71-2.255,15.434-.835,23.3-.835a224.358,224.358,0,0,1,31.349,1.95,98.139,98.139,0,0,1,23.287,5.921,44.3,44.3,0,0,1,8.558,4.607,29.153,29.153,0,0,1,6.264,5.87,24.384,24.384,0,0,1,5.091,15.361c0,9.993-6.144,17.893-18.262,23.481-5.848,2.7-13.476,4.742-22.672,6.077A230.259,230.259,0,0,1-436.936-40.5a315.309,315.309,0,0,1-36.509-1.923,286.885,286.885,0,0,1-29.259-4.85,185.251,185.251,0,0,1-22.828-6.548c-5.255-1.931-10-3.831-14.161-5.666v49.266c4.948,1.691,10.765,3.357,17.317,4.957,7.166,1.75,15.214,3.36,23.92,4.783s18.2,2.562,28.229,3.384,20.723,1.238,31.795,1.238c12,0,23.259-.5,33.468-1.485a214.569,214.569,0,0,0,28-4.439,162.846,162.846,0,0,0,22.9-7.029,100.215,100.215,0,0,0,18.046-9.213,74.341,74.341,0,0,0,13.5-11.232,57.2,57.2,0,0,0,9.225-13.072,65.254,65.254,0,0,0,5.376-14.718,70.463,70.463,0,0,0,1.794-16,71.087,71.087,0,0,0-1.935-16.873,57.793,57.793,0,0,0-5.776-14.683,61.382,61.382,0,0,0-9.446-12.58,72.088,72.088,0,0,0-12.964-10.457,97.125,97.125,0,0,0-16.449-8.294,137.231,137.231,0,0,0-19.859-6.052,189.343,189.343,0,0,0-23.06-3.7c-8.154-.819-16.919-1.235-26.051-1.235-4.6,0-9.314.111-14.018.33s-9.446.5-14.062.827c-4.6.328-9.094.745-13.36,1.237-4.25.49-8.169,1.07-11.648,1.722l-2.369.444v-39.439h151.738Zm84.867,168.34h-58.92V-2h58.92Zm896.949-147.6h52.643v65.41h65.244v52.476H709.077v65.41H656.435v-65.41H591.19v-52.476h65.244Zm48.643,4H660.435v65.41H595.19v44.476h65.244v65.41h44.643v-65.41h65.244v-44.476H705.077Zm-806.1,14.1a87.107,87.107,0,0,1,14.444,1.19,82.386,82.386,0,0,1,13.783,3.574,71.767,71.767,0,0,1,12.7,5.935,69.176,69.176,0,0,1,11.135,8.249,66.266,66.266,0,0,1,9.309,10.485,73.618,73.618,0,0,1,7.19,12.586,67.444,67.444,0,0,1,4.621,14.714,87.058,87.058,0,0,1,1.531,16.654,87.058,87.058,0,0,1-1.531,16.654,67.444,67.444,0,0,1-4.621,14.714,72.911,72.911,0,0,1-7.192,12.568,65.229,65.229,0,0,1-9.313,10.426,70.6,70.6,0,0,1-11.128,8.2A73.927,73.927,0,0,1-72.783-45.35a81.24,81.24,0,0,1-13.788,3.638A85.626,85.626,0,0,1-101.02-40.5a86.383,86.383,0,0,1-14.489-1.211,83.309,83.309,0,0,1-13.906-3.636,74.2,74.2,0,0,1-12.818-5.973,69.7,69.7,0,0,1-11.175-8.2,66.019,66.019,0,0,1-9.331-10.422,74.053,74.053,0,0,1-7.253-12.563,66.813,66.813,0,0,1-4.687-14.718,85.934,85.934,0,0,1-1.553-16.659,85.934,85.934,0,0,1,1.553-16.659,66.813,66.813,0,0,1,4.687-14.718,74.8,74.8,0,0,1,7.251-12.581,67.086,67.086,0,0,1,9.327-10.481,68.312,68.312,0,0,1,11.181-8.252,72.079,72.079,0,0,1,12.829-5.935,84.5,84.5,0,0,1,13.9-3.571A87.829,87.829,0,0,1-101.02-187.274Zm0,142.774a81.631,81.631,0,0,0,13.773-1.154,77.236,77.236,0,0,0,13.107-3.459,69.924,69.924,0,0,0,12-5.648,66.609,66.609,0,0,0,10.5-7.736A61.217,61.217,0,0,0-42.9-72.283a68.9,68.9,0,0,0,6.795-11.878A63.445,63.445,0,0,0-31.763-98a83.058,83.058,0,0,0,1.457-15.886,83.058,83.058,0,0,0-1.457-15.886,63.445,63.445,0,0,0-4.343-13.84,69.631,69.631,0,0,0-6.8-11.9,62.259,62.259,0,0,0-8.745-9.852,65.167,65.167,0,0,0-10.489-7.771,67.757,67.757,0,0,0-11.993-5.6,78.36,78.36,0,0,0-13.112-3.4,83.075,83.075,0,0,0-13.779-1.134,83.848,83.848,0,0,0-13.822,1.135,80.49,80.49,0,0,0-13.242,3.4,68.049,68.049,0,0,0-12.115,5.6,64.307,64.307,0,0,0-10.525,7.768,63.073,63.073,0,0,0-8.769,9.856,70.8,70.8,0,0,0-6.86,11.907,62.8,62.8,0,0,0-4.4,13.836,81.922,81.922,0,0,0-1.477,15.88,81.922,81.922,0,0,0,1.477,15.88,62.8,62.8,0,0,0,4.4,13.836A70.051,70.051,0,0,0-159.5-72.287a62.015,62.015,0,0,0,8.764,9.79A65.684,65.684,0,0,0-140.2-54.764a70.2,70.2,0,0,0,12.126,5.648,79.314,79.314,0,0,0,13.237,3.461A82.369,82.369,0,0,0-101.02-44.5ZM173.437-187.274a87.107,87.107,0,0,1,14.444,1.19,82.387,82.387,0,0,1,13.783,3.574,71.767,71.767,0,0,1,12.7,5.935,69.175,69.175,0,0,1,11.135,8.249,66.267,66.267,0,0,1,9.309,10.485A73.643,73.643,0,0,1,242-145.254a67.444,67.444,0,0,1,4.621,14.714,87.057,87.057,0,0,1,1.531,16.654,87.057,87.057,0,0,1-1.531,16.654A67.444,67.444,0,0,1,242-82.519a72.9,72.9,0,0,1-7.192,12.568,65.211,65.211,0,0,1-9.313,10.426,70.6,70.6,0,0,1-11.128,8.2,73.927,73.927,0,0,1-12.691,5.973,81.24,81.24,0,0,1-13.788,3.638,85.626,85.626,0,0,1-14.45,1.212,86.382,86.382,0,0,1-14.489-1.211,83.309,83.309,0,0,1-13.906-3.636,74.2,74.2,0,0,1-12.818-5.973,69.7,69.7,0,0,1-11.175-8.2,66.019,66.019,0,0,1-9.331-10.422,74.054,74.054,0,0,1-7.253-12.563,66.813,66.813,0,0,1-4.687-14.718,85.934,85.934,0,0,1-1.553-16.659,85.934,85.934,0,0,1,1.553-16.659,66.813,66.813,0,0,1,4.687-14.718,74.8,74.8,0,0,1,7.251-12.581,67.085,67.085,0,0,1,9.327-10.481,68.312,68.312,0,0,1,11.181-8.252,72.079,72.079,0,0,1,12.829-5.935,84.5,84.5,0,0,1,13.9-3.571A87.829,87.829,0,0,1,173.437-187.274Zm0,142.774a81.631,81.631,0,0,0,13.773-1.154,77.237,77.237,0,0,0,13.107-3.459,69.925,69.925,0,0,0,12-5.648,66.609,66.609,0,0,0,10.5-7.736,61.208,61.208,0,0,0,8.741-9.786,68.9,68.9,0,0,0,6.795-11.878A63.444,63.444,0,0,0,242.694-98a83.058,83.058,0,0,0,1.457-15.886,83.058,83.058,0,0,0-1.457-15.886,63.444,63.444,0,0,0-4.343-13.84,69.615,69.615,0,0,0-6.8-11.9,62.258,62.258,0,0,0-8.745-9.852,65.168,65.168,0,0,0-10.489-7.771,67.757,67.757,0,0,0-11.993-5.6,78.36,78.36,0,0,0-13.112-3.4,83.074,83.074,0,0,0-13.779-1.134,83.849,83.849,0,0,0-13.822,1.135,80.49,80.49,0,0,0-13.242,3.4,68.049,68.049,0,0,0-12.115,5.6,64.308,64.308,0,0,0-10.525,7.768,63.073,63.073,0,0,0-8.769,9.856A70.8,70.8,0,0,0,108.1-143.6a62.8,62.8,0,0,0-4.4,13.836,81.922,81.922,0,0,0-1.477,15.88,81.922,81.922,0,0,0,1.477,15.88,62.8,62.8,0,0,0,4.4,13.836,70.051,70.051,0,0,0,6.858,11.883,62.014,62.014,0,0,0,8.764,9.79,65.684,65.684,0,0,0,10.532,7.733,70.2,70.2,0,0,0,12.126,5.648,79.315,79.315,0,0,0,13.237,3.461A82.369,82.369,0,0,0,173.437-44.5ZM447.894-187.274a87.107,87.107,0,0,1,14.444,1.19,82.386,82.386,0,0,1,13.783,3.574,71.767,71.767,0,0,1,12.7,5.935,69.175,69.175,0,0,1,11.135,8.249,66.265,66.265,0,0,1,9.309,10.485,73.619,73.619,0,0,1,7.19,12.586,67.446,67.446,0,0,1,4.621,14.714,87.06,87.06,0,0,1,1.531,16.654,87.06,87.06,0,0,1-1.531,16.654,67.446,67.446,0,0,1-4.621,14.714,72.913,72.913,0,0,1-7.192,12.568,65.231,65.231,0,0,1-9.313,10.426,70.6,70.6,0,0,1-11.128,8.2,73.927,73.927,0,0,1-12.691,5.973,81.241,81.241,0,0,1-13.788,3.638,85.626,85.626,0,0,1-14.45,1.212A86.382,86.382,0,0,1,433.4-41.711,83.309,83.309,0,0,1,419.5-45.348,74.2,74.2,0,0,1,406.68-51.32a69.7,69.7,0,0,1-11.175-8.2,66.019,66.019,0,0,1-9.331-10.422,74.056,74.056,0,0,1-7.253-12.563,66.809,66.809,0,0,1-4.687-14.718,85.947,85.947,0,0,1-1.553-16.659,85.947,85.947,0,0,1,1.553-16.659,66.809,66.809,0,0,1,4.687-14.718,74.793,74.793,0,0,1,7.251-12.581,67.084,67.084,0,0,1,9.327-10.481,68.31,68.31,0,0,1,11.181-8.252,72.079,72.079,0,0,1,12.829-5.935,84.5,84.5,0,0,1,13.9-3.571A87.829,87.829,0,0,1,447.894-187.274Zm0,142.774a81.631,81.631,0,0,0,13.773-1.154,77.237,77.237,0,0,0,13.107-3.459,69.925,69.925,0,0,0,12-5.648,66.609,66.609,0,0,0,10.5-7.736,61.219,61.219,0,0,0,8.741-9.786,68.9,68.9,0,0,0,6.795-11.878A63.444,63.444,0,0,0,517.151-98a83.058,83.058,0,0,0,1.457-15.886,83.058,83.058,0,0,0-1.457-15.886,63.444,63.444,0,0,0-4.343-13.84,69.628,69.628,0,0,0-6.8-11.9,62.261,62.261,0,0,0-8.745-9.852,65.167,65.167,0,0,0-10.489-7.771,67.757,67.757,0,0,0-11.993-5.6,78.36,78.36,0,0,0-13.112-3.4,83.075,83.075,0,0,0-13.779-1.134,83.848,83.848,0,0,0-13.822,1.135,80.49,80.49,0,0,0-13.242,3.4,68.049,68.049,0,0,0-12.115,5.6,64.306,64.306,0,0,0-10.525,7.768,63.073,63.073,0,0,0-8.769,9.856,70.793,70.793,0,0,0-6.86,11.907,62.788,62.788,0,0,0-4.4,13.836,81.935,81.935,0,0,0-1.477,15.88,81.935,81.935,0,0,0,1.477,15.88,62.788,62.788,0,0,0,4.4,13.836,70.05,70.05,0,0,0,6.858,11.883,62.015,62.015,0,0,0,8.764,9.79,65.684,65.684,0,0,0,10.532,7.733,70.206,70.206,0,0,0,12.126,5.648,79.315,79.315,0,0,0,13.237,3.461A82.369,82.369,0,0,0,447.894-44.5Z" transform="translate(784.616 236.416)" stroke="rgba(0,0,0,0)" stroke-miterlimit="10" stroke-width="1" fill="url(#linear-gradient)"/>
</svg>
