 <svg xmlns="http://www.w3.org/2000/svg" xmlns:xlink="http://www.w3.org/1999/xlink" width="1558.442" height="244.064" viewBox="0 0 1558.442 244.064">
  <defs>
    <linearGradient id="linear-gradient-35k-desktop" x1="-0.203" y1="-0.134" x2="0.9" y2="0.1" gradientUnits="objectBoundingBox">
      <stop offset="0" stop-color="#ffc600"/>
      <stop offset="1" stop-color="#ff00b8"/>
    </linearGradient>
  </defs>
  <path id="_35k" data-name="35k" d="M-678.356-235.916a316.7,316.7,0,0,1,47.032,3.343,182.719,182.719,0,0,1,20.857,4.344,133.525,133.525,0,0,1,18.161,6.343,83.2,83.2,0,0,1,15.161,8.508,63.262,63.262,0,0,1,11.721,10.8,42.365,42.365,0,0,1,7.577,13.393,48.653,48.653,0,0,1,2.516,15.862,47.761,47.761,0,0,1-3.208,17.41A44.326,44.326,0,0,1-568.7-140.7a65.992,65.992,0,0,1-17.631,12.167,110.1,110.1,0,0,1-17.935,6.764,144.3,144.3,0,0,1,21.85,7.461,74.367,74.367,0,0,1,20.3,12.809A45.516,45.516,0,0,1-550.494-85a52.947,52.947,0,0,1,3.629,19.752,58.817,58.817,0,0,1-2.517,17.4A52.2,52.2,0,0,1-556.955-32.7a69.2,69.2,0,0,1-11.923,12.674A87.283,87.283,0,0,1-584.552-9.762a128.837,128.837,0,0,1-19.036,7.885,175.926,175.926,0,0,1-22.1,5.585c-7.831,1.472-16.094,2.591-24.559,3.326S-667.6,8.142-676.7,8.142a331.624,331.624,0,0,1-33.741-1.588c-10.193-1.052-19.719-2.43-28.314-4.093s-16.61-3.548-23.825-5.6c-7.191-2.047-13.982-4.151-20.183-6.255l-1.357-.461V-69.238l2.94,1.565a151.286,151.286,0,0,0,22.856,9.664,266.671,266.671,0,0,0,26.364,7.332,258.747,258.747,0,0,0,27.429,4.613A234.477,234.477,0,0,0-678.356-44.5c14.848,0,26.834-.908,35.626-2.7,8.7-1.771,15.352-4.033,19.781-6.722,4.264-2.589,7.04-5.324,8.249-8.13a21.229,21.229,0,0,0,1.912-8.339,17.326,17.326,0,0,0-1.056-6.1,16.512,16.512,0,0,0-3.169-5.183c-2.887-3.242-8.16-6-15.672-8.21-7.749-2.276-18.425-4.011-31.732-5.156-13.387-1.152-30.536-1.792-50.972-1.9l-1.989-.011V-146.1h2c18.575,0,34.2-.39,46.442-1.158,12.177-.764,22.043-1.978,29.322-3.608,7.052-1.579,12.035-3.608,14.81-6.03a10.5,10.5,0,0,0,3.881-8.288,13.5,13.5,0,0,0-.512-3.464,9.891,9.891,0,0,0-2.161-3.7,19.735,19.735,0,0,0-5.276-4.043,41.121,41.121,0,0,0-9.96-3.619,117.389,117.389,0,0,0-16.153-2.607c-6.432-.654-14.3-.986-23.372-.986-8.526,0-17.313.444-26.116,1.318a249.071,249.071,0,0,0-25.939,3.952,244.245,244.245,0,0,0-24.534,6.422,146.925,146.925,0,0,0-21.783,8.843l-2.906,1.477v-59.158l1.372-.454c7.551-2.5,15.474-4.7,23.549-6.546s16.52-3.384,25.115-4.576a374.35,374.35,0,0,1,51.243-3.591ZM-676.7,4.142c8.976,0,17.757-.368,26.1-1.092s16.465-1.825,24.167-3.273a171.9,171.9,0,0,0,21.6-5.455,124.842,124.842,0,0,0,18.443-7.637A83.277,83.277,0,0,0-571.433-23.1,65.2,65.2,0,0,0-560.2-35.038a48.2,48.2,0,0,0,7-13.989,54.822,54.822,0,0,0,2.339-16.218A48.966,48.966,0,0,0-554.2-83.511a38.6,38.6,0,0,0-4.3-7.891,45.543,45.543,0,0,0-6.322-7.154,70.419,70.419,0,0,0-19.212-12.093,154.7,154.7,0,0,0-28.841-9.089l-.023-3.9a118.254,118.254,0,0,0,24.811-8.481,62.034,62.034,0,0,0,16.568-11.407,40.358,40.358,0,0,0,9.262-13.838,43.78,43.78,0,0,0,2.935-15.959,44.668,44.668,0,0,0-2.3-14.56,38.38,38.38,0,0,0-6.866-12.132,59.26,59.26,0,0,0-10.982-10.115,79.2,79.2,0,0,0-14.431-8.093,129.465,129.465,0,0,0-17.615-6.15,178.726,178.726,0,0,0-20.4-4.247,312.7,312.7,0,0,0-46.435-3.3,370.335,370.335,0,0,0-50.692,3.55c-8.48,1.176-16.815,2.7-24.773,4.513-7.465,1.706-14.8,3.721-21.812,6v49.789a154.151,154.151,0,0,1,19.472-7.655,248.2,248.2,0,0,1,24.938-6.528,253.1,253.1,0,0,1,26.357-4.016c8.934-.888,17.854-1.338,26.511-1.338,9.211,0,17.211.339,23.777,1.006a121.285,121.285,0,0,1,16.718,2.706,44.956,44.956,0,0,1,10.958,4.017,23.615,23.615,0,0,1,6.345,4.922,13.772,13.772,0,0,1,2.986,5.264,17.466,17.466,0,0,1,.65,4.5,14.48,14.48,0,0,1-5.25,11.3c-3.329,2.906-8.748,5.169-16.567,6.92-7.484,1.675-17.559,2.919-29.946,3.7-11.881.746-26.909,1.137-44.692,1.165v41.17c19.669.14,36.25.78,49.3,1.9,13.572,1.168,24.512,2.952,32.516,5.3a56.649,56.649,0,0,1,10.459,4.1,25.19,25.19,0,0,1,7.073,5.293,20.364,20.364,0,0,1,5.238,13.947,25.179,25.179,0,0,1-2.239,9.923,17.226,17.226,0,0,1-3.722,5.292,32.567,32.567,0,0,1-6.124,4.674,46.275,46.275,0,0,1-8.983,4.043,98.972,98.972,0,0,1-12.076,3.18c-9.054,1.844-21.309,2.78-36.425,2.78a238.53,238.53,0,0,1-26.621-1.59,262.762,262.762,0,0,1-27.854-4.684,270.744,270.744,0,0,1-26.761-7.443,160.347,160.347,0,0,1-20.523-8.411v49.9c5.768,1.93,12.03,3.859,18.635,5.739,7.1,2.022,15.008,3.88,23.49,5.522s17.889,3,27.965,4.042A327.626,327.626,0,0,0-676.7,4.142Zm575.68-240.058a173.411,173.411,0,0,1,27.629,2.163,153.415,153.415,0,0,1,25.821,6.5,141.134,141.134,0,0,1,23.282,10.484,124.554,124.554,0,0,1,20.037,14.13A114.34,114.34,0,0,1,12.2-185.023a118.134,118.134,0,0,1,12.519,20.9,109.372,109.372,0,0,1,7.928,23.866,128.607,128.607,0,0,1,2.637,26.372,128.608,128.608,0,0,1-2.637,26.372,109.373,109.373,0,0,1-7.928,23.866A118.133,118.133,0,0,1,12.2-42.751,114.338,114.338,0,0,1-4.251-25.134,124.555,124.555,0,0,1-24.288-11,141.129,141.129,0,0,1-47.57-.518a153.386,153.386,0,0,1-25.821,6.5,173.412,173.412,0,0,1-27.629,2.16,169.973,169.973,0,0,1-36.623-3.865A148,148,0,0,1-170.376-7a127.651,127.651,0,0,1-27.66-18.132,116.6,116.6,0,0,1-11.508-11.424,113.518,113.518,0,0,1-9.7-12.823,110.4,110.4,0,0,1-7.8-14.2,118.661,118.661,0,0,1-5.8-15.536,114.277,114.277,0,0,1-3.613-16.814,131.534,131.534,0,0,1-1.2-17.955,130.463,130.463,0,0,1,1.2-17.852,115.747,115.747,0,0,1,3.612-16.831,118.785,118.785,0,0,1,5.8-15.6,109.756,109.756,0,0,1,7.8-14.226,113.527,113.527,0,0,1,9.7-12.823,116.6,116.6,0,0,1,11.508-11.424,127.647,127.647,0,0,1,27.66-18.132,148,148,0,0,1,32.733-11.277,169.967,169.967,0,0,1,36.629-3.867Zm0,240.059A169.411,169.411,0,0,0-74.03,2.031,149.363,149.363,0,0,0-48.885-4.3,137.1,137.1,0,0,0-26.264-14.481,120.526,120.526,0,0,0-6.872-28.157a110.314,110.314,0,0,0,15.878-17A114.113,114.113,0,0,0,21.1-65.345a105.361,105.361,0,0,0,7.636-22.992,124.61,124.61,0,0,0,2.551-25.549,124.61,124.61,0,0,0-2.551-25.549A105.362,105.362,0,0,0,21.1-162.428a114.112,114.112,0,0,0-12.093-20.19,110.314,110.314,0,0,0-15.878-17,120.527,120.527,0,0,0-19.392-13.676,137.107,137.107,0,0,0-22.621-10.184A149.37,149.37,0,0,0-74.031-229.8a169.416,169.416,0,0,0-26.99-2.112,165.966,165.966,0,0,0-35.76,3.771,143.991,143.991,0,0,0-31.847,10.969,123.641,123.641,0,0,0-26.794,17.561,112.6,112.6,0,0,0-11.112,11.03,109.532,109.532,0,0,0-9.354,12.37,105.721,105.721,0,0,0-7.515,13.706,114.779,114.779,0,0,0-5.608,15.072,111.726,111.726,0,0,0-3.486,16.248,126.425,126.425,0,0,0-1.164,17.3A127.517,127.517,0,0,0-232.5-96.48a110.311,110.311,0,0,0,3.485,16.223A114.648,114.648,0,0,0-223.4-65.246a106.386,106.386,0,0,0,7.515,13.687,109.534,109.534,0,0,0,9.354,12.37,112.6,112.6,0,0,0,11.112,11.03A123.644,123.644,0,0,0-168.627-10.6,144,144,0,0,0-136.78.371a165.969,165.969,0,0,0,35.76,3.771ZM173.437-235.916a173.41,173.41,0,0,1,27.629,2.163,153.411,153.411,0,0,1,25.821,6.5,141.131,141.131,0,0,1,23.282,10.484,124.554,124.554,0,0,1,20.037,14.132,114.326,114.326,0,0,1,16.454,17.616,118.123,118.123,0,0,1,12.519,20.9,109.371,109.371,0,0,1,7.928,23.866,128.611,128.611,0,0,1,2.637,26.372,128.609,128.609,0,0,1-2.637,26.372,109.375,109.375,0,0,1-7.928,23.866,118.129,118.129,0,0,1-12.519,20.9,114.327,114.327,0,0,1-16.454,17.616A124.556,124.556,0,0,1,250.169-11,141.128,141.128,0,0,1,226.887-.518a153.384,153.384,0,0,1-25.821,6.5,173.412,173.412,0,0,1-27.629,2.163A169.972,169.972,0,0,1,136.814,4.28,148,148,0,0,1,104.081-7a127.65,127.65,0,0,1-27.66-18.132A116.6,116.6,0,0,1,64.913-36.556a113.522,113.522,0,0,1-9.7-12.823,110.4,110.4,0,0,1-7.8-14.2,118.656,118.656,0,0,1-5.805-15.536A114.321,114.321,0,0,1,38-95.932a131.532,131.532,0,0,1-1.2-17.955A130.454,130.454,0,0,1,38-131.738a115.711,115.711,0,0,1,3.612-16.831,118.788,118.788,0,0,1,5.805-15.6,109.754,109.754,0,0,1,7.8-14.226,113.519,113.519,0,0,1,9.7-12.823,116.6,116.6,0,0,1,11.508-11.424,127.648,127.648,0,0,1,27.66-18.132,147.994,147.994,0,0,1,32.733-11.277,169.965,169.965,0,0,1,36.619-3.865Zm0,240.059a169.411,169.411,0,0,0,26.99-2.112A149.365,149.365,0,0,0,225.572-4.3a137.1,137.1,0,0,0,22.621-10.184A120.525,120.525,0,0,0,267.585-28.16a110.3,110.3,0,0,0,15.878-17,114.114,114.114,0,0,0,12.093-20.19,105.359,105.359,0,0,0,7.636-22.992,124.609,124.609,0,0,0,2.551-25.549,124.611,124.611,0,0,0-2.551-25.549,105.363,105.363,0,0,0-7.636-22.992,114.112,114.112,0,0,0-12.093-20.19,110.307,110.307,0,0,0-15.878-17A120.525,120.525,0,0,0,248.193-213.3a137.107,137.107,0,0,0-22.621-10.184,149.369,149.369,0,0,0-25.146-6.327,169.416,169.416,0,0,0-26.99-2.112,165.965,165.965,0,0,0-35.76,3.771,144,144,0,0,0-31.847,10.969A123.64,123.64,0,0,0,79.035-199.62a112.6,112.6,0,0,0-11.112,11.03,109.533,109.533,0,0,0-9.354,12.37,105.724,105.724,0,0,0-7.515,13.706,114.781,114.781,0,0,0-5.608,15.072,111.713,111.713,0,0,0-3.486,16.248,126.453,126.453,0,0,0-1.164,17.3A127.509,127.509,0,0,0,41.962-96.48a110.276,110.276,0,0,0,3.485,16.223,114.646,114.646,0,0,0,5.608,15.011A106.388,106.388,0,0,0,58.57-51.559a109.536,109.536,0,0,0,9.354,12.37,112.6,112.6,0,0,0,11.112,11.03A123.644,123.644,0,0,0,105.83-10.6,144,144,0,0,0,137.677.371a165.968,165.968,0,0,0,35.76,3.771ZM447.894-235.916a173.411,173.411,0,0,1,27.629,2.163,153.413,153.413,0,0,1,25.821,6.5,141.138,141.138,0,0,1,23.282,10.484,124.554,124.554,0,0,1,20.037,14.132,114.325,114.325,0,0,1,16.454,17.616,118.13,118.13,0,0,1,12.519,20.9,109.377,109.377,0,0,1,7.928,23.866,128.6,128.6,0,0,1,2.637,26.372,128.609,128.609,0,0,1-2.637,26.372,109.376,109.376,0,0,1-7.928,23.866,118.13,118.13,0,0,1-12.519,20.9,114.328,114.328,0,0,1-16.454,17.616A124.558,124.558,0,0,1,524.626-11,141.131,141.131,0,0,1,501.344-.518a153.387,153.387,0,0,1-25.821,6.5,173.412,173.412,0,0,1-27.629,2.163A169.972,169.972,0,0,1,411.27,4.277,148,148,0,0,1,378.538-7a127.65,127.65,0,0,1-27.66-18.132A116.6,116.6,0,0,1,339.37-36.556a113.525,113.525,0,0,1-9.7-12.823,110.4,110.4,0,0,1-7.8-14.2,118.659,118.659,0,0,1-5.8-15.536,114.317,114.317,0,0,1-3.613-16.814,131.525,131.525,0,0,1-1.2-17.955,130.456,130.456,0,0,1,1.2-17.852,115.708,115.708,0,0,1,3.612-16.831,118.8,118.8,0,0,1,5.8-15.6,109.748,109.748,0,0,1,7.8-14.226,113.519,113.519,0,0,1,9.7-12.823,116.6,116.6,0,0,1,11.508-11.424,127.647,127.647,0,0,1,27.66-18.132,147.992,147.992,0,0,1,32.733-11.277,169.966,169.966,0,0,1,36.624-3.867Zm0,240.059a169.415,169.415,0,0,0,26.99-2.112A149.363,149.363,0,0,0,500.029-4.3,137.1,137.1,0,0,0,522.65-14.481a120.524,120.524,0,0,0,19.392-13.676,110.3,110.3,0,0,0,15.878-17,114.116,114.116,0,0,0,12.093-20.19,105.361,105.361,0,0,0,7.636-22.992,124.611,124.611,0,0,0,2.551-25.549,124.612,124.612,0,0,0-2.551-25.549,105.358,105.358,0,0,0-7.636-22.992,114.116,114.116,0,0,0-12.093-20.19,110.3,110.3,0,0,0-15.878-17,120.527,120.527,0,0,0-19.392-13.676,137.107,137.107,0,0,0-22.621-10.184,149.37,149.37,0,0,0-25.146-6.327,169.416,169.416,0,0,0-26.99-2.112,165.965,165.965,0,0,0-35.76,3.771,143.993,143.993,0,0,0-31.847,10.969,123.64,123.64,0,0,0-26.794,17.561,112.6,112.6,0,0,0-11.112,11.03,109.537,109.537,0,0,0-9.354,12.37,105.727,105.727,0,0,0-7.515,13.706,114.789,114.789,0,0,0-5.608,15.072,111.713,111.713,0,0,0-3.486,16.248,126.447,126.447,0,0,0-1.164,17.3,127.512,127.512,0,0,0,1.164,17.407A110.279,110.279,0,0,0,319.9-80.257a114.646,114.646,0,0,0,5.608,15.011,106.386,106.386,0,0,0,7.515,13.687,109.538,109.538,0,0,0,9.354,12.37,112.605,112.605,0,0,0,11.112,11.03,123.644,123.644,0,0,0,26.8,17.559A144,144,0,0,0,412.134.371a165.968,165.968,0,0,0,35.76,3.771ZM-534.561-230.106h213.18v52.311H-473.12v30.641c2.947-.5,6.151-.949,9.558-1.342,4.323-.5,8.877-.921,13.534-1.253s9.413-.612,14.161-.833c4.766-.222,9.545-.334,14.2-.334,9.265,0,18.164.422,26.451,1.255a193.381,193.381,0,0,1,23.549,3.776,141.254,141.254,0,0,1,20.441,6.232,101.138,101.138,0,0,1,17.128,8.64,76.09,76.09,0,0,1,13.682,11.042,65.389,65.389,0,0,1,10.061,13.4,61.792,61.792,0,0,1,6.178,15.7,75.085,75.085,0,0,1,2.05,17.824,76.4,76.4,0,0,1-.825,11.281h66.435V2h-66.92V-58.912q-.267,1.4-.589,2.776a69.242,69.242,0,0,1-5.705,15.621A61.2,61.2,0,0,1-319.6-26.526a78.347,78.347,0,0,1-14.22,11.844,104.2,104.2,0,0,1-18.768,9.589,166.8,166.8,0,0,1-23.463,7.207A218.542,218.542,0,0,1-404.578,6.64c-10.336,1-21.725,1.5-33.852,1.5-11.18,0-21.988-.421-32.121-1.252s-19.739-1.98-28.549-3.42S-516.059.4-523.324-1.378s-13.685-3.641-19.036-5.536l-1.332-.472V-65.724l2.843,1.323c4.688,2.18,10.306,4.477,16.7,6.826a181.356,181.356,0,0,0,22.329,6.4A282.979,282.979,0,0,0-472.977-46.4a311.362,311.362,0,0,0,36.04,1.9,226.355,226.355,0,0,0,31.878-1.951c8.815-1.281,16.073-3.216,21.571-5.751,5.384-2.483,9.453-5.438,12.092-8.782a17.876,17.876,0,0,0,2.887-5.2,17.83,17.83,0,0,0,.958-5.865,22.2,22.2,0,0,0-1.066-6.973,19.7,19.7,0,0,0-3.181-5.93c-2.882-3.7-7.321-6.811-13.193-9.238a94.206,94.206,0,0,0-22.326-5.658,220.42,220.42,0,0,0-30.782-1.91c-7.774,0-15.517.277-23.014.825s-14.722,1.3-21.454,2.228-13.07,2.038-18.858,3.294-11.062,2.56-15.646,3.87l-.269.077h-17.222Zm209.18,4h-205.18V-95.467H-517.9c4.6-1.307,9.858-2.6,15.626-3.856,5.888-1.277,12.334-2.4,19.159-3.347s14.121-1.7,21.71-2.255,15.434-.835,23.3-.835a224.362,224.362,0,0,1,31.349,1.95,98.139,98.139,0,0,1,23.287,5.921,44.3,44.3,0,0,1,8.558,4.607,29.153,29.153,0,0,1,6.264,5.87,24.384,24.384,0,0,1,5.091,15.361c0,9.993-6.144,17.893-18.262,23.481-5.848,2.7-13.476,4.742-22.672,6.077A230.256,230.256,0,0,1-436.936-40.5a315.308,315.308,0,0,1-36.509-1.923,286.887,286.887,0,0,1-29.259-4.85,185.249,185.249,0,0,1-22.828-6.548c-5.255-1.931-10-3.831-14.161-5.666v49.266c4.948,1.691,10.765,3.357,17.317,4.957,7.166,1.75,15.214,3.36,23.92,4.783s18.2,2.562,28.229,3.384,20.723,1.238,31.8,1.238c12,0,23.259-.5,33.468-1.485a214.566,214.566,0,0,0,28-4.439,162.844,162.844,0,0,0,22.9-7.029,100.215,100.215,0,0,0,18.046-9.213,74.342,74.342,0,0,0,13.5-11.232,57.2,57.2,0,0,0,9.225-13.072,65.255,65.255,0,0,0,5.376-14.718,70.461,70.461,0,0,0,1.794-16,71.088,71.088,0,0,0-1.935-16.873,57.792,57.792,0,0,0-5.776-14.683,61.382,61.382,0,0,0-9.446-12.58,72.089,72.089,0,0,0-12.964-10.457,97.125,97.125,0,0,0-16.449-8.294,137.229,137.229,0,0,0-19.859-6.052,189.339,189.339,0,0,0-23.06-3.7c-8.154-.819-16.919-1.235-26.051-1.235-4.6,0-9.314.111-14.018.33s-9.446.5-14.062.827c-4.6.328-9.094.745-13.36,1.237-4.25.49-8.169,1.07-11.648,1.722l-2.369.444V-181.8h151.738Zm84.867,168.34h-58.92V-2h58.92Zm896.949-147.6h52.643v65.41h65.244V-87.48H709.077v65.41H656.435V-87.48H591.19v-52.476h65.244Zm48.643,4H660.435v65.41H595.19V-91.48h65.244v65.41h44.643V-91.48h65.244v-44.476H705.077Zm-806.1,14.1a87.109,87.109,0,0,1,14.444,1.19A82.387,82.387,0,0,1-72.795-182.5a71.766,71.766,0,0,1,12.7,5.935,69.177,69.177,0,0,1,11.135,8.249,66.266,66.266,0,0,1,9.309,10.485,73.619,73.619,0,0,1,7.19,12.586,67.445,67.445,0,0,1,4.621,14.714,87.058,87.058,0,0,1,1.531,16.654A87.058,87.058,0,0,1-27.84-97.225a67.444,67.444,0,0,1-4.621,14.714,72.911,72.911,0,0,1-7.192,12.568,65.229,65.229,0,0,1-9.313,10.426,70.6,70.6,0,0,1-11.128,8.2A73.926,73.926,0,0,1-72.783-45.35a81.24,81.24,0,0,1-13.788,3.638A85.626,85.626,0,0,1-101.02-40.5a86.384,86.384,0,0,1-14.489-1.211,83.309,83.309,0,0,1-13.906-3.636,74.2,74.2,0,0,1-12.818-5.973,69.7,69.7,0,0,1-11.175-8.2,66.019,66.019,0,0,1-9.331-10.422A74.054,74.054,0,0,1-169.992-82.5a66.812,66.812,0,0,1-4.687-14.718,85.934,85.934,0,0,1-1.553-16.659,85.935,85.935,0,0,1,1.553-16.659,66.813,66.813,0,0,1,4.687-14.718,74.8,74.8,0,0,1,7.251-12.581,67.087,67.087,0,0,1,9.327-10.481,68.31,68.31,0,0,1,11.181-8.252,72.081,72.081,0,0,1,12.829-5.935,84.5,84.5,0,0,1,13.9-3.571,87.831,87.831,0,0,1,14.484-1.195Zm0,142.774a81.631,81.631,0,0,0,13.773-1.154,77.237,77.237,0,0,0,13.107-3.459,69.925,69.925,0,0,0,12-5.648,66.609,66.609,0,0,0,10.5-7.736A61.218,61.218,0,0,0-42.9-72.283a68.9,68.9,0,0,0,6.8-11.878A63.445,63.445,0,0,0-31.763-98a83.059,83.059,0,0,0,1.457-15.886,83.059,83.059,0,0,0-1.457-15.886,63.445,63.445,0,0,0-4.343-13.84,69.632,69.632,0,0,0-6.8-11.9,62.259,62.259,0,0,0-8.745-9.852,65.168,65.168,0,0,0-10.489-7.771,67.757,67.757,0,0,0-11.993-5.6,78.359,78.359,0,0,0-13.112-3.4,83.075,83.075,0,0,0-13.779-1.134,83.848,83.848,0,0,0-13.822,1.135,80.489,80.489,0,0,0-13.242,3.4,68.049,68.049,0,0,0-12.115,5.6,64.306,64.306,0,0,0-10.525,7.768,63.074,63.074,0,0,0-8.769,9.856,70.8,70.8,0,0,0-6.86,11.907,62.8,62.8,0,0,0-4.4,13.836,81.924,81.924,0,0,0-1.477,15.88,81.923,81.923,0,0,0,1.477,15.88,62.8,62.8,0,0,0,4.4,13.836A70.051,70.051,0,0,0-159.5-72.287a62.014,62.014,0,0,0,8.764,9.79A65.684,65.684,0,0,0-140.2-54.764a70.2,70.2,0,0,0,12.126,5.648,79.313,79.313,0,0,0,13.237,3.461A82.37,82.37,0,0,0-101.02-44.5ZM173.437-187.274a87.109,87.109,0,0,1,14.444,1.19,82.39,82.39,0,0,1,13.783,3.574,71.768,71.768,0,0,1,12.7,5.935,69.175,69.175,0,0,1,11.135,8.249,66.267,66.267,0,0,1,9.309,10.485A73.644,73.644,0,0,1,242-145.254a67.445,67.445,0,0,1,4.621,14.714,87.06,87.06,0,0,1,1.531,16.654,87.059,87.059,0,0,1-1.531,16.654A67.444,67.444,0,0,1,242-82.519a72.9,72.9,0,0,1-7.192,12.568,65.21,65.21,0,0,1-9.313,10.426,70.6,70.6,0,0,1-11.128,8.2,73.926,73.926,0,0,1-12.691,5.973,81.24,81.24,0,0,1-13.788,3.638,85.625,85.625,0,0,1-14.45,1.212,86.381,86.381,0,0,1-14.489-1.211,83.31,83.31,0,0,1-13.906-3.636,74.2,74.2,0,0,1-12.818-5.973,69.7,69.7,0,0,1-11.175-8.2,66.019,66.019,0,0,1-9.331-10.422,74.055,74.055,0,0,1-7.253-12.563,66.813,66.813,0,0,1-4.687-14.718,85.933,85.933,0,0,1-1.553-16.659,85.933,85.933,0,0,1,1.553-16.659,66.813,66.813,0,0,1,4.687-14.718,74.8,74.8,0,0,1,7.251-12.581,67.085,67.085,0,0,1,9.327-10.481,68.311,68.311,0,0,1,11.181-8.252,72.08,72.08,0,0,1,12.829-5.935,84.5,84.5,0,0,1,13.9-3.571,87.83,87.83,0,0,1,14.483-1.193Zm0,142.774a81.63,81.63,0,0,0,13.773-1.154,77.236,77.236,0,0,0,13.107-3.459,69.923,69.923,0,0,0,12-5.648,66.609,66.609,0,0,0,10.5-7.736,61.208,61.208,0,0,0,8.741-9.786,68.9,68.9,0,0,0,6.795-11.878A63.443,63.443,0,0,0,242.694-98a83.059,83.059,0,0,0,1.457-15.886,83.057,83.057,0,0,0-1.457-15.886,63.444,63.444,0,0,0-4.343-13.84,69.615,69.615,0,0,0-6.8-11.9,62.257,62.257,0,0,0-8.745-9.852,65.168,65.168,0,0,0-10.489-7.771,67.757,67.757,0,0,0-11.993-5.6,78.359,78.359,0,0,0-13.112-3.4,83.071,83.071,0,0,0-13.779-1.134,83.849,83.849,0,0,0-13.822,1.135,80.49,80.49,0,0,0-13.242,3.4,68.05,68.05,0,0,0-12.115,5.6,64.307,64.307,0,0,0-10.525,7.768,63.073,63.073,0,0,0-8.769,9.856,70.8,70.8,0,0,0-6.86,11.91,62.8,62.8,0,0,0-4.4,13.836,81.921,81.921,0,0,0-1.477,15.88A81.922,81.922,0,0,0,103.7-98a62.8,62.8,0,0,0,4.4,13.836,70.051,70.051,0,0,0,6.858,11.883,62.015,62.015,0,0,0,8.764,9.79,65.684,65.684,0,0,0,10.532,7.733,70.2,70.2,0,0,0,12.126,5.648,79.315,79.315,0,0,0,13.237,3.461,82.369,82.369,0,0,0,13.82,1.153ZM447.894-187.274a87.107,87.107,0,0,1,14.444,1.19,82.389,82.389,0,0,1,13.783,3.574,71.768,71.768,0,0,1,12.7,5.935,69.176,69.176,0,0,1,11.135,8.249,66.264,66.264,0,0,1,9.309,10.485,73.618,73.618,0,0,1,7.19,12.586,67.444,67.444,0,0,1,4.621,14.714,87.058,87.058,0,0,1,1.531,16.654,87.063,87.063,0,0,1-1.531,16.654,67.441,67.441,0,0,1-4.621,14.714,72.915,72.915,0,0,1-7.192,12.568,65.231,65.231,0,0,1-9.313,10.426,70.6,70.6,0,0,1-11.128,8.2,73.928,73.928,0,0,1-12.691,5.973,81.242,81.242,0,0,1-13.788,3.638,85.625,85.625,0,0,1-14.45,1.212A86.382,86.382,0,0,1,433.4-41.711a83.309,83.309,0,0,1-13.9-3.637,74.2,74.2,0,0,1-12.82-5.972,69.7,69.7,0,0,1-11.175-8.2,66.021,66.021,0,0,1-9.331-10.422A74.054,74.054,0,0,1,378.921-82.5a66.808,66.808,0,0,1-4.687-14.718,85.943,85.943,0,0,1-1.553-16.659,85.941,85.941,0,0,1,1.553-16.659,66.807,66.807,0,0,1,4.687-14.718,74.79,74.79,0,0,1,7.251-12.581,67.083,67.083,0,0,1,9.327-10.481,68.308,68.308,0,0,1,11.181-8.252,72.082,72.082,0,0,1,12.829-5.935,84.5,84.5,0,0,1,13.9-3.571,87.831,87.831,0,0,1,14.485-1.2Zm0,142.774a81.631,81.631,0,0,0,13.773-1.154,77.237,77.237,0,0,0,13.107-3.459,69.925,69.925,0,0,0,12-5.648,66.61,66.61,0,0,0,10.5-7.736,61.218,61.218,0,0,0,8.741-9.786,68.9,68.9,0,0,0,6.795-11.878A63.44,63.44,0,0,0,517.151-98a83.063,83.063,0,0,0,1.457-15.886,83.054,83.054,0,0,0-1.457-15.886,63.441,63.441,0,0,0-4.343-13.84,69.626,69.626,0,0,0-6.8-11.9,62.261,62.261,0,0,0-8.745-9.852,65.165,65.165,0,0,0-10.489-7.771,67.756,67.756,0,0,0-11.993-5.6,78.356,78.356,0,0,0-13.112-3.4,83.075,83.075,0,0,0-13.779-1.134,83.847,83.847,0,0,0-13.822,1.135,80.493,80.493,0,0,0-13.242,3.4,68.05,68.05,0,0,0-12.115,5.6,64.306,64.306,0,0,0-10.525,7.768,63.071,63.071,0,0,0-8.769,9.856,70.794,70.794,0,0,0-6.86,11.907,62.787,62.787,0,0,0-4.4,13.836,81.936,81.936,0,0,0-1.477,15.88,81.937,81.937,0,0,0,1.477,15.88,62.79,62.79,0,0,0,4.4,13.836,70.053,70.053,0,0,0,6.858,11.883,62.016,62.016,0,0,0,8.764,9.79,65.683,65.683,0,0,0,10.532,7.733,70.207,70.207,0,0,0,12.126,5.648,79.315,79.315,0,0,0,13.237,3.461,82.371,82.371,0,0,0,13.82,1.156Z" transform="translate(784.12 235.918)" fill="url(#linear-gradient-35k-desktop)"/>
</svg>
