<svg id="ios" xmlns="http://www.w3.org/2000/svg" xmlns:xlink="http://www.w3.org/1999/xlink" width="162" height="48" viewBox="0 0 162 48">
  <defs>
    <linearGradient id="linear-gradient-ios" x1="-1.199" y1="2.436" x2="-1.199" y2="1.535" gradientUnits="objectBoundingBox">
      <stop offset="0" stop-color="#1a1a1a" stop-opacity="0.102"/>
      <stop offset="0.123" stop-color="#212121" stop-opacity="0.153"/>
      <stop offset="0.308" stop-color="#353535" stop-opacity="0.227"/>
      <stop offset="0.532" stop-color="#575757" stop-opacity="0.318"/>
      <stop offset="0.783" stop-color="#858585" stop-opacity="0.42"/>
      <stop offset="1" stop-color="#b3b3b3" stop-opacity="0.51"/>
    </linearGradient>
  </defs>
  <path id="Path_65015" data-name="Path 65015" d="M163.419,44.826a4.6,4.6,0,0,1-4.6,4.6H8.171a4.6,4.6,0,0,1-4.609-4.6V8.164a4.61,4.61,0,0,1,4.609-4.6H158.814a4.6,4.6,0,0,1,4.6,4.6V44.826Z" transform="translate(-2.493 -2.493)" fill="#fff"/>
  <path id="Path_65016" data-name="Path 65016" d="M156.322,48H5.678A5.678,5.678,0,0,1,0,42.334V5.673A5.682,5.682,0,0,1,5.678,0H156.321A5.684,5.684,0,0,1,162,5.673v36.66A5.678,5.678,0,0,1,156.322,48Z" fill="#a6a6a6"/>
  <path id="Path_65017" data-name="Path 65017" d="M163.419,44.826a4.6,4.6,0,0,1-4.6,4.6H8.171a4.6,4.6,0,0,1-4.609-4.6V8.164a4.61,4.61,0,0,1,4.609-4.6H158.814a4.6,4.6,0,0,1,4.6,4.6V44.826Z" transform="translate(-2.493 -2.493)"/>
  <path id="Path_65018" data-name="Path 65018" d="M72.01,41.16a6.958,6.958,0,0,1,3.315-5.838,7.129,7.129,0,0,0-5.614-3.034c-2.362-.248-4.653,1.413-5.856,1.413-1.227,0-3.08-1.389-5.076-1.348a7.475,7.475,0,0,0-6.291,3.836C49.767,40.9,51.8,47.817,54.4,51.623c1.3,1.865,2.828,3.945,4.822,3.872,1.951-.079,2.68-1.242,5.034-1.242,2.333,0,3.017,1.242,5.051,1.2,2.094-.032,3.412-1.873,4.671-3.753a15.385,15.385,0,0,0,2.136-4.349A6.732,6.732,0,0,1,72.01,41.16ZM68.168,29.783a6.848,6.848,0,0,0,1.568-4.908,6.979,6.979,0,0,0-4.512,2.333,6.517,6.517,0,0,0-1.609,4.727A5.765,5.765,0,0,0,68.168,29.783Z" transform="translate(-35.837 -17.412)" fill="#fff"/>
  <path id="Path_65019" data-name="Path 65019" d="M332.8,0h-80.69l31.6,48H332.8a5.682,5.682,0,0,0,5.678-5.67V5.673A5.683,5.683,0,0,0,332.8,0Z" transform="translate(-176.476)" fill="url(#linear-gradient-ios)"/>
  <g id="Group_74693" data-name="Group 74693" transform="translate(50.944 21.605)">
    <path id="Path_65020" data-name="Path 65020" d="M183.3,88.226h-2.727l-1.494-4.692h-5.192l-1.423,4.692h-2.655l5.145-15.974h3.177Zm-4.671-6.661-1.351-4.171q-.214-.639-.806-3.009h-.048q-.238,1.019-.759,3.009l-1.328,4.171Zm17.875.76a6.521,6.521,0,0,1-1.6,4.644,4.683,4.683,0,0,1-3.552,1.517,3.555,3.555,0,0,1-3.29-1.634V92.9h-2.56v-12.4q0-1.845-.095-3.786h2.251l.143,1.826h.048a4.554,4.554,0,0,1,7.289-.453A6.368,6.368,0,0,1,196.506,82.325Zm-2.608.094a4.748,4.748,0,0,0-.759-2.774,2.623,2.623,0,0,0-2.228-1.137,2.662,2.662,0,0,0-1.718.628,2.912,2.912,0,0,0-1.007,1.648,3.341,3.341,0,0,0-.119.779v1.922a3.081,3.081,0,0,0,.771,2.122,2.559,2.559,0,0,0,2,.865,2.624,2.624,0,0,0,2.251-1.114A4.9,4.9,0,0,0,193.9,82.419Zm15.859-.094a6.521,6.521,0,0,1-1.6,4.644,4.685,4.685,0,0,1-3.553,1.517,3.555,3.555,0,0,1-3.29-1.634V92.9h-2.56v-12.4q0-1.845-.095-3.786h2.251l.143,1.826h.048a4.556,4.556,0,0,1,7.29-.453A6.375,6.375,0,0,1,209.757,82.325Zm-2.609.094a4.748,4.748,0,0,0-.76-2.774,2.619,2.619,0,0,0-2.226-1.137,2.673,2.673,0,0,0-1.721.628,2.91,2.91,0,0,0-1.006,1.648,3.418,3.418,0,0,0-.12.779v1.922a3.092,3.092,0,0,0,.77,2.122,2.565,2.565,0,0,0,2.005.865,2.621,2.621,0,0,0,2.251-1.114A4.9,4.9,0,0,0,207.148,82.419Zm17.425,1.326a4.266,4.266,0,0,1-1.42,3.319,6.3,6.3,0,0,1-4.352,1.4,7.6,7.6,0,0,1-4.137-1l.592-2.133a7.123,7.123,0,0,0,3.7,1,3.49,3.49,0,0,0,2.251-.652,2.129,2.129,0,0,0,.808-1.74,2.23,2.23,0,0,0-.665-1.636,6.167,6.167,0,0,0-2.2-1.232q-4.2-1.565-4.2-4.576a4.04,4.04,0,0,1,1.482-3.223,5.86,5.86,0,0,1,3.924-1.257,7.755,7.755,0,0,1,3.627.759l-.642,2.086a6.343,6.343,0,0,0-3.07-.735,3.123,3.123,0,0,0-2.118.664,1.9,1.9,0,0,0-.642,1.448,1.956,1.956,0,0,0,.736,1.564,8.292,8.292,0,0,0,2.322,1.232,7.872,7.872,0,0,1,3.034,1.942,4.047,4.047,0,0,1,.976,2.77Zm8.485-5.117h-2.822v5.592q0,2.134,1.494,2.132a4.5,4.5,0,0,0,1.137-.119l.071,1.943a5.8,5.8,0,0,1-1.991.283,3.068,3.068,0,0,1-2.371-.925,4.537,4.537,0,0,1-.854-3.105V78.624h-1.681V76.7h1.681V74.594l2.514-.759V76.7h2.822Zm12.705,3.744a6.318,6.318,0,0,1-1.518,4.361,5.41,5.41,0,0,1-4.219,1.754,5.157,5.157,0,0,1-4.043-1.68,6.126,6.126,0,0,1-1.506-4.242,6.266,6.266,0,0,1,1.552-4.384,5.382,5.382,0,0,1,4.185-1.707,5.266,5.266,0,0,1,4.076,1.683,6.046,6.046,0,0,1,1.471,4.216Zm-2.653.059a5.157,5.157,0,0,0-.686-2.718,2.534,2.534,0,0,0-2.3-1.372,2.571,2.571,0,0,0-2.347,1.372,5.242,5.242,0,0,0-.687,2.766,5.142,5.142,0,0,0,.687,2.719,2.625,2.625,0,0,0,4.626-.023A5.177,5.177,0,0,0,243.11,82.431Zm10.978-3.473a4.455,4.455,0,0,0-.807-.071,2.416,2.416,0,0,0-2.087,1.02,3.842,3.842,0,0,0-.639,2.275v6.044H248V80.335q0-1.814-.074-3.626h2.23l.094,2.2h.071a3.951,3.951,0,0,1,1.28-1.826,3.1,3.1,0,0,1,1.85-.617,4.111,4.111,0,0,1,.64.047Zm11.448,2.964a6,6,0,0,1-.094,1.161h-7.679a3.34,3.34,0,0,0,1.114,2.61,3.81,3.81,0,0,0,2.512.8,8.5,8.5,0,0,0,3.107-.544l.4,1.775a9.609,9.609,0,0,1-3.863.712,5.6,5.6,0,0,1-4.209-1.575,5.822,5.822,0,0,1-1.528-4.23,6.6,6.6,0,0,1,1.424-4.336,4.906,4.906,0,0,1,4.028-1.847A4.294,4.294,0,0,1,264.52,78.3,6.215,6.215,0,0,1,265.536,81.922Zm-2.441-.664a3.464,3.464,0,0,0-.5-1.967,2.235,2.235,0,0,0-2.039-1.068,2.427,2.427,0,0,0-2.038,1.043,3.822,3.822,0,0,0-.758,1.99Z" transform="translate(-169.812 -72.016)" fill="#fff"/>
  </g>
  <g id="Group_74694" data-name="Group 74694" transform="translate(52.442 7.866)">
    <path id="Path_65021" data-name="Path 65021" d="M176.647,34.547a16.349,16.349,0,0,1-1.841-.094V26.731a13.938,13.938,0,0,1,2.167-.163c2.936,0,4.288,1.444,4.288,3.8C181.261,33.08,179.664,34.547,176.647,34.547Zm.43-6.99a5.137,5.137,0,0,0-1.013.082V33.51a6.645,6.645,0,0,0,.85.035c1.923,0,3.018-1.095,3.018-3.145A2.562,2.562,0,0,0,177.077,27.558Zm8.4,7.048a2.7,2.7,0,0,1-2.727-2.912,2.757,2.757,0,0,1,2.82-2.994,2.673,2.673,0,0,1,2.727,2.9A2.774,2.774,0,0,1,185.474,34.606Zm.048-4.986c-.909,0-1.491.85-1.491,2.038,0,1.166.594,2.015,1.479,2.015s1.479-.909,1.479-2.039C186.989,30.482,186.407,29.62,185.522,29.62Zm12.207-.8-1.771,5.661H194.8l-.734-2.458a18.634,18.634,0,0,1-.455-1.828h-.024a12.252,12.252,0,0,1-.454,1.828l-.78,2.458h-1.166l-1.666-5.661h1.293l.641,2.691q.227.961.384,1.817h.024c.092-.477.244-1.072.466-1.805l.8-2.7h1.025l.77,2.644c.186.641.337,1.27.455,1.864h.034a16.288,16.288,0,0,1,.384-1.864l.688-2.644h1.235Zm6.52,5.661H202.99v-3.25c0-1-.384-1.5-1.142-1.5a1.307,1.307,0,0,0-1.258,1.386v3.367h-1.258V30.435c0-.5-.012-1.037-.047-1.619h1.107l.059.874h.035a2.034,2.034,0,0,1,1.795-.989c1.189,0,1.969.909,1.969,2.387v3.39Zm3.47,0h-1.259V26.219h1.259Zm4.588.128a2.7,2.7,0,0,1-2.727-2.912A2.757,2.757,0,0,1,212.4,28.7a2.673,2.673,0,0,1,2.727,2.9A2.773,2.773,0,0,1,212.306,34.606Zm.047-4.986c-.909,0-1.491.85-1.491,2.038,0,1.166.6,2.015,1.478,2.015s1.479-.909,1.479-2.039c0-1.152-.58-2.014-1.466-2.014Zm7.733,4.858L220,33.826h-.034a1.933,1.933,0,0,1-1.656.78,1.646,1.646,0,0,1-1.735-1.666c0-1.4,1.211-2.12,3.309-2.12v-.1c0-.745-.4-1.119-1.175-1.119a2.65,2.65,0,0,0-1.479.42l-.256-.827a3.62,3.62,0,0,1,1.944-.49c1.479,0,2.226.78,2.226,2.342v2.085a8.548,8.548,0,0,0,.082,1.352h-1.135Zm-.173-2.82c-1.4,0-2.1.338-2.1,1.142a.8.8,0,0,0,.863.885,1.2,1.2,0,0,0,1.235-1.152Zm7.336,2.82-.059-.909h-.035a1.9,1.9,0,0,1-1.818,1.037c-1.365,0-2.376-1.2-2.376-2.889,0-1.77,1.048-3.018,2.479-3.018a1.7,1.7,0,0,1,1.6.769h.025V26.219h1.259v6.733c0,.547.013,1.06.047,1.526h-1.12Zm-.186-3.331a1.369,1.369,0,0,0-1.326-1.468c-.933,0-1.5.827-1.5,1.991,0,1.142.592,1.923,1.478,1.923a1.413,1.413,0,0,0,1.351-1.5v-.943Zm9.245,3.459a2.694,2.694,0,0,1-2.725-2.912A2.757,2.757,0,0,1,236.4,28.7a2.673,2.673,0,0,1,2.727,2.9,2.772,2.772,0,0,1-2.82,3Zm.047-4.986c-.908,0-1.49.85-1.49,2.038,0,1.166.594,2.015,1.478,2.015s1.479-.909,1.479-2.039c0-1.152-.58-2.014-1.467-2.014Zm9.54,4.858h-1.259v-3.25c0-1-.384-1.5-1.142-1.5a1.306,1.306,0,0,0-1.257,1.386v3.367h-1.259V30.435c0-.5-.012-1.037-.047-1.619h1.107l.059.874h.035a2.033,2.033,0,0,1,1.794-.99c1.189,0,1.97.909,1.97,2.387Zm8.466-4.717h-1.384v2.749c0,.7.243,1.049.732,1.049a2.479,2.479,0,0,0,.558-.059l.035.955a2.788,2.788,0,0,1-.976.14c-.992,0-1.585-.547-1.585-1.981V29.76h-.826v-.943h.826V27.78l1.235-.373v1.409h1.384Zm6.661,4.717h-1.257V31.251c0-1.013-.383-1.526-1.142-1.526a1.234,1.234,0,0,0-1.26,1.34v3.413h-1.257V26.219h1.257v3.4h.025a1.909,1.909,0,0,1,1.7-.921c1.2,0,1.931.931,1.931,2.411Zm6.824-2.528h-3.776a1.625,1.625,0,0,0,1.784,1.677,4.253,4.253,0,0,0,1.526-.268l.2.874a4.728,4.728,0,0,1-1.9.349,2.628,2.628,0,0,1-2.819-2.853,2.765,2.765,0,0,1,2.677-3.04c1.447,0,2.354,1.072,2.354,2.691A2.426,2.426,0,0,1,267.847,31.95Zm-1.154-.9c0-.874-.441-1.491-1.245-1.491a1.492,1.492,0,0,0-1.376,1.491Z" transform="translate(-174.806 -26.219)" fill="#fff"/>
  </g>
</svg>
