<svg xmlns="http://www.w3.org/2000/svg" width="51" height="56" viewBox="0 0 51 56">
  <g id="BABENA" transform="translate(338.13 -333.955)">
    <g id="Group_71540" data-name="Group 71540" transform="translate(-309.589 333.955)">
      <path id="Path_64990" data-name="Path 64990" d="M-194.71,381.819s2.35-.385,2.729-4.308c.076-.077,1.289-2.308,2.956-.308.607.846.3,3.923-.455,4.846s-2.578,3.385-5,3.462C-194.558,385.511-194.71,381.819-194.71,381.819Z" transform="translate(211.161 -362.87)" fill="#fff"/>
      <g id="Group_71539" data-name="Group 71539" transform="translate(3.137 0)">
        <path id="Path_64991" data-name="Path 64991" d="M-221.407,338.765c-.3-.2-3.551-1-3.551-1-2.072-2.3-5.821-1.7-5.821-1.7a6.032,6.032,0,0,0-4.538-2.1l-.325,4.022c-2.1.418-1.549,4.287-1.056,5.488s3.848,4,4.341,4.3,1.579.1,4.933-.2a4.4,4.4,0,0,0,3.847-3.7s1.874-2.8,2.368-3.6A1.014,1.014,0,0,0-221.407,338.765Zm-13.385-4.262a2.64,2.64,0,0,1,1.313.593,1.725,1.725,0,0,1,.687,1.161,4.055,4.055,0,0,1-.005,1.492l-.146-.059a2.774,2.774,0,0,0,.037-.829c-.195.105-.653.234-.807.345-.2.143-.7.143-.7,0a1.292,1.292,0,0,1,.735-1.256c-.525-.513-.874-.207-.878-.2l-.105-.118s.485-.426,1.138.254a1.754,1.754,0,0,1,.424-.1,1.829,1.829,0,0,0-.473-.562,2.673,2.673,0,0,0-1.177-.56,15.515,15.515,0,0,0-.174,2.973h-.157C-235.085,334.54-234.864,334.512-234.792,334.5Zm1.093,6.7c-.586-.227-.4-1.311-.338-1.6a1.616,1.616,0,0,0-.565-.161c-.012.224,0,.982.011,1.472.063.137.593,1.246,1.286,1.246v.159c-.837,0-1.411-1.3-1.435-1.354l-.007-.03c-.039-1.572-.006-1.6.023-1.634l.025-.025.035,0a2.209,2.209,0,0,1,1.813,1.556l0,.023v1.845H-233v-1.23Zm-.695,3.884a1.576,1.576,0,0,1-.771-.409l.111-.112a1.444,1.444,0,0,0,.685.364Zm.065-.615a1.823,1.823,0,0,1-1.277-.772l.128-.093a1.7,1.7,0,0,0,1.15.705Zm3.26.433c-.183.255-1.062.279-1.468.277v1.1a3.589,3.589,0,0,0,1.233.577l-.043.153a3.348,3.348,0,0,1-1.356-.683h-.035v-.005c-1.428-.022-1.483-.634-1.484-.66l.156-.011c0,.005.065.493,1.328.512v-.988h-.006a6.443,6.443,0,0,1-.807-1.062c0-.152.688-.03,1.375.212S-230.9,344.674-231.069,344.907Zm2.354,2.088a8.111,8.111,0,0,1-1.714-.221l.038-.154a7.955,7.955,0,0,0,1.676.216Zm0-.492a8.09,8.09,0,0,1-1.714-.221l.038-.154a7.932,7.932,0,0,0,1.676.216Zm3.382-4.028c-.124-.032-.243-.06-.361-.085a1.744,1.744,0,0,1-1.855,1.778,2.442,2.442,0,0,1-2.042-.914,1.618,1.618,0,0,0-.231.435l-.15-.047c.007-.024.749-2.329,4.677-1.322Zm2.024.156-.157-.006c.013-.32.022-.666.021-.859a.859.859,0,0,1-.412.017l.027-.157c.157.028.35.016.366-.04l.019-.068.077-.005C-223.282,341.526-223.264,341.529-223.309,342.631Zm.538-.507-.133-.084c.512-.835,1.254-2.055,1.458-2.418a5.526,5.526,0,0,0-1.865.261c.031.184.209,1.407-.623,1.486-.022.045-.01-.818,0-1.2a1.584,1.584,0,0,0-.492.437l-.135-.08c.026-.046.669-1.118,3.226-1.067l.035-.018.041.044C-221.207,339.55-221.2,339.559-222.771,342.123Z" transform="translate(237.152 -333.955)" fill="#fff"/>
        <path id="Path_64992" data-name="Path 64992" d="M-212.245,360.467a2.239,2.239,0,0,0-.476.419,2.286,2.286,0,0,0,1.94.884,1.6,1.6,0,0,0,1.7-1.65,7.5,7.5,0,0,0-.743-.111,1.441,1.441,0,0,1-1.121,1.047A1.517,1.517,0,0,1-212.245,360.467Z" transform="translate(220.385 -351.715)" fill="#fff"/>
      </g>
      <path id="Path_64993" data-name="Path 64993" d="M-244.386,361.434s-.308-2.942.509-3.745a8.394,8.394,0,0,1-.449-2.951c-1.059.063-2.879.59-2.825,3.487.076,4.077.985,5.077,1.364,5.231a.7.7,0,0,0,.7-.154,1.187,1.187,0,0,0,.674-.158,1.087,1.087,0,0,0,.311-.553s.467.158.57-.211S-243.5,361.407-244.386,361.434Z" transform="translate(247.152 -348.122)" fill="#fff"/>
      <path id="Path_64994" data-name="Path 64994" d="M-204.439,372.169v3.154s-.311.974-.363,1.237a1.161,1.161,0,0,0-.882,1.079.476.476,0,0,0,.544.448s-.181.658.96.658c0,0-.078.474.389.474s1.867-2.237,2.152-4.421c.245-1.877.448-3.345-.568-4.74A4.428,4.428,0,0,1-204.439,372.169Z" transform="translate(218.692 -358.565)" fill="#fff"/>
      <path id="Path_64995" data-name="Path 64995" d="M-225.789,353.455l-.012,0a.311.311,0,0,0-.321.3.311.311,0,0,0,.321.3.321.321,0,0,0,.262-.136A1.31,1.31,0,0,0-225.789,353.455Z" transform="translate(232.719 -347.246)" fill="#fff"/>
      <path id="Path_64996" data-name="Path 64996" d="M-206.577,359.986a.28.28,0,0,0-.061.165.31.31,0,0,0,.321.3.31.31,0,0,0,.32-.3.284.284,0,0,0-.079-.191C-206.22,359.962-206.39,359.969-206.577,359.986Z" transform="translate(219.347 -351.683)" fill="#fff"/>
    </g>
    <g id="Group_71541" data-name="Group 71541" transform="translate(-338.13 339.969)">
      <path id="Path_64997" data-name="Path 64997" d="M-224.574,356.224l.045.018v-.034C-224.544,356.212-224.559,356.22-224.574,356.224Z" transform="translate(260.197 -355.137)" fill="#fff"/>
      <path id="Path_64998" data-name="Path 64998" d="M-223.8,366.865c.11.137.238.29.364.434h.116a5.5,5.5,0,0,0,.778-.047l-.116-.037c-.141-.045-.3-.094-.457-.151A6.145,6.145,0,0,0-223.8,366.865Z" transform="translate(259.665 -362.403)" fill="#fff"/>
      <path id="Path_64999" data-name="Path 64999" d="M-226.406,352.871l.015-.012-.013-.012C-226.4,352.855-226.405,352.863-226.406,352.871Z" transform="translate(261.455 -352.847)" fill="#fff"/>
      <path id="Path_65000" data-name="Path 65000" d="M-209.874,360.876a1.127,1.127,0,0,0,.707.315.744.744,0,0,0,.123-.01,1.013,1.013,0,0,0,.154-.043.614.614,0,0,1-.281-.485A2.986,2.986,0,0,0-209.874,360.876Z" transform="translate(250.109 -358.168)" fill="#fff"/>
      <path id="Path_65001" data-name="Path 65001" d="M-292.9,373.906h-.01c-.352,0-.376,0-.511-3.257-.437.753-.907,1.269-1.266,1.269a.678.678,0,0,1-.547-.234.686.686,0,0,1-.132-.255,1.151,1.151,0,0,1-.841-.4.758.758,0,0,1-.13-.275.742.742,0,0,1-.557-.718,1.453,1.453,0,0,1,.932-1.342c.087-.327.257-.865.312-1.04V364.67a4.754,4.754,0,0,1-1.048.213c-.717.064-1.33.124-1.856.175-1.084.105-1.8.175-2.3.175h0a1.8,1.8,0,0,1-.964-.194,21.77,21.77,0,0,1-4.347-4.212,6.159,6.159,0,0,0-.369,3.127,1.031,1.031,0,0,1,.728.391,1.1,1.1,0,0,1,.141.948.642.642,0,0,1-.656.475h0a1.179,1.179,0,0,1-.331.452,1.322,1.322,0,0,1-.761.225,1.044,1.044,0,0,1-.588.2.887.887,0,0,1-.335-.066c-.345-.14-1.477-.952-1.562-5.52a4.5,4.5,0,0,1,.431-2.174,2.523,2.523,0,0,1-.478.055A34.638,34.638,0,0,0-323.18,361.6c-5.248,2.244-10.048,5.16-13.007,10.357-1.914,3.362-2.619,6.92-1.178,10.674.764,1.99,3.186,3.752,5.416,3.11a6.182,6.182,0,0,0,4.567-6.246,10.981,10.981,0,0,1,3.675-8.289,19.265,19.265,0,0,1,11.593-5.407c1.188-.125,2.675-.708,3.607.82.167.273.567.205.878.1a2.228,2.228,0,0,1,2.458.939c1.882,2.03,2,4.55,1.475,7.026-.849,4.037-3.681,6.364-7.317,7.824a43.544,43.544,0,0,1-4.956,1.408,3.072,3.072,0,0,0-2.32,1.8,2.661,2.661,0,0,0,1.981,3.45,10.9,10.9,0,0,1,5.3,3.3c2.264,2.564,2.1,6.135-.585,7.545a7.007,7.007,0,0,1-10.123-4.048,4.55,4.55,0,0,1-.392-3.107,115.027,115.027,0,0,1,4.856-12.447c1.1-2.36,2.374-4.63,3.629-6.91a1.842,1.842,0,0,0-.844-2.878c-2.946-1.557-8.454-.548-9.785,3.413-1.659,4.936-3.437,9.835-4.874,14.84-1.282,4.466-2.627,8.943-2.38,13.7a5.628,5.628,0,0,0,.74,2.587,3.405,3.405,0,0,0,3.846,1.563c1.549-.441,2.095-1.237,2.145-3.084.007-.255-.122-.558.211-.8a12.489,12.489,0,0,0,5.765,3.452,20.649,20.649,0,0,0,14.914-1.727c6.082-3.24,6.945-9.819,1.968-14.468a14.34,14.34,0,0,0-5.543-3.1,23.621,23.621,0,0,0,7.047-2.473,14.083,14.083,0,0,0,7.05-8.035S-292.95,374.378-292.9,373.906Z" transform="translate(338.13 -356.961)" fill="#fff"/>
    </g>
  </g>
</svg>
