<svg xmlns="http://www.w3.org/2000/svg" width="61" height="56" viewBox="0 0 61 56">
  <g id="GALLINAS" transform="translate(442.312 -304.473)">
    <path id="Path_64978" data-name="Path 64978" d="M-357.487,419.754c.341-.486.722-.36,1.091-.053a8.833,8.833,0,0,0,5.767,1.858,6.371,6.371,0,0,0,4.034-1.753,18.943,18.943,0,0,0,6.58-8.937,1.3,1.3,0,0,1,.5-.677,10.217,10.217,0,0,1-4.188,12.937c-.525.3-1.052.591-1.578.887a1.905,1.905,0,0,1-1.529.431,10.3,10.3,0,0,1-7.61-1.493A9.833,9.833,0,0,1-357.487,419.754Z" transform="translate(-64.693 -80.32)" fill="#fff"/>
    <path id="Path_64979" data-name="Path 64979" d="M-381.581,331.038c-.784-3.834-3.25-6.32-6.384-8.24a40.586,40.586,0,0,0-7.609-3.327,32.666,32.666,0,0,1-8.832-4.3c-2.23-1.676-3.629-4.1-5.428-6.164-3.114-3.571-7.041-5.156-11.681-4.3a12.05,12.05,0,0,0-9.566,8.207c-1.07,2.886-1.594,5.95-2.847,8.774a10.126,10.126,0,0,1-4.741,5.166,6.547,6.547,0,0,0-3.566,7.055,14.177,14.177,0,0,0,5.684,9.507,20.913,20.913,0,0,1,7.386,10.16c1.583,4.733,5.267,6.652,10.414,6.906.742-.123,1.926-.251,3.076-.525,4.076-.97,7.389-3.393,10.623-5.908,3.736-2.906,7.451-5.812,11.975-7.421a40.793,40.793,0,0,0,5.16-2.12A12.151,12.151,0,0,0-381.581,331.038Zm-26.256,22.283a3.212,3.212,0,0,1-.563.437,21.1,21.1,0,0,0-2.259,1.7c-1.769,1.459-3.923,2.076-6,2.867a.56.56,0,0,0-.174.1.243.243,0,0,1-.316.051.731.731,0,0,0-.417-.092,9.493,9.493,0,0,1-5.194-1.047c-2.295-1.335-3.128-3.589-3.786-5.964a.762.762,0,0,1,.422-1,.834.834,0,0,1,1.03.378,5.5,5.5,0,0,1,.654,1.131c1.086,2.748,3.245,3.882,6,4.086a10.438,10.438,0,0,0,7.564-2.368.651.651,0,0,1,.063-.045c1.118-.69,1.318-.741,1.954-1.165l.17-.113A.679.679,0,0,1-407.837,353.321Zm-.083-9.891c-.582.33-1.167.656-1.75.984a2.113,2.113,0,0,1-1.7.478,11.423,11.423,0,0,1-8.438-1.655,10.9,10.9,0,0,1-3.4-3.548,7.792,7.792,0,0,1-1.429-2.445c-1.223-2-1.037-4.1-.413-6.232A15.831,15.831,0,0,1-421.3,325c5.409-5.066,14.922-3.208,17.854,3.516a4.808,4.808,0,0,1,.171.569C-400.846,334.013-402.992,340.641-407.92,343.431Zm20.637-1.486c-.391.338-.774.685-1.159,1.029a1.827,1.827,0,0,1-2.478.273,2.074,2.074,0,0,1,1-1.254,7.232,7.232,0,0,0,2.8-4.268,9.435,9.435,0,0,0,.244-7.77c-.893-2.636-3.232-3.955-5.076-5.725-.142-.136-.333-.218-.483-.346-.289-.245-.777-.443-.522-.93.225-.431.689-.281,1.076-.224a6.109,6.109,0,0,1,2.425,1.217,14.534,14.534,0,0,1,4.2,4A10.817,10.817,0,0,1-387.283,341.945Z" fill="#fff"/>
    <path id="Path_64980" data-name="Path 64980" d="M-353.816,388.73a.635.635,0,0,1-.482.489c-2.56.819-4.025,2.8-5.243,5.042-.143.264-.266.678-.663.522-.44-.173-.142-.526-.079-.815a7.115,7.115,0,0,1,4.146-5.291,3.9,3.9,0,0,1,1.714-.377C-354.146,388.307-353.875,388.392-353.816,388.73Z" transform="translate(-62.44 -63.687)" fill="#fff"/>
  </g>
</svg>
