<svg xmlns="http://www.w3.org/2000/svg" width="129" height="56" viewBox="0 0 129 56">
  <g id="KADENA_BULLS" data-name="KADENA BULLS" transform="translate(1166.868 -1493.709)">
    <g id="Group_71535" data-name="Group 71535" transform="translate(-1166.868 1516.681)">
      <path id="Path_64981" data-name="Path 64981" d="M-786.146,1633.524a8.55,8.55,0,0,1-2.422,4.686c-1.519,1.806-3.061,3.605-4.41,5.537-1.887,2.7-4.541,3.656-7.625,3.756a23.015,23.015,0,0,1-10.5-2.158c-.313-.145-.625-.292-.941-.431a.594.594,0,0,0-.2,0c-.047.058-.133.121-.159.2-.534,1.7-1.7,2.071-3.395,2.036-5.367-.11-10.737-.041-16.106-.041-2.019,0-2.044-.022-2.4-2.025-.032-.183-.077-.363-.127-.591a.955.955,0,0,0-.12.209c-.421,2.239-.17,2.431-3.09,2.415-5.432-.029-10.863-.008-16.3-.009-1.79,0-1.99-.2-2.135-1.957-.162-1.95-.464-3.895-.5-5.846-.052-2.614.053-5.234.156-7.849.2-4.984.429-9.966.665-14.947.066-1.394.356-1.649,1.714-1.653,1.853-.006,3.705-.012,5.557,0,1.106.01,1.459.371,1.476,1.484q.1,6.533.19,13.067c.005.375,0,.75,0,1.2h10.76c-.08-.8-.109-1.61-.248-2.4a16.763,16.763,0,0,1,.017-6.292c.39-1.946.644-3.919.937-5.884a1.21,1.21,0,0,1,1.326-1.174c2.041,0,4.082,0,6.122,0,.919,0,1.22.581,1.376,1.371q1.336,6.773,2.7,13.539c.055.276.122.551.192.865h6.355a7.122,7.122,0,0,1,.573-4.547c.954-2.3,1.9-4.6,2.712-6.95a6.092,6.092,0,0,1,4.807-4.177A22.261,22.261,0,0,1-797.066,1616a26.986,26.986,0,0,1,2.513,1.054,1.19,1.19,0,0,1,.681,1.7c-.6,1.487-1.189,2.977-1.806,4.523.815.321,1.7.62,2.547,1.01,3.779,1.743,6.319,4.479,6.871,8.783a1.015,1.015,0,0,0,.113.259Zm-23.62.482a1.53,1.53,0,0,0,.2.233,25.831,25.831,0,0,0,16.065,3.911,11.123,11.123,0,0,0,3.831-1.152,3.923,3.923,0,0,0,2.036-4.711,9.724,9.724,0,0,0-5.54-6.651,32.841,32.841,0,0,0-8.3-2.319,20.655,20.655,0,0,1-3.763-1.1,1.589,1.589,0,0,1-.779-1.318c.06-.356.782-.793,1.249-.843a8.682,8.682,0,0,1,2.8.118c1.851.422,3.666,1,5.571,1.536l1.379-3.506a22.683,22.683,0,0,0-11.849-2.36,11.614,11.614,0,0,0-4.014,1.154,3.39,3.39,0,0,0-1.84,3.885,6.849,6.849,0,0,0,3.27,4.848c2.378,1.525,5.1,2.02,7.787,2.635,1.764.4,3.524.846,5.252,1.38a1.588,1.588,0,0,1,1.224,1.8c-.169.929-1.072,1.031-1.8,1.034a13.922,13.922,0,0,1-3.638-.287c-2.25-.606-4.44-1.438-6.774-2.216Zm-25.421-2.167h-12.964v-15.631h-6.354c-.324,7.227-.644,14.372-.967,21.553h20.965Zm1.155-15.711c.045.524.061.958.122,1.386.917,6.452,1.859,12.9,2.738,19.358.106.781.353.977,1.1.974,6.341-.026,12.682-.014,19.024-.017.295,0,.59-.037.991-.063-.537-1.769-1.066-3.411-1.523-5.072a.94.94,0,0,0-1.092-.835c-3.672.036-7.345,0-11.018.03-.7.005-1.031-.122-1.182-.92-.884-4.67-1.835-9.327-2.8-13.981-.065-.317-.407-.813-.635-.822C-830.184,1616.1-832.061,1616.128-834.033,1616.128Zm22.939,23.623c-.193-1.456-.193-1.457-1.567-1.457q-8.9,0-17.8,0c-.565,0-1.016.018-1.117-.766-.405-3.16-.869-6.312-1.317-9.467q-.678-4.783-1.365-9.565l-.167.024q1.438,10.609,2.878,21.226Zm-2.269-18.786a5.606,5.606,0,0,0,1.442,5.542c1.785,2,4.247,2.7,6.705,3.386,2.675.746,5.519.822,8.071,2.109.336.169.988-.293,1.493-.464-.233-.41-.368-1.015-.717-1.192a13.094,13.094,0,0,0-2.729-.966c-2.4-.6-4.85-1.02-7.221-1.714C-809.742,1626.663-812.465,1624.8-813.363,1620.964Zm-21.585,1.76-.192.052,2.62,20.954h19.331c-.216-1.521-.216-1.521-1.617-1.521q-8.282,0-16.565,0c-.557,0-1.047.025-1.144-.757-.482-3.91-1-7.816-1.507-11.722Q-834.48,1626.228-834.948,1622.724Zm25.012,11.942a1.614,1.614,0,0,0,.564,2.3,24.28,24.28,0,0,0,8.75,2.992,18.857,18.857,0,0,0,7.655-.2,5.476,5.476,0,0,0,3.1-1.855C-797.058,1639.909-803.649,1638.235-809.936,1634.666Zm-45.325,5.04h20.476l-.234-1.365h-20.242Zm43.2.774a6.5,6.5,0,0,0,.934.791,22.021,22.021,0,0,0,7.31,2.6,16.675,16.675,0,0,0,8.27-.3,3.956,3.956,0,0,0,2.465-1.869,16.965,16.965,0,0,1-8.922.662,24.639,24.639,0,0,1-8.478-2.9l.068.35Zm-42.87,3.207h19.312l-.155-1.416h-19.157Zm58.024-21.48a15.6,15.6,0,0,0-2.266-.837c-1.77-.359-3.557-.646-5.349-.87-.32-.04-.7.36-1.045.557a9.212,9.212,0,0,0,.844.919c.146.124.413.106.626.151,1.162.246,2.327.476,3.485.741,1.03.235,2.051.509,3.127.778Zm-18.14,2.78a5.932,5.932,0,0,0,.964,5.465,1.745,1.745,0,0,0,1.855.976.708.708,0,0,1,.949.638,1.368,1.368,0,0,0,1.377,1.209l.929-1.581C-813.513,1629.141-813.7,1628.937-815.044,1624.986Z" transform="translate(915.146 -1614.528)" fill="#fff"/>
      <path id="Path_64982" data-name="Path 64982" d="M-1165.565,1639.057c.344.019.616.047.889.047,4.585,0,9.17.036,13.754-.014a16.232,16.232,0,0,0,7.537-1.736,8.442,8.442,0,0,0,4.565-5.489,3.545,3.545,0,0,0-2.067-4.524c-.388-.192-.789-.358-1.307-.592.707-.335,1.3-.6,1.883-.9a6.7,6.7,0,0,0,2.972-2.809c.973-1.845.742-3.217-.829-4.734l.761-.817c1.932,1.185,1.935,3.421,3.005,5.2.484-1.757.944-3.4,1.39-5.05.364-1.343.568-1.509,1.956-1.514a9.183,9.183,0,0,0,1.223-.01c.853-.119,1.212.279,1.263,1.276-.805,0-1.6-.047-2.389.024-.294.026-.751.273-.817.509-1.126,4.031-2.409,8.033-3.238,12.128-1.022,5.05,1.118,8.122,6.128,9.126a18.862,18.862,0,0,0,10.83-.808,10.262,10.262,0,0,0,6.779-8.608c.519-3.839.686-7.725,1-11.59a5.639,5.639,0,0,0-.037-.713h-6.22a9.439,9.439,0,0,0-.233,1.426c-.016.921-.479,1.125-1.384.928a19.855,19.855,0,0,1,.459-2.858,1.473,1.473,0,0,1,1.109-.789c2.133-.076,4.27-.041,6.4-.031.814,0,1.151.512,1.25,1.261a68.043,68.043,0,0,1,.29,16.9c-.2,1.721-.2,3.48-.547,5.169-1.047,5.106-4.852,8.445-10.23,9.155a18.294,18.294,0,0,1-7.377-.364,8.037,8.037,0,0,1-5.666-4.958c-.345-.87-.751-1.716-1.167-2.657-1.958,5.853-6.5,7.517-11.881,7.679-4.267.128-8.542.052-12.811-.007a2.469,2.469,0,0,1-1.6-.737c-2.17-2.366-4.249-4.817-6.4-7.2a1.721,1.721,0,0,1-.28-2.2q5.124-10.378,10.159-20.8a1.89,1.89,0,0,1,1.952-1.26c2.951.053,5.9.009,8.855.029.435,0,1.108-.274,1.108.587,0,.88-.678.66-1.167.662-2.857.013-5.716-.012-8.573.031a1.337,1.337,0,0,0-1.013.544q-5.157,10.412-10.239,20.861A2.081,2.081,0,0,0-1165.565,1639.057Zm27.716-7.923-.243-.019a1.421,1.421,0,0,0-.144.318,8.562,8.562,0,0,1-4.407,6.045,16.3,16.3,0,0,1-8.386,2.087c-3.732.017-7.465,0-11.2,0-1.288,0-1.384.084-1.656,1.427,5.234,0,10.47.084,15.7-.051a15.015,15.015,0,0,0,4.734-1.087,8.163,8.163,0,0,0,5.566-5.922A12.928,12.928,0,0,0-1137.849,1631.133Zm-22.526,13.873c.158.012.313.033.467.033,4.459,0,8.919.067,13.376-.037a16.772,16.772,0,0,0,4.61-.8,8.229,8.229,0,0,0,5.975-5.875,3.759,3.759,0,0,0-.131-2.956,22.743,22.743,0,0,1-1.839,3.721c-2.089,2.836-5.181,3.995-8.52,4.2-4.068.246-8.157.148-12.237.19C-1160.073,1643.5-1160.079,1643.49-1160.375,1645.006Zm28.651-3.265a4.825,4.825,0,0,0,2.451,2.463,15.356,15.356,0,0,0,14.03-.57,10.116,10.116,0,0,0,4.9-8.982,12.032,12.032,0,0,1-2.631,5.316,12.223,12.223,0,0,1-8.165,3.818C-1124.84,1644.15-1128.492,1644.092-1131.724,1641.741Zm20.853-11.2a11.567,11.567,0,0,1-4.936,7.272c-4.373,2.921-13.718,3.108-17.321.1-.048-.04-.157-.005-.328-.005a6.836,6.836,0,0,0,4.085,2.951,18.2,18.2,0,0,0,12.076-.607A10.565,10.565,0,0,0-1110.872,1630.537Zm-25.417-9a7.391,7.391,0,0,1-4.586,5.165c1.937,1.285,2.27,1.254,3.692-.51a7.226,7.226,0,0,0,.974-1.708A3.1,3.1,0,0,0-1136.288,1621.537Zm-.8,10.638c.537-.533,1.182-.89,1.36-1.409a27.908,27.908,0,0,0,.764-3.388l-2.815,3.083Z" transform="translate(1166.868 -1615.802)" fill="#fff"/>
      <path id="Path_64983" data-name="Path 64983" d="M-957.374,1643.118c.905.478,1.669.841,2.384,1.284a1.563,1.563,0,0,1,.474.75,7.483,7.483,0,0,1,.14,4.626c-.275,1.159-.436,2.345-.648,3.524a3.156,3.156,0,0,0,3.138-2.34c.384-1.455.534-2.972.784-4.462.067-.4.13-.8.2-1.245l1.2-.072c-.164,1.284-.277,2.493-.484,3.685a14.563,14.563,0,0,1-.708,2.917c-1.233,3.078-5.382,3.574-7.577,2.406a2.789,2.789,0,0,1-1.53-3.013c.465-2.939,1.079-5.854,1.633-8.779l.386.02a4.15,4.15,0,0,1-.008.83c-.484,2.314-1.016,4.617-1.464,6.938a4.4,4.4,0,0,0,.172,2.011Zm1.594,2.05-.318-.114a2.71,2.71,0,0,0-.362.679q-.777,3.782-1.5,7.575c-.041.218.123.475.191.714l.329-.071Z" transform="translate(999.068 -1637.1)" fill="#fff"/>
      <path id="Path_64984" data-name="Path 64984" d="M-1108.744,1689.428c.583-1.351,1.131-2.677,1.74-3.974.081-.173.46-.287.7-.289,1.911-.014,3.822-.012,5.732.028a3.423,3.423,0,0,1,1.266.3,1.292,1.292,0,0,1,.717,1.791,3.047,3.047,0,0,1-2.772,2.1C-1103.754,1689.532-1106.163,1689.428-1108.744,1689.428Zm9.657-2.242c.317-.667.048-1.115-.633-1.34a3.743,3.743,0,0,0-1.1-.2c-1.752-.023-3.5-.022-5.255-.01-.192,0-.495.074-.556.2-.484,1.025-.922,2.071-1.393,3.155,1.622.179,1.662.194,2.119-1.028a1.034,1.034,0,0,1,1.165-.793C-1102.9,1687.212-1101.055,1687.186-1099.087,1687.186Z" transform="translate(1119.713 -1671.728)" fill="#fff"/>
      <path id="Path_64985" data-name="Path 64985" d="M-1082.1,1647.151c-2.495,1.389-5.035.623-7.738.891.58-1.32,1.045-2.4,1.541-3.474a.585.585,0,0,1,.437-.267c1.241-.022,2.482-.012,3.723-.012l.042.251a2.3,2.3,0,0,1-.5.193,5.588,5.588,0,0,1-.75.011c-2.67,0-2.67,0-3.626,2.65.736.111,1.48.417,1.8-.645.039-.128.2-.321.288-.315,1.159.076,2.318.162,3.471.3A7.854,7.854,0,0,1-1082.1,1647.151Z" transform="translate(1104.374 -1638.629)" fill="#fff"/>
    </g>
    <g id="Group_71536" data-name="Group 71536" transform="translate(-1145.891 1493.709)">
      <path id="Path_64986" data-name="Path 64986" d="M-1032.838,1503.111a2.227,2.227,0,0,0,1.3-.313q10.395-3.951,20.783-7.918a9.956,9.956,0,0,1,1.069-.366,1.009,1.009,0,0,1,1.338.563c.237.643-.287.9-.769,1.083q-4.831,1.878-9.668,3.74-8.527,3.3-17.054,6.587c-.531.2-.96.432-.978,1.1a19.959,19.959,0,0,0,1.391,8.9c1.8,4.01,4.916,5.638,9.241,4.916a22.591,22.591,0,0,0,3.362-.9c.706-.234,1.355-.152,1.659.607a1.162,1.162,0,0,1-.782,1.593c-3.136,1.207-6.363,1.873-9.659.808-3.972-1.283-5.865-4.428-6.849-8.256a18.72,18.72,0,0,1-.627-4.775c0-.3.108-.713-.225-.859-.35-.153-.537.245-.745.453q-6.572,6.582-13.133,13.176a3.488,3.488,0,0,1-1.088.889.989.989,0,0,1-1.141-.153.932.932,0,0,1-.188-1.134,12.244,12.244,0,0,1,.6-1.072,9.473,9.473,0,0,0,1.376-3.8c.1-.919.006-1.783-1.058-2.163a.824.824,0,0,1-.544-.986,1.262,1.262,0,0,1,.958-1.057,2.182,2.182,0,0,1,2.516,1.024,4.5,4.5,0,0,1,.617,2.256c.009.242-.091.574.164.694.327.153.487-.207.675-.39q4.886-4.794,9.76-9.6,4.494-4.427,8.983-8.86c.212-.21.634-.406.494-.726-.157-.36-.565-.109-.847-.057a23.238,23.238,0,0,1-5.071.21c-.59-.021-1.361-.026-1.314-.851s.786-.99,1.49-.912a16.4,16.4,0,0,0,5.244-.249,10.876,10.876,0,0,0,4.941-2.2,1.931,1.931,0,0,1,.653-.357.863.863,0,0,1,1.009.317.744.744,0,0,1-.09.959,8.642,8.642,0,0,1-.7.767q-3.23,3.247-6.463,6.491A1.844,1.844,0,0,0-1032.838,1503.111Z" transform="translate(1055.712 -1493.709)" fill="#fff"/>
      <path id="Path_64987" data-name="Path 64987" d="M-929.48,1548.682a2.968,2.968,0,0,0,1.383-.545,13.654,13.654,0,0,0,3.36-2.716,8.6,8.6,0,0,1,6.348-3.253,1.83,1.83,0,0,1,.925.095c.967.6,1.469.009,2.031-.652.815-.959,1.687-1.869,2.539-2.8a2.249,2.249,0,0,1,.426-.37,1,1,0,0,1,1.375.063c.443.467.111.865-.218,1.231a58.6,58.6,0,0,0-5.772,7.7,8.782,8.782,0,0,0-.454.827c-.035.07-.005.172-.005.319a4.553,4.553,0,0,0,2.153-1.142,14.907,14.907,0,0,0,2.3-2.366,7.471,7.471,0,0,1,4.545-2.987,4.781,4.781,0,0,1,.559-.076c1.275-.084,2.251.343,2.56,1.181a2.351,2.351,0,0,1-.811,2.722c-1.483,1.279-3.123,2.146-5.166,1.368-.319-.121-.626-.2-.776.219a.888.888,0,0,0,.3,1.1,2.311,2.311,0,0,0,1.806.347,10.282,10.282,0,0,0,6.467-3.9c.629-.787,1.205-1.616,1.813-2.42.39-.516.809-1.042,1.557-.718.709.308.614.921.272,1.69.877-.368,1.522-.673,2.192-.908a12.357,12.357,0,0,1,1.728-.454,1.5,1.5,0,0,1,1.631.458,1.571,1.571,0,0,1-.048,1.782,39.809,39.809,0,0,1-2.271,3.476c.57.115.858-.219,1.189-.39,1.63-.847,2.639-2.4,3.988-3.57a7.816,7.816,0,0,1,4.8-1.935,2.012,2.012,0,0,1,1.011.14,2.182,2.182,0,0,0,1.944.2.939.939,0,0,1,1.117.507c.241.394.059.724-.17,1.043a17.74,17.74,0,0,0-2.139,3.665c-.12.3-.449.679-.106.939.307.233.647-.106.927-.286a10.343,10.343,0,0,0,2.99-3.1c.5-.748,1.064-.833,1.639-.308a.844.844,0,0,1,.285,1.1c-1.273,2.176-2.858,4.035-5.413,4.676-1.779.446-2.407-.078-3.01-2.286-.7.5-1.362,1.024-2.066,1.476-1.832,1.175-2.389,1.089-3.76-.594-.3-.368-.528-.211-.8-.052a13.16,13.16,0,0,1-2.546,1.219,5.1,5.1,0,0,1-1.1.239,1.542,1.542,0,0,1-1.67-.6,1.6,1.6,0,0,1,.246-1.771q.625-.946,1.272-1.877c.407-.589.825-1.172,1.283-1.821-.52-.217-.82.068-1.124.218a23.258,23.258,0,0,0-6.55,5.183c-.621.663-1.233.983-2.017.288-.327-.29-.648-.113-.969.006a7.923,7.923,0,0,1-3.409.572,3.625,3.625,0,0,1-2.729-1.295c-.41-.522-.768-.5-1.265-.147a7.255,7.255,0,0,1-2.805,1.29c-1.724.348-2.325-.08-2.489-1.883-.723.425-1.4.852-2.107,1.23a4.271,4.271,0,0,1-2.343.6,1.664,1.664,0,0,1-1.328-.616c-.439-.643-.868-.529-1.422-.189a6.45,6.45,0,0,1-2.656.907c-1.454.167-2.026-.449-1.781-1.914a2.287,2.287,0,0,0,0-.363c-.441-.05-.67.256-.954.426a14.152,14.152,0,0,1-2.994,1.578c-1.466.458-2.438-.433-2.1-1.955a7.4,7.4,0,0,1,2.724-3.986,9.872,9.872,0,0,1,5.434-2.4,2.6,2.6,0,0,1,2.063.377c.3.243.582.1.883,0,.5-.175,1.028-.24,1.339.3s-.111.889-.445,1.219a27.68,27.68,0,0,0-3.146,3.64C-929.224,1547.94-929.539,1548.2-929.48,1548.682Zm10.658-4.849a7.6,7.6,0,0,0-5.255,3.888c-.158.259-.413.591-.187.869.285.352.65.051.932-.1a21,21,0,0,0,5.02-3.942c.132-.13.281-.286.195-.494C-918.226,1543.8-918.482,1543.874-918.821,1543.833Zm27.233,4.015c-.016.18-.114.4.114.5.194.085.359-.066.511-.167a33.516,33.516,0,0,0,4.276-3.536c.158-.149.341-.313.221-.567s-.356-.22-.574-.222C-888.76,1543.838-891.369,1546.13-891.588,1547.848Zm-38.443-3.989c-1.7.025-4.918,2.27-5.535,3.864-.065.169-.208.378-.009.513s.42-.025.606-.13a61.761,61.761,0,0,0,5.242-3.509c.175-.125.386-.273.272-.537S-929.818,1543.867-930.032,1543.859Zm20.209,1.906a3.992,3.992,0,0,0,2.342-1.292.5.5,0,0,0,.163-.512c-.1-.254-.343-.253-.562-.22a4.757,4.757,0,0,0-2.438,1.135c-.186.16-.411.343-.263.635C-910.445,1545.779-910.169,1545.754-909.823,1545.765Z" transform="translate(960.163 -1529.743)" fill="#fff"/>
    </g>
  </g>
</svg>
