<svg xmlns="http://www.w3.org/2000/svg" width="70" height="64" viewBox="0 0 70 64">
  <path id="crosschain" d="M224.828,1259.365h.082l-.287-1.08a11.656,11.656,0,0,0-5.447-7.078l-7.084-4.046a11.734,11.734,0,0,0-15.957,4.265l-.018.033a2.137,2.137,0,0,0,3.7,2.133l.018-.03a7.448,7.448,0,0,1,10.12-2.7l7.118,4.1a7.386,7.386,0,0,1-7.443,12.76l-7.145-4.112a7.268,7.268,0,0,1-1.257-.93l6.155-3.583a2.138,2.138,0,0,0,1.069-1.844V1253a2.139,2.139,0,0,0-4.278,0v3.022l-12.316,7.092V1248.96l12.316-6.813v.671a2.139,2.139,0,0,0,4.278,0v-4.664a2.137,2.137,0,0,0-1.069-1.843l-6.622-3.817a11.566,11.566,0,0,0,.67-3.817v-8.124a11.681,11.681,0,0,0-23.362,0v8.124a11.693,11.693,0,0,0,11.713,11.673,2.132,2.132,0,1,0,0-4.263,7.423,7.423,0,0,1-7.435-7.41v-8.085a7.437,7.437,0,0,1,14.806,0v8.082a7.422,7.422,0,0,1-.185,1.625l-6.18-3.537a2.15,2.15,0,0,0-2.14,0l-3.752,2.161a2.134,2.134,0,1,0,2.138,3.691l2.681-1.527,12.584,7.26-12.572,6.907L177.4,1238.16l.67-.387.031-.018a2.134,2.134,0,0,0-2.14-3.688l-3.9,2.282a2.136,2.136,0,0,0-1.07,1.845v7.6a11.7,11.7,0,0,0-3.641,1.372l-7.084,4.077-.1.057-.021.021a11.684,11.684,0,0,0,11.786,20.119l7.13-4.1.1-.057h0a11.621,11.621,0,0,0,4.181-15.835,2.137,2.137,0,1,0-3.7,2.13,7.4,7.4,0,0,1-2.717,10.067l-7.079,4.074a7.424,7.424,0,0,1-10.866-8.3,7.328,7.328,0,0,1,3.426-4.473l7.09-4.081a7.488,7.488,0,0,1,1.5-.67v7.068a2.135,2.135,0,0,0,1.065,1.841l3.788,2.211a2.14,2.14,0,0,0,2.206-3.667l-2.781-1.608v-14.18l12.317,7.086v14.174l-.831-.477a2.134,2.134,0,1,0-2.138,3.69l4.039,2.321a2.155,2.155,0,0,0,2.139,0l6.623-3.811a11.719,11.719,0,0,0,2.968,2.468l7.084,4.077.2.115h.007a11.672,11.672,0,0,0,5.575,1.422,11.814,11.814,0,0,0,3.07-.408,11.674,11.674,0,0,0,8.509-13.144Z" transform="translate(-154.984 -1208.917)" fill="#FF5B7E"/>
</svg>
