<svg xmlns="http://www.w3.org/2000/svg" width="63.998" height="64" viewBox="0 0 63.998 64">
  <path id="DAPPs" d="M216.169,173.178l1.486-1.486c1.157-1.157,2.155-2.155,3.044-2.91a9.479,9.479,0,0,1,3.211-1.911,9.311,9.311,0,0,1,5.754,0,9.484,9.484,0,0,1,3.211,1.911c.889.755,1.887,1.753,3.044,2.91l1.486,1.486c1.157,1.157,2.154,2.155,2.91,3.044a9.486,9.486,0,0,1,1.91,3.211,9.311,9.311,0,0,1,0,5.754,9.477,9.477,0,0,1-1.91,3.211c-.755.889-1.753,1.887-2.91,3.044l-1.486,1.486h0c-1.157,1.157-2.155,2.155-3.044,2.909a9.478,9.478,0,0,1-3.211,1.911,9.309,9.309,0,0,1-5.754,0,9.47,9.47,0,0,1-3.211-1.911c-.889-.755-1.887-1.753-3.044-2.91l-1.486-1.486c-1.157-1.157-2.155-2.155-2.91-3.044a9.483,9.483,0,0,1-1.91-3.211,9.311,9.311,0,0,1,0-5.754,9.481,9.481,0,0,1,1.91-3.211c.755-.889,1.753-1.887,2.91-3.044h0Zm1.822,7.061a3.543,3.543,0,0,0-.739,1.113,3.1,3.1,0,0,0,0,1.918,3.532,3.532,0,0,0,.739,1.113c.571.673,1.387,1.491,2.652,2.757l1.317,1.317c1.266,1.265,2.084,2.08,2.757,2.652a3.554,3.554,0,0,0,1.112.739,3.1,3.1,0,0,0,1.918,0,3.545,3.545,0,0,0,1.112-.739c.673-.571,1.491-1.386,2.757-2.652l1.317-1.317c1.266-1.265,2.081-2.084,2.652-2.757a3.544,3.544,0,0,0,.739-1.113,3.1,3.1,0,0,0,0-1.918,3.533,3.533,0,0,0-.739-1.113c-.571-.673-1.387-1.491-2.652-2.757l-1.317-1.317c-1.266-1.265-2.084-2.08-2.757-2.652a3.549,3.549,0,0,0-1.112-.739,3.1,3.1,0,0,0-1.918,0,3.539,3.539,0,0,0-1.112.739c-.673.571-1.491,1.386-2.757,2.652l-1.317,1.317c-1.265,1.265-2.08,2.084-2.652,2.757ZM193.7,202.483h-2.1c-1.636,0-3.047,0-4.21.1a9.478,9.478,0,0,0-3.622.92,9.312,9.312,0,0,0-4.069,4.069,9.477,9.477,0,0,0-.92,3.622c-.1,1.162-.1,2.574-.095,4.21v2.1c0,1.636,0,3.047.095,4.21a9.476,9.476,0,0,0,.92,3.622,9.308,9.308,0,0,0,4.069,4.069,9.476,9.476,0,0,0,3.622.92c1.162.1,2.574.1,4.21.1h2.1c1.636,0,3.047,0,4.21-.1a9.478,9.478,0,0,0,3.622-.92,9.308,9.308,0,0,0,4.069-4.069,9.488,9.488,0,0,0,.92-3.622c.1-1.162.1-2.574.095-4.21v-2.1c0-1.636,0-3.047-.095-4.21a9.487,9.487,0,0,0-.92-3.622,9.315,9.315,0,0,0-4.069-4.069,9.477,9.477,0,0,0-3.622-.92c-1.162-.1-2.574-.1-4.21-.1Zm-7.115,6.546a3.543,3.543,0,0,1,1.309-.264c.879-.072,2.035-.074,3.824-.074h1.862c1.79,0,2.945,0,3.824.074a3.541,3.541,0,0,1,1.309.264,3.1,3.1,0,0,1,1.357,1.357,3.539,3.539,0,0,1,.264,1.309c.072.879.074,2.035.074,3.824v1.862c0,1.79,0,2.945-.074,3.824a3.523,3.523,0,0,1-.264,1.309,3.1,3.1,0,0,1-1.357,1.357,3.534,3.534,0,0,1-1.309.264c-.879.072-2.035.074-3.824.074h-1.862c-1.789,0-2.945,0-3.824-.074a3.536,3.536,0,0,1-1.309-.264,3.1,3.1,0,0,1-1.357-1.357,3.541,3.541,0,0,1-.264-1.309c-.072-.88-.074-2.035-.074-3.824v-1.862c0-1.789,0-2.945.074-3.824a3.524,3.524,0,0,1,.264-1.309A3.106,3.106,0,0,1,186.584,209.029Zm41.255-6.546h-2.1c-1.636,0-3.047,0-4.21.1a9.476,9.476,0,0,0-3.622.92,9.308,9.308,0,0,0-4.069,4.069,9.477,9.477,0,0,0-.92,3.622c-.1,1.162-.1,2.574-.1,4.21v2.1c0,1.636,0,3.047.1,4.21a9.476,9.476,0,0,0,.92,3.622,9.308,9.308,0,0,0,4.069,4.069,9.476,9.476,0,0,0,3.622.92c1.162.1,2.574.1,4.21.1h2.1c1.636,0,3.047,0,4.21-.1a9.478,9.478,0,0,0,3.622-.92,9.308,9.308,0,0,0,4.069-4.069,9.488,9.488,0,0,0,.92-3.622c.1-1.162.095-2.574.095-4.209v-2.1c0-1.636,0-3.047-.095-4.209a9.487,9.487,0,0,0-.92-3.622,9.312,9.312,0,0,0-4.069-4.069,9.477,9.477,0,0,0-3.622-.92c-1.162-.1-2.574-.1-4.21-.1Zm-7.115,6.546a3.543,3.543,0,0,1,1.309-.264c.879-.072,2.035-.074,3.824-.074h1.862c1.79,0,2.945,0,3.824.074a3.538,3.538,0,0,1,1.309.264,3.1,3.1,0,0,1,1.357,1.357,3.536,3.536,0,0,1,.264,1.309c.072.879.074,2.035.074,3.824v1.862c0,1.79,0,2.945-.074,3.824a3.534,3.534,0,0,1-.264,1.309,3.1,3.1,0,0,1-1.357,1.357,3.53,3.53,0,0,1-1.309.264c-.879.072-2.035.074-3.824.074h-1.862c-1.789,0-2.945,0-3.824-.074a3.531,3.531,0,0,1-1.309-.264,3.1,3.1,0,0,1-1.357-1.357,3.548,3.548,0,0,1-.264-1.309c-.072-.88-.074-2.035-.074-3.824v-1.862c0-1.789,0-2.945.074-3.824a3.545,3.545,0,0,1,.264-1.309A3.106,3.106,0,0,1,220.724,209.029ZM193.7,168.345h-2.1c-1.636,0-3.047,0-4.21.095a9.478,9.478,0,0,0-3.622.92,9.312,9.312,0,0,0-4.069,4.069,9.477,9.477,0,0,0-.92,3.622c-.1,1.162-.1,2.574-.095,4.21v2.1c0,1.636,0,3.047.095,4.21a9.478,9.478,0,0,0,.92,3.622,9.312,9.312,0,0,0,4.069,4.069,9.477,9.477,0,0,0,3.622.92c1.162.1,2.574.1,4.21.1h2.1c1.636,0,3.047,0,4.21-.1a9.478,9.478,0,0,0,3.622-.92,9.308,9.308,0,0,0,4.069-4.069,9.488,9.488,0,0,0,.92-3.622c.1-1.162.1-2.574.095-4.21v-2.1c0-1.636,0-3.047-.095-4.21a9.489,9.489,0,0,0-.92-3.622,9.315,9.315,0,0,0-4.069-4.069,9.476,9.476,0,0,0-3.622-.92c-1.162-.1-2.574-.095-4.21-.095Zm-7.115,6.546a3.543,3.543,0,0,1,1.309-.264c.879-.072,2.035-.074,3.824-.074h1.862c1.79,0,2.945,0,3.824.074a3.526,3.526,0,0,1,1.309.264,3.1,3.1,0,0,1,1.357,1.357,3.539,3.539,0,0,1,.264,1.309c.072.879.074,2.035.074,3.824v1.862c0,1.79,0,2.945-.074,3.824a3.523,3.523,0,0,1-.264,1.309,3.1,3.1,0,0,1-1.357,1.357A3.538,3.538,0,0,1,197.4,190c-.879.072-2.035.074-3.824.074h-1.862c-1.789,0-2.945,0-3.824-.074a3.524,3.524,0,0,1-1.309-.264,3.1,3.1,0,0,1-1.357-1.357,3.541,3.541,0,0,1-.264-1.309c-.072-.879-.074-2.035-.074-3.824V181.38c0-1.79,0-2.945.074-3.824a3.528,3.528,0,0,1,.264-1.309A3.106,3.106,0,0,1,186.585,174.891Z" transform="translate(-178.683 -166.416)" fill="#FFB31C" fill-rule="evenodd"/>
</svg>
