<svg xmlns="http://www.w3.org/2000/svg" width="71.299" height="64.998" viewBox="0 0 71.299 64.998">
  <path id="Private" d="M-18954.055,2312.338a2.486,2.486,0,0,1-.143-3.345l9.563-9.563-.422-.343a41.792,41.792,0,0,1-11.033-13.793l-1.561-3.131a2.482,2.482,0,0,1,0-2.2l1.555-3.131c6.795-13.564,19.561-21.991,33.314-21.991a34.586,34.586,0,0,1,17.428,4.767l.334.2,10.172-10.158a2.481,2.481,0,0,1,1.594-.58,2.459,2.459,0,0,1,1.75.723,2.479,2.479,0,0,1,.139,3.345l-19.668,19.688.223.333a14.455,14.455,0,0,1,1.584,12.532,14.42,14.42,0,0,1-8.93,8.93,14.3,14.3,0,0,1-4.645.775,14.353,14.353,0,0,1-7.889-2.36l-.332-.224-19.687,19.669a2.452,2.452,0,0,1-1.594.585A2.463,2.463,0,0,1-18954.055,2312.338Zm2.389-33.3-1,2.017,1.033,2.065a37.1,37.1,0,0,0,10.2,12.546l.342.271,32.42-32.5-.6-.309a29.749,29.749,0,0,0-13.508-3.354h0C-18934.646,2259.783-18945.719,2267.163-18951.666,2279.043Zm24.213,10.225.633.3a9.463,9.463,0,0,0,4.02.9,9.216,9.216,0,0,0,1.619-.138,9.358,9.358,0,0,0,4.9-2.483h.033l.143-.148a9.306,9.306,0,0,0,2.6-5.048,9.334,9.334,0,0,0-.781-5.619l-.3-.633Zm-4.877,16.643a2.463,2.463,0,0,1-1.48-1.185,2.446,2.446,0,0,1-.2-1.879,2.48,2.48,0,0,1,2.373-1.784,2.474,2.474,0,0,1,.7.1,28.942,28.942,0,0,0,8.168,1.18c11.867,0,22.934-7.379,28.881-19.26l1-2.017-1-2.017a38.677,38.677,0,0,0-5.514-8.217,2.463,2.463,0,0,1,.3-3.4,2.459,2.459,0,0,1,1.631-.619,2.46,2.46,0,0,1,1.779.752,43.348,43.348,0,0,1,6.229,9.268l1.561,3.131a2.494,2.494,0,0,1,0,2.2l-1.561,3.131c-6.789,13.565-19.555,22-33.311,22A34.135,34.135,0,0,1-18932.33,2305.91Zm-4.8-27.819a11.3,11.3,0,0,1,3.336-8.046,11.3,11.3,0,0,1,8.045-3.335,2.481,2.481,0,0,1,2.475,2.474,2.478,2.478,0,0,1-2.475,2.474,6.479,6.479,0,0,0-4.547,1.884,6.382,6.382,0,0,0-1.885,4.549,2.478,2.478,0,0,1-2.475,2.474A2.476,2.476,0,0,1-18937.127,2278.092Z" transform="translate(18958.428 -2248.564)" fill="#FF5B7E" stroke="rgba(0,0,0,0)" stroke-miterlimit="10" stroke-width="1"/>
</svg>
