<svg xmlns="http://www.w3.org/2000/svg" width="66.6" height="65.024" viewBox="0 0 66.6 65.024">
  <path id="Send_receive_store" data-name="Send,receive&amp;store" d="M-18068.561,3245.1a2.059,2.059,0,0,1-1.559-.721l-.916-.463h.611a2.127,2.127,0,0,1-.209-.911,2.085,2.085,0,0,1,2.072-2.091h1.479l1.832-5.538a5.064,5.064,0,0,1,1.834-2.521,5.012,5.012,0,0,1,2.943-.966h1.732v-16.844h-3.873a2.086,2.086,0,0,1-2.074-2.1,2.085,2.085,0,0,1,2.074-2.091h47.564a2.084,2.084,0,0,1,2.068,2.091,2.085,2.085,0,0,1-2.068,2.1h-3.877v16.844h1.732a4.966,4.966,0,0,1,2.947.966,5.028,5.028,0,0,1,1.838,2.521l1.822,5.538h1.479a2.085,2.085,0,0,1,2.072,2.091,2.085,2.085,0,0,1-2.072,2.1Zm7.234-8.39-1.389,4.2h47.766l-1.387-4.2a.9.9,0,0,0-.854-.626h-43.283A.9.9,0,0,0-18061.326,3236.714Zm24.563-4.812h4.781v-16.848h-4.781Zm-8.916,0h4.775v-16.848h-4.775Zm-8.916,0h4.775v-16.848h-4.775Zm26.754-.009h4.775v-16.844h-4.775Zm-34.771-22.853a4.97,4.97,0,0,1-3.566-1.492,5.093,5.093,0,0,1-1.479-3.605v-7.061a5.133,5.133,0,0,1,.813-2.776,5.079,5.079,0,0,1,2.182-1.882l.82-.367,22.963-10.313a5.024,5.024,0,0,1,4.1,0l23.777,10.685a5.013,5.013,0,0,1,2.182,1.882,5.133,5.133,0,0,1,.813,2.776v7.061a5.081,5.081,0,0,1-1.475,3.605,4.962,4.962,0,0,1-3.564,1.492Zm23.414-23.674-.82.367-22.963,10.318a.919.919,0,0,0-.535.834v7.062a.908.908,0,0,0,.9.912h47.564a.907.907,0,0,0,.635-.268.908.908,0,0,0,.264-.644v-7.066a.919.919,0,0,0-.535-.834l-23.779-10.68a.9.9,0,0,0-.367-.078A.908.908,0,0,0-18039.2,3185.366Zm-1.641,17.243a5.028,5.028,0,0,1-2.572-2.581h-4.34a2.084,2.084,0,0,1-2.068-2.091,2.085,2.085,0,0,1,2.068-2.1h4.34a5.028,5.028,0,0,1,2.572-2.581,4.958,4.958,0,0,1,4.018,0,5.063,5.063,0,0,1,2.572,2.581h4.334a2.086,2.086,0,0,1,2.074,2.1,2.085,2.085,0,0,1-2.074,2.091h-4.334a5.063,5.063,0,0,1-2.572,2.581,4.92,4.92,0,0,1-2.01.426A4.918,4.918,0,0,1-18040.84,3202.609Z" transform="translate(18073.135 -3180.579)" fill="#FF00B8" stroke="rgba(0,0,0,0)" stroke-miterlimit="10" stroke-width="1"/>
</svg>
