<svg xmlns="http://www.w3.org/2000/svg" width="241.065" height="32" viewBox="0 0 241.065 32">
  <g id="Group_82409" data-name="Group 82409" transform="translate(-341.859 1772.581)">
    <g id="Group_77852" data-name="Group 77852" transform="translate(341.859 -1772.581)">
      <g id="Group_77852-2" data-name="Group 77852" transform="translate(0 0)">
        <path id="Path_74956" data-name="Path 74956" d="M-1085.32-567.962a11.334,11.334,0,0,0-11.7,11.733c0,6.685,4.809,11.655,11.817,11.655,4.809,0,9.291-2.324,10.962-7.621h-6.031a5.179,5.179,0,0,1-4.971,2.812,5.553,5.553,0,0,1-5.826-5.378h17.2C-1073.3-562.136-1077.9-567.962-1085.32-567.962Zm-5.462,8.924a5.431,5.431,0,0,1,5.422-4.118,5.219,5.219,0,0,1,5.3,4.118Z" transform="translate(1097.016 576.438)" fill="#fff"/>
        <path id="Path_74957" data-name="Path 74957" d="M-999.791-549.952c-3.425,0-5.789-2.566-5.748-6.317-.04-3.708,2.243-6.315,5.789-6.315a5.049,5.049,0,0,1,5.173,3.627h5.991c-.855-5.7-5.7-9.005-11.164-9.005a11.4,11.4,0,0,0-11.7,11.693,11.386,11.386,0,0,0,11.655,11.7c5.378,0,10.308-3.138,11.2-9.046h-5.991A5.1,5.1,0,0,1-999.791-549.952Z" transform="translate(1036.175 576.438)" fill="#fff"/>
        <path id="Path_74958" data-name="Path 74958" d="M-881.929-510.026h-7.459l-7.358-8.659h7.514Z" transform="translate(954.623 541.402)" fill="#fff"/>
        <path id="Path_74959" data-name="Path 74959" d="M-904.415-588.328l-10.228,10.675-3.9,3.887-1.809,1.806v6.043h-5.829v-31.376h5.829V-579l8.517-9.332Z" transform="translate(975.548 597.292)" fill="#fff"/>
        <path id="Path_74960" data-name="Path 74960" d="M-843.614-567.962a11.482,11.482,0,0,0-11.652,11.693,11.457,11.457,0,0,0,11.652,11.7,11.444,11.444,0,0,0,11.7-11.7A11.492,11.492,0,0,0-843.614-567.962Zm0,17.848c-3.26,0-5.786-2.448-5.786-6.156,0-3.667,2.526-6.153,5.786-6.153s5.789,2.485,5.789,6.153C-837.825-552.561-840.354-550.114-843.614-550.114Z" transform="translate(925.131 576.438)" fill="#fff"/>
      </g>
      <g id="Group_77896" data-name="Group 77896" transform="translate(95.748 3.756)">
        <path id="Path_74985" data-name="Path 74985" d="M1695.943-662.13h7.04l-6.838,28.1h-8.456l-2.468-10.158-1.457-9.917-.687-.04-1.416,9.957-2.468,10.158h-8.5l-6.838-28.1h7.08l3.236,13.45.85,6.545.85-6.545,3.236-13.45h8.618l3.237,13.45.89,6.705.85-6.705Z" transform="translate(-1663.859 662.13)" fill="#ff1ab8"/>
        <path id="Path_74986" data-name="Path 74986" d="M1895.7-640.529h11.49v6.5h-18.368v-28.1h6.878Z" transform="translate(-1824.372 662.13)" fill="#ff1ab8"/>
        <path id="Path_74987" data-name="Path 74987" d="M1964.555-640.529h11.49v6.5h-18.369v-28.1h6.878Z" transform="translate(-1873.504 662.13)" fill="#ff1ab8"/>
        <path id="Path_74988" data-name="Path 74988" d="M2115.708-662.13v6.5h-7.728v21.6H2101.1v-21.6h-7.687v-6.5Z" transform="translate(-1970.39 662.13)" fill="#ff1ab8"/>
        <path id="Path_74989" data-name="Path 74989" d="M1806.137-633.886l-1.577-4.734h-10.187l-1.577,4.734h-7.358l9.864-28.244h8.409l9.824,28.244Zm-10.026-9.949h6.711l-3.355-10.03Z" transform="translate(-1750.634 662.13)" fill="#ff1ab8"/>
        <path id="Path_74990" data-name="Path 74990" d="M2044.747-655.386h-10.333v4.176h9.116v6.5h-9.116v4.416h10.333v6.5h-17.211v-28.1h17.211Z" transform="translate(-1923.342 661.959)" fill="#ff1ab8"/>
      </g>
    </g>
  </g>
</svg>
